<svg version="1.1" id="Layer_1" xmlns="http://www.w3.org/2000/svg" xmlns:xlink="http://www.w3.org/1999/xlink" x="0px" y="0px"
	 width="100%" viewBox="0 0 1024 1024" enable-background="new 0 0 1024 1024" xml:space="preserve">
<path fill="#000000" opacity="1.000000" stroke="none" 
	d="
M865.428589,163.417374 
	C877.542114,151.239029 889.215820,139.088898 902.884705,129.137039 
	C909.487183,124.330116 916.264893,119.746567 923.975952,116.864891 
	C933.796143,113.195000 941.516052,118.649315 942.432922,129.004211 
	C943.724670,143.593201 940.573120,157.422287 936.324890,171.119507 
	C927.704407,198.913116 918.632324,226.561722 908.997803,254.020309 
	C906.401367,261.419952 901.438904,267.651123 897.539185,275.047607 
	C900.865662,275.721649 903.812012,276.552155 905.412537,279.686707 
	C907.155090,283.099152 905.749878,286.264954 904.922363,289.391937 
	C902.287659,299.348175 899.447571,309.250671 896.629028,319.157471 
	C892.344421,334.217133 884.682922,347.272705 873.386841,358.169037 
	C872.225891,359.288879 871.277161,360.628754 870.175903,361.930450 
	C870.721863,362.219543 871.020996,362.523010 871.241943,362.474091 
	C880.906738,360.333710 883.812683,363.371399 881.841492,373.166962 
	C875.593201,404.216705 862.758972,432.249054 843.590088,457.421906 
	C842.595947,458.727386 841.728333,460.129211 840.730652,461.590454 
	C841.334839,462.026184 841.686340,462.491974 842.083252,462.534607 
	C850.504639,463.439758 852.284973,466.397675 848.857666,474.412964 
	C843.439148,487.085083 835.656433,498.300385 826.923706,508.862183 
	C824.319336,512.012024 823.053345,514.890198 824.130249,519.236572 
	C826.080139,527.106445 828.333923,535.109741 827.814026,543.281311 
	C826.778564,559.556580 816.291687,569.252563 799.448730,570.328308 
	C789.655518,570.953796 779.876221,571.833557 770.076416,572.299072 
	C766.427856,572.472473 765.237366,574.465942 764.474854,577.456421 
	C761.109375,590.655090 757.707458,603.844543 754.280945,617.027527 
	C753.085327,621.627380 751.309875,625.915344 746.869385,628.391479 
	C744.240723,629.857239 741.387878,631.600586 738.515747,629.423645 
	C735.722961,627.306824 735.348389,624.019348 736.083435,620.785950 
	C737.002319,616.743713 738.143738,612.747498 739.309814,608.766846 
	C742.667053,597.306335 746.085022,585.863647 749.662048,573.796753 
	C744.864685,574.008911 740.801453,574.111755 736.749207,574.380798 
	C716.021729,575.756897 695.326233,577.428589 674.692932,579.938965 
	C653.921387,582.466187 633.152039,584.995850 612.500793,588.362366 
	C592.683044,591.592957 572.651367,593.731812 553.290161,599.401611 
	C548.313416,600.858948 543.641907,603.057983 539.337341,605.979919 
	C520.232483,618.948547 499.695251,619.668762 478.823914,611.831299 
	C465.144867,606.694458 451.490173,607.232422 437.552582,608.801208 
	C436.763000,608.890076 436.010559,609.309082 434.844299,609.711182 
	C436.013000,612.791138 438.398926,614.669250 440.347900,616.812927 
	C455.139435,633.081970 470.777466,648.581787 484.707428,665.633240 
	C486.919342,668.340881 489.117737,671.064270 491.206543,673.866699 
	C498.157318,683.192261 497.788849,691.245056 490.049194,699.996704 
	C488.179596,702.110779 486.043976,704.008240 484.753510,706.748413 
	C485.669739,709.404846 488.064514,710.778381 490.113464,712.360413 
	C492.932343,714.536926 495.175995,717.169434 497.165161,720.066162 
	C499.647858,723.681702 499.851624,727.282104 497.824280,731.321777 
	C492.863586,741.206421 485.402893,748.248962 475.694061,753.576782 
	C445.023529,770.407471 413.543793,785.637207 382.358551,801.450562 
	C378.051880,803.634338 373.859772,806.045288 369.540009,808.201538 
	C367.014740,809.462036 366.375824,810.954468 367.278198,813.785522 
	C371.938293,828.405579 377.779175,842.101013 390.731873,851.722229 
	C395.888092,855.552246 395.431946,859.280457 390.002106,862.802856 
	C383.167786,867.236450 376.010895,871.172852 368.990936,875.319946 
	C366.160736,876.991882 363.483368,876.250000 361.014282,874.588501 
	C350.043091,867.205688 340.575592,858.556763 336.378815,845.410583 
	C334.913239,840.819885 333.099701,836.341187 331.502289,831.791260 
	C330.427582,828.730164 328.788727,828.208801 325.807312,829.696533 
	C318.236450,833.474426 310.738831,837.348083 302.094635,838.528625 
	C293.324402,839.726501 285.955292,837.249939 279.581573,831.513306 
	C265.927612,819.224243 254.050125,805.227173 241.865616,791.551392 
	C220.701187,767.796570 199.606415,743.973572 178.851089,719.861816 
	C155.602097,692.853088 132.762909,665.491516 109.743721,638.284973 
	C108.775772,637.140991 107.896729,635.895325 106.797890,634.892456 
	C86.685966,616.536438 93.467964,587.742615 112.214760,574.232361 
	C125.112946,564.937012 139.810501,558.826721 153.869293,551.598755 
	C160.828964,548.020630 167.826614,544.515381 174.755478,540.878845 
	C178.230408,539.054993 179.753296,536.909058 179.016922,532.159363 
	C174.542908,503.301086 170.750916,474.337921 166.565063,445.433838 
	C163.117233,421.625793 159.238052,397.879028 155.925934,374.052856 
	C153.207260,354.495667 151.088211,334.855682 148.612793,315.263885 
	C147.157043,303.742249 145.570206,292.236572 143.960388,280.735199 
	C141.742767,264.891418 147.673706,250.203705 162.736450,245.112808 
	C164.350708,244.567200 165.841476,243.757858 166.520294,242.080933 
	C171.934906,228.704865 183.101547,222.490204 196.069733,219.009262 
	C216.441605,213.541031 236.681564,207.537094 257.356232,203.237076 
	C280.421326,198.439911 303.521729,194.040039 326.990570,191.418259 
	C344.275848,189.487259 361.537567,189.039993 378.793549,189.840347 
	C404.852417,191.049026 430.283661,195.733841 454.146790,206.940430 
	C456.787048,208.180374 459.068756,209.178619 461.882263,206.793564 
	C482.480103,189.332611 506.153046,177.385269 531.429749,168.335770 
	C560.819458,157.813736 591.282227,152.094772 622.053894,147.551559 
	C643.235046,144.424316 664.487549,141.880219 685.787537,139.950668 
	C701.790283,138.500992 717.853394,136.344864 733.977661,137.729553 
	C742.149536,138.431335 748.954773,142.141998 752.955933,149.772263 
	C754.254578,152.248642 755.940308,153.947418 758.730042,154.845657 
	C773.733215,159.676208 780.314636,170.943741 782.337769,185.808777 
	C784.797852,203.884537 787.540283,221.921707 790.065491,239.988861 
	C790.960815,246.395020 791.615967,252.836090 792.292664,259.270508 
	C792.453430,260.799042 792.712280,262.224091 793.816284,263.739838 
	C795.935303,262.753845 796.432617,260.509369 797.495056,258.781647 
	C800.022827,254.671219 802.224670,250.342209 804.978027,246.394302 
	C807.248779,243.138336 809.861328,239.967758 814.711182,240.684769 
	C817.022583,241.026505 817.880859,239.137451 818.449646,237.356796 
	C827.599854,208.712692 845.609009,185.694336 865.428589,163.417374 
M495.412720,449.163666 
	C495.713562,450.796204 496.065918,452.421173 496.307312,454.062439 
	C498.913116,471.781525 501.544983,489.496918 504.081268,507.225983 
	C506.241699,522.327759 508.101562,537.475037 510.462616,552.544495 
	C511.602600,559.820679 511.821320,567.292664 514.085449,574.387451 
	C516.922119,574.470032 518.820801,572.972412 520.786621,571.843567 
	C534.755005,563.822021 549.691833,558.325134 565.320435,554.629028 
	C592.620544,548.172607 620.087463,542.696960 647.998413,539.479309 
	C664.334717,537.595947 680.686279,535.949402 697.074585,534.703430 
	C710.332642,533.695251 723.580322,532.427734 736.914734,532.546326 
	C741.572937,532.587830 742.415466,530.913086 740.413452,526.508118 
	C737.094299,519.205139 734.510803,511.683868 733.089905,503.786652 
	C730.284790,488.196350 728.262207,472.552032 730.729614,456.706543 
	C731.246582,453.386597 732.122314,449.891266 735.918518,448.869354 
	C739.377136,447.938293 742.021301,449.663208 743.984375,452.536926 
	C744.424255,453.180908 744.963318,453.904327 746.350464,453.612396 
	C747.151917,446.501343 747.138245,439.192078 747.429138,431.985077 
	C748.432251,407.131836 752.139221,382.738617 758.475525,358.752319 
	C762.542725,343.355804 764.978577,328.016113 762.608948,312.008392 
	C759.304382,289.685272 755.894348,267.378723 753.423584,244.924850 
	C750.557068,218.873810 746.992615,192.894470 742.720947,167.020279 
	C740.911865,156.062332 735.215027,151.379684 724.088745,152.463226 
	C704.078979,154.411880 684.015137,155.742783 664.049683,158.222900 
	C636.850708,161.601547 609.603760,164.598328 582.770142,170.392670 
	C553.720215,176.665649 525.365662,185.012451 499.250061,199.586319 
	C488.506348,205.581863 477.855072,211.857803 469.499908,221.229019 
	C467.819305,223.113953 467.343628,224.972839 467.690826,227.572571 
	C469.711273,242.700500 471.452667,257.865479 473.338623,273.011658 
	C475.490540,290.293823 477.688141,307.570374 479.878876,324.847687 
	C481.694061,339.163422 483.527832,353.476776 485.353882,367.791138 
	C487.242432,382.595367 489.163025,397.395569 491.010590,412.204926 
	C492.509338,424.218445 493.920654,436.242859 495.412720,449.163666 
M368.083069,540.425415 
	C376.175476,549.050781 384.274811,557.669739 392.356262,566.305359 
	C394.957916,569.085388 397.820892,571.226196 401.934814,570.608582 
	C419.805084,567.925903 437.811493,568.348022 455.760925,568.817993 
	C469.189758,569.169556 482.668671,570.248108 495.335968,575.590454 
	C496.468536,576.068054 497.720032,577.000671 499.116791,575.901123 
	C499.882141,574.706665 499.580353,573.396729 499.388824,572.080627 
	C497.813354,561.254395 496.237000,550.428162 494.686401,539.598328 
	C491.560638,517.767395 488.376740,495.944336 485.358612,474.098450 
	C483.020660,457.175842 480.907593,440.222229 478.677673,423.284637 
	C476.166473,404.210480 473.602875,385.143158 471.124481,366.064789 
	C468.924103,349.126556 466.826294,332.175049 464.651093,315.233521 
	C462.792725,300.759521 460.819153,286.299957 459.026093,271.817993 
	C457.477173,259.307922 455.269501,246.794418 454.983673,234.245285 
	C454.816376,226.899384 452.316528,222.751694 446.187897,219.935410 
	C443.467957,218.685501 440.800415,217.300720 438.016815,216.213440 
	C422.736023,210.244659 406.752838,206.984039 390.533051,205.503647 
	C362.219391,202.919479 334.076355,205.205734 306.095642,210.026016 
	C283.832428,213.861328 261.650391,218.108505 239.705231,223.452560 
	C225.019897,227.028702 210.364990,230.844727 195.936951,235.327484 
	C183.645981,239.146271 180.291595,244.708267 181.410904,256.279755 
	C181.698288,259.250641 182.067413,262.217957 182.524979,265.167389 
	C186.414474,290.238525 190.443558,315.288605 194.215363,340.377350 
	C199.047150,372.516663 204.450211,404.568085 208.565460,436.818939 
	C211.524445,460.008240 214.983093,483.136658 218.501373,506.249207 
	C219.122864,510.331879 218.567963,514.892395 221.627579,518.762451 
	C225.716965,516.930969 229.636185,515.133545 233.588745,513.412720 
	C253.419724,504.778656 273.181305,496.003357 293.853973,489.441589 
	C304.476379,486.069885 313.425049,488.448486 321.632141,495.454193 
	C337.878632,509.322449 352.575409,524.787292 368.083069,540.425415 
M139.552750,582.997620 
	C154.900177,600.538513 170.346313,617.994141 185.575699,635.636902 
	C224.199875,680.382019 262.826874,725.120300 302.824829,768.658081 
	C306.515503,772.675354 309.453491,772.904541 313.957855,770.867432 
	C364.315094,748.092834 414.308960,724.566345 463.393555,699.143738 
	C467.839386,696.841064 471.985596,694.116455 475.616058,690.572266 
	C478.571991,687.686523 478.985260,685.071472 476.841797,681.355896 
	C471.012726,671.251404 462.846985,663.083130 454.712891,655.068176 
	C429.780365,630.500549 406.479706,604.427917 382.928223,578.582581 
	C360.585236,554.063354 336.904846,530.900574 312.425537,508.540222 
	C306.713776,503.322906 300.226929,501.374756 292.655884,504.358673 
	C286.160583,506.918640 279.507965,509.085663 273.045959,511.722992 
	C236.195541,526.762939 200.349655,543.989502 164.781052,561.801025 
	C154.711243,566.843567 144.834808,572.272278 133.419617,578.288086 
	C135.893356,580.130554 137.477600,581.310547 139.552750,582.997620 
M826.793762,297.479034 
	C840.021057,263.427185 855.471252,230.453568 874.456055,199.193420 
	C876.786011,195.356934 878.825256,191.310196 881.977417,188.049484 
	C884.745422,185.186172 888.166809,184.615891 891.505981,186.666031 
	C895.040283,188.836029 894.793945,192.162766 893.057800,195.452148 
	C889.405823,202.371338 885.996582,209.443359 881.939575,216.119614 
	C866.318726,241.825638 853.487061,268.903534 843.459473,297.178284 
	C819.949585,363.469299 798.695740,430.460205 783.648682,499.273651 
	C781.001404,511.380554 777.739197,523.357422 775.610168,536.862366 
	C796.091003,522.288513 812.869507,505.849762 826.436340,484.429932 
	C820.908203,484.367004 817.521973,486.350494 813.972351,487.455933 
	C810.146240,488.647461 806.650330,488.999115 804.139099,485.335205 
	C801.504211,481.490814 803.526672,478.345184 806.310730,475.635925 
	C811.318726,470.762817 816.820984,466.341583 821.431458,461.125793 
	C840.545105,439.502869 854.037415,414.593201 863.457581,387.413910 
	C864.074036,385.635101 865.357117,383.833496 864.357727,381.446106 
	C858.613037,382.278595 853.210632,384.404022 847.641846,385.864838 
	C842.766418,387.143799 835.556824,384.916626 834.272461,381.525055 
	C832.391846,376.559082 836.082153,373.792297 839.147644,371.046173 
	C848.711731,362.478302 857.816711,353.475433 866.336548,343.855530 
	C877.850891,330.854492 883.613708,315.445068 886.458069,297.731842 
	C884.084656,299.582703 882.442322,300.952118 880.710449,302.196930 
	C876.013062,305.573242 872.006531,309.956024 866.128967,311.601562 
	C862.657776,312.573364 859.510071,312.895050 857.095703,309.719574 
	C854.617065,306.459625 855.886536,303.299408 858.013672,300.551666 
	C860.862915,296.871124 863.922852,293.341309 867.053589,289.893158 
	C879.011902,276.722412 888.933655,262.247131 895.841553,245.778442 
	C901.194092,233.018021 904.759399,219.662643 909.017700,206.540237 
	C915.172119,187.574799 921.817017,168.740402 926.078857,149.224258 
	C927.173035,144.213593 928.766296,139.003647 926.905212,133.550690 
	C922.575745,134.139816 919.434448,136.433182 916.428345,138.669174 
	C892.368103,156.565292 871.231079,177.305267 853.572571,201.697739 
	C837.706970,223.613586 828.252136,247.533539 827.305237,274.683411 
	C827.148987,279.165375 824.179077,282.289551 820.342651,282.306854 
	C815.501099,282.328705 814.084351,278.934113 813.783997,275.060242 
	C813.458374,270.861206 813.710205,266.617401 813.710205,262.004730 
	C811.170715,263.153046 810.573303,264.784332 809.744446,266.190002 
	C799.573792,283.438751 790.903870,301.397003 784.132751,320.260529 
	C768.234619,364.550629 761.687195,410.390900 761.357727,457.265320 
	C761.313232,463.596893 761.274902,469.929993 761.367004,476.260437 
	C761.410645,479.257690 760.271973,481.578949 757.640625,482.776154 
	C754.777283,484.078949 752.171936,483.217651 749.933105,480.961060 
	C748.705017,479.723267 747.763794,477.923431 744.553040,477.982422 
	C745.344177,497.806427 749.421387,516.462463 760.602966,534.117432 
	C777.471558,453.636108 798.432251,374.913696 826.793762,297.479034 
M288.149506,772.345032 
	C286.399109,770.562500 284.627869,768.799988 282.901398,766.994568 
	C238.446274,720.509460 197.712906,670.752747 155.642227,622.172119 
	C146.051346,611.097229 136.699081,599.815857 127.128273,588.723267 
	C125.636909,586.994751 124.162231,584.172729 121.024811,586.048767 
	C112.295364,591.268677 104.568108,608.141357 113.525093,619.135559 
	C136.244705,647.022644 159.648849,674.331604 182.936478,701.734741 
	C212.049301,735.992432 241.833389,769.671570 272.336517,802.705933 
	C274.996216,805.586426 277.435974,808.715454 281.165680,811.293640 
	C282.791168,802.033081 284.966095,793.556702 290.126770,786.206726 
	C295.483826,778.576904 295.381287,780.592102 289.323730,773.564392 
	C289.106628,773.312439 288.861450,773.084656 288.149506,772.345032 
M458.175842,583.376526 
	C445.511505,583.368347 432.847168,583.361023 420.182831,583.351257 
	C417.200439,583.348999 414.287872,583.618591 411.685150,585.241638 
	C413.813660,590.895569 420.017242,597.007996 423.431030,596.425842 
	C429.171753,595.446777 434.937805,594.927185 440.725433,594.370178 
	C455.611481,592.937622 470.133423,593.193726 484.416626,598.795898 
	C501.251343,605.398743 517.583862,604.353455 532.750488,593.444702 
	C540.980957,587.524780 550.273376,584.047913 560.347290,582.585876 
	C566.420532,581.704529 572.457397,580.550110 578.487488,579.397461 
	C609.311890,573.505432 640.358887,569.049133 671.555542,565.811157 
	C696.826904,563.188110 722.083740,560.107422 747.535889,559.658386 
	C751.779114,559.583496 754.022400,557.676086 754.558105,553.559692 
	C754.790405,551.774780 755.041626,549.992249 755.323608,547.919312 
	C752.067688,547.387634 749.492310,545.233643 746.153687,545.509216 
	C738.698975,546.124512 731.250000,546.933594 723.781433,547.232788 
	C699.845520,548.191650 676.065735,550.961548 652.288391,553.557190 
	C625.856445,556.442566 599.716736,561.342957 573.861389,567.554077 
	C553.059204,572.551208 532.690002,578.857483 515.835999,592.870239 
	C511.195679,596.728271 506.809387,597.024231 501.592834,594.651001 
	C494.198090,591.286865 487.130463,586.995239 478.878937,585.870056 
	C472.300629,584.973022 465.703125,584.216675 458.175842,583.376526 
M205.039932,515.083069 
	C192.473450,430.554108 180.330292,345.959259 166.651413,261.720551 
	C162.865967,261.584839 161.479187,263.479889 160.077606,265.339050 
	C157.277756,269.052948 156.871826,273.370209 157.420837,277.723877 
	C159.494614,294.168427 161.753693,310.589478 163.894699,327.025696 
	C165.736298,341.163452 167.472595,355.314911 169.326309,369.451050 
	C171.459503,385.718536 173.580597,401.988464 175.869904,418.234406 
	C178.945404,440.059662 182.212555,461.857819 185.329117,483.677399 
	C187.438507,498.445709 189.387756,513.237000 191.527802,528.000732 
	C191.798965,529.871521 192.340195,532.366150 195.313309,531.148865 
	C199.141678,529.581482 203.506546,528.499390 206.448029,525.872986 
	C208.503799,524.037354 205.440918,520.349365 205.571228,517.370361 
	C205.592422,516.885986 205.399521,516.392273 205.039932,515.083069 
M315.091583,785.639160 
	C299.794220,792.630371 294.327820,801.395630 295.360291,817.235535 
	C295.608612,821.045593 297.163635,824.102478 301.363831,823.530029 
	C308.845581,822.510315 315.481812,819.232849 321.512024,814.824524 
	C320.215576,810.930847 317.323578,811.390320 314.725708,811.359131 
	C312.067749,811.327209 310.216919,810.133606 309.394806,807.663269 
	C308.569672,805.183960 310.030365,803.387878 311.899506,802.203064 
	C314.132202,800.787842 316.561340,799.632751 319.009033,798.613892 
	C362.587036,780.475159 404.249573,758.429688 445.869720,736.313416 
	C454.980591,731.472046 463.787659,726.040955 472.267090,720.119507 
	C474.705933,718.416382 475.414368,716.368164 473.878998,713.700134 
	C472.349884,711.042908 470.256104,712.044067 468.222382,712.835144 
	C467.294006,713.196350 466.412933,713.680359 465.513885,714.115845 
	C415.770752,738.210693 366.167816,762.600403 315.091583,785.639160 
M769.632507,195.662964 
	C768.405701,189.996964 768.474915,184.066193 766.336609,178.597656 
	C764.993408,175.162567 763.148438,172.097748 758.312195,172.168549 
	C765.849976,213.694412 768.552673,255.542953 776.143555,296.844086 
	C779.596130,292.551025 783.094543,288.192688 782.404724,282.662201 
	C778.812195,253.862442 774.313843,225.190231 769.632507,195.662964 
M374.443146,857.348389 
	C376.504456,854.979797 373.949615,854.030640 372.849274,853.031433 
	C366.383636,847.160583 362.226746,839.938049 359.445648,831.739563 
	C357.846161,827.024414 355.921417,822.403259 353.877533,817.859192 
	C350.826996,811.077148 345.221405,807.036133 338.450409,804.536316 
	C336.774445,803.917480 334.669952,802.817749 332.902496,805.570251 
	C340.872101,815.029846 344.088806,826.800232 347.952057,838.283508 
	C350.163696,844.857422 353.520050,850.758667 358.635437,855.496338 
	C366.652130,862.921021 363.595856,863.188660 374.443146,857.348389 
M779.288513,557.595581 
	C786.477905,556.099731 793.876709,557.130676 801.094788,555.670349 
	C807.993225,554.274719 813.415344,549.761597 813.504761,543.913513 
	C813.587158,538.525940 812.380493,533.207886 810.857727,527.840637 
	C809.842407,528.177185 809.039917,528.201294 808.633240,528.614746 
	C803.398438,533.936218 796.834839,537.881165 792.473755,544.091675 
	C791.017700,546.165283 789.049072,546.839783 786.679199,547.447815 
	C780.857056,548.941772 776.053955,552.248047 770.673584,557.625244 
	C774.250061,557.625244 776.332703,557.625244 779.288513,557.595581 
M399.160797,773.811218 
	C384.248810,781.277222 369.336823,788.743164 354.024628,796.409485 
	C356.780945,799.818787 358.834991,798.201111 360.796967,797.220398 
	C372.548859,791.345947 384.310852,785.490723 396.019653,779.531311 
	C420.930481,766.852234 445.948517,754.374878 470.118286,740.293213 
	C477.634094,735.914490 479.322876,734.289185 481.299347,728.814026 
	C454.992065,745.451721 427.601898,759.814209 399.160797,773.811218 
z"/>
<path fill="#000000" opacity="1.000000" stroke="none" 
	d="
M547.821350,629.126343 
	C550.608215,619.825867 553.152222,618.587280 562.641296,620.471008 
	C600.241455,627.934937 637.899475,635.109436 675.477478,642.681946 
	C706.403564,648.913940 737.581238,653.492371 768.816223,657.764099 
	C775.884766,658.730774 782.951111,659.716187 790.007996,660.763916 
	C795.822449,661.627197 798.940125,666.074829 797.612671,671.885315 
	C791.343384,699.325012 782.581360,726.024963 773.016418,752.446594 
	C758.288696,793.129883 742.644226,833.464722 725.554504,873.224792 
	C719.548218,887.198730 713.780212,889.751831 696.835266,887.285950 
	C648.362244,880.232239 600.538452,869.736694 552.501648,860.369751 
	C529.047974,855.796448 505.589966,851.238831 482.185303,846.424255 
	C472.034302,844.336121 470.867584,841.512817 474.819641,831.726318 
	C494.447723,783.121704 513.622192,734.337891 531.065369,684.901672 
	C537.479553,666.723083 542.938782,648.210876 547.821350,629.126343 
M493.333740,820.694336 
	C492.326904,822.979675 491.335510,825.271973 490.310211,827.549011 
	C487.332642,834.161743 487.471680,834.220276 494.699615,835.655396 
	C527.405273,842.149109 560.093750,848.728943 592.786133,855.289062 
	C628.082397,862.371704 663.400391,869.339172 699.037659,874.529358 
	C708.136597,875.854553 710.175537,874.666016 714.278015,866.265686 
	C716.176392,862.378479 718.028625,858.461487 719.714172,854.478638 
	C733.790161,821.216553 746.231873,787.324707 758.329651,753.310364 
	C767.076111,728.718384 774.606140,703.732239 781.457642,678.543518 
	C782.485107,674.766052 782.546753,672.690491 777.386963,672.103394 
	C760.410339,670.171692 743.491943,667.684509 726.589478,665.155029 
	C696.394043,660.636108 666.530457,654.269409 636.530884,648.663269 
	C613.376892,644.336426 590.241089,639.901184 567.158569,635.211792 
	C562.633118,634.292419 560.946228,635.625977 559.742249,639.780945 
	C541.892456,701.383789 517.714294,760.670898 493.333740,820.694336 
z"/>
<path fill="#000000" opacity="1.000000" stroke="none" 
	d="
M657.801514,345.065399 
	C654.989929,340.624390 653.547180,335.758209 649.676758,331.614319 
	C648.923218,337.958740 650.294189,343.438538 651.042358,348.967896 
	C651.351990,351.255371 652.010620,353.732849 649.963196,355.548065 
	C647.375793,357.842102 643.241943,356.009460 642.700500,352.171448 
	C641.241150,341.825714 639.992371,331.450348 638.649658,321.088104 
	C638.351440,318.786835 637.851807,316.499390 637.730164,314.190552 
	C637.584473,311.423676 636.967407,308.233124 640.603210,307.034760 
	C644.224670,305.841217 646.670471,307.477783 648.358704,310.678192 
	C651.233093,316.127106 654.141541,321.558502 657.092712,326.966095 
	C657.948914,328.534882 658.446411,330.382202 660.489441,331.657440 
	C661.892456,327.451538 660.684814,323.392914 660.253662,319.496338 
	C659.885742,316.172211 659.733398,312.878906 659.659790,309.557861 
	C659.602112,306.951141 660.211365,304.971771 663.349426,304.713470 
	C666.687927,304.438660 667.854065,306.489838 668.169556,309.184509 
	C668.980225,316.106812 669.647949,323.046509 670.313538,329.984924 
	C670.899963,336.097290 671.312012,342.227753 671.988403,348.329468 
	C672.316711,351.291168 671.918457,353.749878 668.822144,354.809937 
	C665.706970,355.876465 663.316772,354.818634 661.729614,351.871857 
	C660.546021,349.674347 659.230896,347.547699 657.801514,345.065399 
z"/>
<path fill="#000000" opacity="1.000000" stroke="none" 
	d="
M631.568237,245.601593 
	C632.642517,254.263092 634.162964,262.429260 634.318726,270.737579 
	C634.362244,273.057831 634.593811,275.498108 631.478271,276.329163 
	C628.309570,277.174408 626.514709,275.775726 625.065125,273.104462 
	C621.658081,266.825806 618.093445,260.632629 613.847229,254.568283 
	C614.499817,259.835327 615.161194,265.101288 615.799438,270.370056 
	C615.978699,271.850006 616.231140,273.341217 616.199646,274.821930 
	C616.151917,277.072418 614.951477,278.671478 612.699951,279.030304 
	C610.524353,279.377075 609.517456,277.835510 608.622986,276.081940 
	C607.190979,273.274353 607.643555,270.197205 607.233093,267.269318 
	C605.852539,257.422180 604.734619,247.535172 603.715332,237.642899 
	C603.495056,235.504684 602.880432,232.681137 606.103760,231.865631 
	C609.471252,231.013657 611.726868,232.301331 613.351685,235.477493 
	C616.652649,241.930069 620.244568,248.233795 624.312927,254.331619 
	C623.746643,247.629822 623.131165,240.931641 622.639526,234.224365 
	C622.455750,231.716553 622.208984,228.915070 625.953796,228.771820 
	C629.399963,228.640030 629.925781,231.261612 630.260437,233.788834 
	C630.760681,237.567383 631.074890,241.370560 631.568237,245.601593 
z"/>
<path fill="#000000" opacity="1.000000" stroke="none" 
	d="
M630.645020,343.400055 
	C632.205444,346.378326 633.626343,349.011322 634.935425,351.698730 
	C635.946777,353.774902 637.481873,356.278656 634.568665,357.766876 
	C631.900391,359.130066 628.911255,358.872528 627.155945,355.890533 
	C625.305786,352.747314 623.747070,349.433411 622.025146,346.213287 
	C621.477234,345.188782 620.874268,344.151642 619.355591,344.122772 
	C617.644165,345.571686 618.373840,347.381989 618.854248,349.075073 
	C619.598999,351.699738 619.323914,354.355530 619.277039,357.003052 
	C619.237976,359.210510 617.915588,360.265289 615.815125,360.486206 
	C613.768738,360.701477 612.425903,360.046082 611.557007,357.961090 
	C610.425781,355.246613 610.641418,352.395721 610.286255,349.627289 
	C608.938232,339.120392 607.613159,328.599701 606.747192,318.045837 
	C606.221191,311.635590 607.869934,310.285461 614.307739,309.685120 
	C620.641663,309.094452 626.476074,310.045135 630.000061,315.944794 
	C633.761597,322.242126 634.890869,328.987396 631.178162,335.804474 
	C629.870300,338.205841 628.350342,340.414490 630.645020,343.400055 
M624.550110,328.150574 
	C624.435913,324.251251 623.863159,320.504730 620.109070,318.310089 
	C617.637329,316.865112 615.420288,317.709564 615.778748,320.552673 
	C616.381958,325.338257 616.195679,330.333069 618.140198,334.984589 
	C622.314514,334.806458 623.640015,332.140717 624.550110,328.150574 
z"/>
<path fill="#000000" opacity="1.000000" stroke="none" 
	d="
M683.240479,303.130676 
	C690.531067,301.379272 691.531250,301.975250 693.967346,308.446381 
	C698.129761,319.503143 701.802490,330.719666 705.145142,342.046722 
	C705.614258,343.636322 706.106140,345.258026 706.251648,346.894714 
	C706.442566,349.041290 706.638611,351.454559 703.741699,352.116089 
	C701.060486,352.728333 698.975037,351.654205 698.336548,348.994690 
	C697.125916,343.952606 694.248535,343.019379 689.509827,344.211060 
	C686.802002,344.891998 685.395691,345.739929 685.249023,348.632294 
	C685.108215,351.408051 683.857910,353.467133 680.586731,353.246521 
	C677.235474,353.020569 676.471802,350.676270 676.707458,347.967896 
	C677.455322,339.372650 678.242371,330.776978 679.253601,322.209717 
	C680.004333,315.848724 679.420715,309.197968 683.240479,303.130676 
M691.937683,329.337463 
	C690.936951,327.241272 691.266785,324.440002 688.659180,322.895935 
	C686.419495,325.012115 687.582275,327.695953 687.063965,329.947906 
	C685.737732,335.710083 686.772888,336.509949 692.765564,334.790405 
	C693.396790,333.119354 692.541809,331.604004 691.937683,329.337463 
z"/>
<path fill="#000000" opacity="1.000000" stroke="none" 
	d="
M541.962891,332.455414 
	C545.010254,325.054321 548.460571,322.384949 554.502197,322.468994 
	C560.475647,322.552124 564.144592,325.347229 566.571045,332.490997 
	C569.916382,342.340363 571.963379,352.441589 569.215942,362.800751 
	C567.420715,369.569580 563.015503,373.058136 556.902222,373.322968 
	C551.226807,373.568817 546.309204,370.387878 543.955200,364.200623 
	C540.079895,354.014832 539.518860,343.500671 541.962891,332.455414 
M550.385010,333.244690 
	C548.158936,342.657562 548.440002,351.926941 552.177490,360.933655 
	C553.020630,362.965332 554.449646,364.780243 556.960999,364.669495 
	C559.608948,364.552704 560.659058,362.346252 561.010681,360.260956 
	C562.587708,350.910156 561.476868,341.791046 557.308228,333.269623 
	C555.918274,330.428284 553.299194,329.102753 550.385010,333.244690 
z"/>
<path fill="#000000" opacity="1.000000" stroke="none" 
	d="
M600.358582,324.815460 
	C601.308533,332.993866 602.322571,340.714111 603.175171,348.452118 
	C603.999023,355.929657 599.665527,362.760101 592.956238,364.846466 
	C585.783997,367.076782 578.872559,363.255829 577.038635,355.318085 
	C574.535400,344.483856 574.136047,333.328186 573.037048,322.290741 
	C572.767639,319.584503 574.347107,317.321991 577.226562,316.935303 
	C580.245300,316.529907 581.081848,318.638000 581.411621,321.277100 
	C582.642761,331.127808 584.001282,340.962555 585.307068,350.803955 
	C585.372620,351.297821 585.307190,351.822662 585.445557,352.290924 
	C586.159424,354.708740 586.888611,357.587646 589.973389,357.381927 
	C593.445618,357.150330 594.625916,354.083649 594.438049,351.185028 
	C594.020752,344.748962 593.079163,338.347595 592.382690,331.928680 
	C591.935547,327.808594 591.363831,323.689880 591.192993,319.556305 
	C591.084167,316.922913 591.228760,314.091919 594.935242,313.568512 
	C598.809631,313.021362 599.302917,315.783112 599.786987,318.434265 
	C600.142395,320.380676 600.175354,322.385986 600.358582,324.815460 
z"/>
<path fill="#000000" opacity="1.000000" stroke="none" 
	d="
M689.665588,241.020493 
	C689.302795,236.277618 688.423035,232.051025 688.565979,227.695206 
	C688.668945,224.559402 689.480591,222.747864 693.019775,222.503265 
	C698.498840,222.124542 703.962097,222.109833 707.601990,226.828598 
	C712.327209,232.954391 712.809875,240.276123 710.113159,247.147049 
	C708.522583,251.199814 708.532654,254.212830 710.627930,257.728851 
	C711.808289,259.709625 712.626282,261.927856 713.434631,264.103363 
	C714.355469,266.581573 715.701477,269.584351 712.330383,270.994537 
	C709.242126,272.286469 707.674683,269.827820 706.268188,267.305023 
	C704.729675,264.545258 704.451660,260.987793 701.273865,258.757874 
	C699.806763,261.235870 700.440125,263.501282 700.774048,265.737854 
	C701.177673,268.441864 701.040283,270.980621 697.557434,271.228638 
	C694.086792,271.475800 693.067993,268.981995 692.708374,266.118103 
	C691.677124,257.906097 690.685242,249.689163 689.665588,241.020493 
M701.970032,244.284958 
	C705.063599,238.412872 703.669373,233.436508 698.166870,231.407669 
	C696.209778,235.839645 697.907837,240.167831 698.643066,244.440948 
	C698.896729,245.915665 700.397949,245.551682 701.970032,244.284958 
z"/>
<path fill="#000000" opacity="1.000000" stroke="none" 
	d="
M528.182800,289.540863 
	C526.351379,279.850220 524.669556,270.562683 522.969055,261.278595 
	C521.766968,254.715973 522.809326,253.032242 529.251953,251.230789 
	C537.819885,248.835052 542.959656,251.301285 546.425598,259.483795 
	C550.190369,268.371857 550.090332,277.750946 548.864258,286.953522 
	C547.922302,294.023529 542.448364,297.955475 535.870117,300.035645 
	C532.904175,300.973572 530.569092,300.001373 529.740295,296.747864 
	C529.169128,294.505676 528.789551,292.214661 528.182800,289.540863 
M531.777771,259.550415 
	C532.209900,269.727936 534.699829,279.498474 536.945618,289.501770 
	C540.224243,288.547058 540.764099,286.287476 541.102600,284.243347 
	C542.380554,276.525635 541.100403,269.032074 538.198792,261.875702 
	C537.265137,259.572998 535.347839,257.628113 531.777771,259.550415 
z"/>
<path fill="#000000" opacity="1.000000" stroke="none" 
	d="
M498.655029,298.949371 
	C498.482727,286.992126 499.163940,275.581787 500.571350,264.195374 
	C501.051483,260.311005 503.703491,259.410858 506.682739,258.755707 
	C509.947235,258.037842 510.996002,260.448669 511.958862,262.850861 
	C516.468994,274.102844 520.832214,285.406128 524.514404,296.966034 
	C525.343079,299.567413 525.891296,301.881989 522.950378,303.377197 
	C519.791138,304.983459 518.428101,302.745728 517.161682,300.470551 
	C516.378479,299.063507 515.962402,297.043152 513.644836,297.972382 
	C510.993622,299.035339 507.484161,298.839569 506.474518,302.475281 
	C506.257202,303.257935 506.367218,304.129333 506.308502,304.958588 
	C506.114227,307.701294 505.145996,310.117310 502.027832,310.048798 
	C498.919708,309.980530 498.663086,307.391907 498.665649,304.929901 
	C498.667542,303.099945 498.659271,301.270020 498.655029,298.949371 
M508.036682,276.920258 
	C506.737823,281.440674 507.379517,286.002289 507.123779,290.877686 
	C511.381775,290.354126 513.368530,289.145569 511.453979,285.073730 
	C510.269897,282.555542 509.408783,279.885468 508.036682,276.920258 
z"/>
<path fill="#000000" opacity="1.000000" stroke="none" 
	d="
M660.517517,245.363785 
	C659.779419,240.000000 659.128906,235.075058 658.432922,230.156555 
	C658.067505,227.574097 658.466431,225.358795 661.450500,224.834488 
	C664.592468,224.282440 665.965759,226.026215 666.362915,228.996155 
	C667.635315,238.509796 668.985474,248.013092 670.326111,257.517487 
	C670.486389,258.653870 670.586243,259.855316 671.042297,260.880615 
	C671.773499,262.524689 672.610596,264.612885 674.799255,264.271332 
	C677.158569,263.903137 677.644226,261.796967 677.648926,259.645782 
	C677.667175,251.322235 675.629028,243.207458 675.155029,234.934235 
	C675.012939,232.453598 674.784607,229.976120 674.712524,227.493805 
	C674.652344,225.418808 675.486511,223.949738 677.799377,223.752975 
	C680.086426,223.558426 681.840576,224.328323 682.227417,226.734940 
	C682.963013,231.312408 683.579590,235.911560 684.131165,240.515411 
	C684.860657,246.603806 685.573425,252.696976 686.122009,258.803497 
	C686.730347,265.576965 682.638672,271.452515 676.931580,272.294464 
	C670.204529,273.286835 664.367920,269.502289 662.888367,262.529236 
	C661.723389,257.038971 661.325073,251.386002 660.517517,245.363785 
z"/>
<path fill="#000000" opacity="1.000000" stroke="none" 
	d="
M561.541199,286.405579 
	C557.822815,275.858368 554.019531,265.746918 550.904297,255.427780 
	C549.819214,251.833694 545.538086,246.199356 551.637817,244.280304 
	C557.804382,242.340225 557.100708,249.362976 558.512817,252.946625 
	C560.868225,258.924225 561.932434,265.392700 566.050659,271.073853 
	C566.582092,264.782227 567.187317,258.495575 567.613770,252.196838 
	C567.826843,249.049606 567.569702,245.870041 567.793579,242.724182 
	C567.970581,240.236237 569.550720,238.795456 572.105896,238.846405 
	C574.381226,238.891769 575.306213,240.385834 575.287842,242.492126 
	C575.165833,256.433990 574.697571,270.348328 572.499329,284.159393 
	C572.062073,286.906372 570.628296,288.205383 568.153809,288.893921 
	C565.489319,289.635376 563.203491,289.479919 561.541199,286.405579 
z"/>
<path fill="#000000" opacity="1.000000" stroke="none" 
	d="
M716.233765,224.608551 
	C718.980225,221.856400 729.981567,220.499741 732.840881,222.247696 
	C734.377197,223.186951 735.185303,224.681305 734.989136,226.459244 
	C734.790466,228.260040 733.646851,229.561325 731.876587,229.957138 
	C730.433838,230.279755 728.910217,230.302734 727.419739,230.336243 
	C725.025574,230.390045 724.122803,231.531479 724.576965,233.859085 
	C724.862061,235.320190 725.317322,236.802032 725.274109,238.262085 
	C725.183350,241.329803 726.303284,242.910095 729.550232,242.983337 
	C732.438171,243.048492 734.973328,244.164902 735.135925,247.471985 
	C735.304749,250.905914 732.656006,251.155167 730.008423,251.455124 
	C726.487183,251.854065 727.437683,254.753479 727.385193,256.924957 
	C727.322998,259.503052 727.543152,262.065125 730.888489,262.567139 
	C731.705261,262.689697 732.548096,262.663177 733.378906,262.664154 
	C736.569397,262.667938 739.128662,263.683472 739.196655,267.321381 
	C739.274963,271.510345 736.041931,271.386475 733.173828,271.330658 
	C723.011047,271.132690 720.679077,273.712036 719.284302,260.091705 
	C718.087891,248.408173 716.126465,236.792297 716.233765,224.608551 
z"/>
<path fill="#000000" opacity="1.000000" stroke="none" 
	d="
M582.665710,262.091553 
	C581.832397,254.897461 580.436279,248.217667 580.585388,241.358200 
	C580.657043,238.061050 581.755859,235.996979 585.282288,235.485550 
	C587.734497,235.129868 590.105225,234.208405 592.557861,233.860397 
	C594.812439,233.540497 597.457947,233.057983 598.178345,236.318237 
	C598.843018,239.326248 597.421082,241.365250 594.501282,241.705566 
	C589.381104,242.302353 588.529541,245.146255 589.279419,249.627213 
	C589.863037,253.114685 589.791565,256.519775 595.044678,254.989334 
	C597.032593,254.410172 598.561279,255.878937 599.099182,257.843811 
	C599.643250,259.831329 598.796875,261.412567 597.092834,262.539917 
	C590.613586,266.826324 590.610718,266.838318 593.442993,274.404510 
	C595.315552,274.147644 597.244202,273.817963 599.186707,273.635162 
	C601.073608,273.457611 602.968262,273.430603 603.334656,276.005463 
	C603.664429,278.322540 603.421448,280.354095 600.858887,281.331085 
	C597.255554,282.704895 593.514648,283.601288 589.680969,283.645752 
	C585.962585,283.688934 585.204163,280.682739 584.759705,277.821198 
	C583.970642,272.741638 583.363770,267.633759 582.665710,262.091553 
z"/>
<path fill="#000000" opacity="1.000000" stroke="none" 
	d="
M712.381775,345.214661 
	C710.725525,332.170563 709.118042,319.542755 707.710754,306.892670 
	C707.403625,304.131927 707.237305,301.052429 711.462219,300.645294 
	C715.705688,300.236450 716.611633,303.244965 717.013245,306.202942 
	C718.281250,315.540588 719.452698,324.900757 720.282715,334.285706 
	C721.035645,342.798431 720.837830,342.952606 729.125610,343.622009 
	C732.259888,343.875122 733.757446,345.601715 733.879089,348.309753 
	C733.995422,350.900146 731.936523,352.122711 729.583557,352.219360 
	C725.769836,352.376007 721.920105,352.499268 718.130188,352.151154 
	C714.439758,351.812164 712.796814,349.168213 712.381775,345.214661 
z"/>
<path fill="#000000" opacity="1.000000" stroke="none" 
	d="
M517.863647,370.807800 
	C519.128174,371.235931 520.147583,371.512085 520.826477,372.150452 
	C522.005249,373.258972 522.797180,375.113281 524.865112,374.159943 
	C526.879822,373.231049 527.637939,371.485474 527.649109,369.277466 
	C527.702454,358.770905 525.313232,348.546570 524.126038,338.184235 
	C523.975098,336.866486 523.807861,335.549774 523.696350,334.228516 
	C523.447693,331.283630 524.755981,329.323212 527.673218,328.864044 
	C530.786133,328.374084 531.757263,330.747284 532.156799,333.104736 
	C533.318359,339.960175 534.553528,346.823425 535.221375,353.735596 
	C535.714417,358.838898 536.695923,363.913910 536.366455,369.112762 
	C535.821533,377.709625 528.906921,383.558167 520.442871,382.286591 
	C516.974915,381.765564 514.627258,379.753174 513.845337,376.359985 
	C513.180847,373.476746 514.543579,371.547180 517.863647,370.807800 
z"/>
<path fill="#000000" opacity="1.000000" stroke="none" 
	d="
M647.029053,225.669250 
	C649.858521,225.884781 652.799561,224.856155 653.996887,227.957809 
	C655.205566,231.088699 653.252747,232.761078 650.792542,234.352524 
	C648.416016,235.889862 649.198608,238.644638 649.460083,240.821732 
	C650.486694,249.367264 651.783264,257.880310 652.975525,266.406006 
	C653.090515,267.228027 653.223511,268.051575 653.268005,268.878693 
	C653.422791,271.761017 652.293274,273.891602 649.262451,274.165649 
	C646.338806,274.429962 645.146790,272.296967 644.790955,269.804230 
	C643.690552,262.095764 642.704956,254.370911 641.680542,246.651657 
	C641.353699,244.188690 640.934265,241.731094 640.760498,239.256790 
	C640.600769,236.982468 639.961975,235.400574 637.327026,235.317032 
	C634.566040,235.229462 633.682983,233.515121 633.689575,230.977249 
	C633.696655,228.249390 635.303955,227.095383 637.679077,226.746567 
	C640.631653,226.312958 643.605835,226.026611 647.029053,225.669250 
z"/>
<path fill="#000000" opacity="1.000000" stroke="none" 
	d="
M394.651642,306.387878 
	C388.070984,303.719849 382.887238,306.543182 377.809723,309.490143 
	C372.628174,312.497467 367.488281,315.265869 361.449341,316.533173 
	C354.401001,318.012238 347.798462,316.997009 341.474854,314.347015 
	C332.146942,310.438019 323.489044,311.045288 314.848938,316.234100 
	C309.586548,319.394440 304.256653,322.480072 298.458527,324.689941 
	C291.371674,327.391022 284.316193,328.060242 277.039612,325.583527 
	C273.584381,324.407501 269.933136,323.739441 266.583710,322.333710 
	C257.861633,318.673126 251.120590,321.896637 245.075577,328.006897 
	C243.673889,329.423706 242.436493,331.009216 240.985062,332.369354 
	C238.661255,334.546967 236.040588,335.137146 233.327576,333.078583 
	C230.561737,330.980042 229.701492,328.061218 231.437851,325.123749 
	C237.727692,314.483093 251.195908,301.405396 268.151886,307.397736 
	C271.753326,308.670532 275.359650,309.975677 279.047760,310.946838 
	C285.336029,312.602722 291.403809,312.471710 297.380829,309.138580 
	C305.631317,304.537598 313.758484,299.639679 323.181183,297.462311 
	C328.113159,296.322662 332.707214,296.624390 337.344116,298.354919 
	C339.368011,299.110229 341.440247,299.736725 343.460144,300.501892 
	C352.979065,304.107605 361.852692,303.518921 370.369720,297.357910 
	C377.495331,292.203400 385.649872,290.145691 394.464172,291.700989 
	C396.569275,292.072449 398.653992,292.741089 400.647491,293.527924 
	C405.915588,295.607147 411.088257,296.468842 416.607605,294.146515 
	C419.852203,292.781281 422.853363,293.608124 424.570740,297.114075 
	C426.365784,300.778656 424.542542,303.276886 421.672272,305.111816 
	C413.097198,310.593781 404.162018,310.683868 394.651642,306.387878 
z"/>
<path fill="#000000" opacity="1.000000" stroke="none" 
	d="
M393.272705,364.350098 
	C390.464600,364.454681 388.265472,365.237579 386.279694,366.484406 
	C377.198761,372.186127 367.510162,372.509369 357.442902,369.940430 
	C354.551666,369.202637 351.581696,368.758270 348.714783,367.943695 
	C343.714539,366.523010 339.141510,367.519867 334.892120,370.200500 
	C330.954071,372.684784 327.119293,375.336060 323.282379,377.976746 
	C314.069489,384.317383 304.104309,385.919434 293.367462,382.845337 
	C292.409058,382.570953 291.391205,382.441406 290.488281,382.045502 
	C277.237396,376.235107 266.613800,380.487854 257.370392,390.492340 
	C255.582062,392.427948 253.537720,394.264740 251.286835,395.599762 
	C248.588669,397.200043 245.517044,397.581207 243.062805,394.937988 
	C240.786667,392.486542 241.235367,389.630157 242.818237,387.096405 
	C246.574478,381.083771 251.890305,376.488617 257.369141,372.152100 
	C266.942413,364.574768 277.604614,362.604980 289.279602,366.509888 
	C291.794952,367.351227 294.403320,367.910034 296.945557,368.676208 
	C304.506226,370.954712 311.351379,369.486420 317.747345,365.006287 
	C321.150757,362.622253 324.657837,360.363342 328.252625,358.280121 
	C336.426514,353.543335 345.041504,352.168488 354.077698,355.566101 
	C363.920746,359.267090 373.320099,359.568420 382.655548,353.601959 
	C389.209961,349.412811 396.628845,349.554718 403.820251,352.145905 
	C410.940277,354.711395 417.846252,357.157806 425.532471,353.906097 
	C428.250305,352.756226 431.207947,353.875732 432.525482,357.069427 
	C433.924500,360.460541 432.394135,363.116852 429.642273,364.725037 
	C422.784302,368.732941 415.476379,370.063904 407.648468,367.660675 
	C403.079010,366.257782 398.719025,363.854767 393.272705,364.350098 
z"/>
<path fill="#000000" opacity="1.000000" stroke="none" 
	d="
M354.859436,412.966095 
	C365.183197,414.173828 374.495148,418.298126 384.564728,418.695862 
	C388.454529,418.849518 392.165924,417.982788 395.928436,417.422668 
	C399.150116,416.943085 401.766907,417.642212 402.781708,420.821167 
	C403.841553,424.141174 401.510101,426.200623 398.929779,427.557343 
	C389.867004,432.322327 380.307953,433.239410 370.401611,430.771332 
	C368.791077,430.370117 367.153778,430.024750 365.598938,429.460358 
	C356.360291,426.106903 347.864319,427.312561 339.455566,432.515198 
	C328.933258,439.025543 317.606171,440.180389 306.086884,435.099945 
	C295.935852,430.622955 286.647980,432.354553 277.808685,438.390625 
	C273.550018,441.298706 269.364105,444.313263 265.109100,447.226807 
	C263.196930,448.536133 261.327972,450.048645 258.909576,450.274628 
	C256.577820,450.492584 254.139389,450.689575 252.621216,448.317139 
	C251.096161,445.933990 251.124313,443.202911 253.008224,441.355286 
	C264.882599,429.709595 277.324829,418.919556 295.304718,418.687866 
	C301.055298,418.613770 306.406342,420.745880 311.657257,422.747375 
	C319.095856,425.582764 325.887695,424.693268 332.602844,420.659332 
	C339.327484,416.619751 346.283600,413.042999 354.859436,412.966095 
z"/>
<path fill="#000000" opacity="1.000000" stroke="none" 
	d="
M615.758972,781.679626 
	C622.630798,778.593872 622.694275,778.559387 619.244080,772.206909 
	C615.904846,766.058838 611.967102,760.283875 607.776367,754.687256 
	C605.104065,751.118408 601.772095,749.880493 597.281982,751.233704 
	C592.866821,752.564270 589.148804,754.970886 585.485413,757.572876 
	C571.648804,767.401001 558.303162,777.937805 543.631653,786.560059 
	C542.340637,787.318665 541.080139,788.165894 539.709717,788.745239 
	C536.918091,789.925354 534.346924,789.405518 532.676453,786.827698 
	C530.985107,784.217529 531.112122,781.457520 533.211121,779.006836 
	C533.742249,778.386780 534.448425,777.875732 535.157288,777.454712 
	C551.506836,767.745544 566.019714,755.381714 581.961975,745.089355 
	C586.878235,741.915344 592.102478,739.120361 597.931091,738.304626 
	C602.219849,737.704346 604.060303,735.417969 605.570679,731.698853 
	C611.613464,716.819885 625.990112,707.076050 641.952332,707.762512 
	C661.115601,708.586670 681.743713,724.436523 675.450439,750.805786 
	C674.235718,755.895752 674.334656,758.759827 680.225647,760.157166 
	C683.971436,761.045715 686.300171,764.697815 688.392090,767.923645 
	C696.445679,780.342285 703.365784,793.496704 712.930176,804.937073 
	C715.502502,808.014038 715.087952,811.785950 711.934937,814.289185 
	C708.932739,816.672913 706.067566,815.117432 703.569946,812.655090 
	C695.039490,804.244629 689.269592,793.903992 683.198547,783.769592 
	C681.915466,781.627747 680.744385,779.415955 679.399719,777.314514 
	C674.710144,769.985291 670.639587,768.724121 662.544678,772.165100 
	C654.416260,775.620178 646.686768,779.880188 638.891907,784.012573 
	C623.178955,792.342346 606.379272,798.567261 591.542542,808.620605 
	C588.948669,810.378174 585.739990,811.381226 582.617065,809.326294 
	C580.677795,808.050171 580.585571,806.032715 580.729248,803.972046 
	C580.902222,801.491089 582.682190,800.318420 584.513306,799.065613 
	C594.291321,792.375916 604.416443,786.319885 615.758972,781.679626 
M645.582703,765.993713 
	C647.978210,764.825378 650.362244,763.632935 652.771179,762.492981 
	C662.948181,757.676697 667.878174,744.044189 663.158752,733.731445 
	C659.151794,724.975586 647.765381,718.427551 638.241211,719.401917 
	C627.336609,720.517517 617.725403,728.833618 615.554504,739.099548 
	C615.172302,740.907104 615.026489,742.817383 616.259460,744.390686 
	C622.931580,752.904480 628.538757,762.070679 632.960144,772.417786 
	C637.251160,770.245544 641.091614,768.301331 645.582703,765.993713 
z"/>
<path fill="#000000" opacity="1.000000" stroke="none" 
	d="
M651.206665,789.822266 
	C657.619202,787.955322 660.914062,789.612427 662.336792,795.528259 
	C663.191223,799.081482 664.590881,801.294434 668.716431,800.696655 
	C671.629822,800.274536 673.645569,801.746338 675.453308,804.056519 
	C678.831787,808.373779 682.365601,812.581238 686.661133,816.080994 
	C689.650024,818.516174 690.440430,821.526123 688.048462,824.818359 
	C685.640625,828.132385 682.655334,827.540161 679.718567,825.611877 
	C677.921143,824.431580 675.976807,823.282166 674.605225,821.683960 
	C671.125610,817.629517 667.631409,814.574768 661.581665,816.209045 
	C658.168579,817.131165 656.203003,814.374084 654.886597,811.438416 
	C653.818481,809.056580 653.695374,806.262512 651.746887,803.975952 
	C647.472473,805.697571 643.992554,808.527222 640.317017,810.993103 
	C638.359192,812.306580 636.374329,813.575256 634.097778,814.057617 
	C631.194885,814.672791 628.852051,813.469971 627.371338,810.907898 
	C625.920044,808.396912 627.068481,806.429260 629.026123,804.807495 
	C635.828003,799.172424 643.028259,794.115967 651.206665,789.822266 
z"/>
<path fill="#000000" opacity="1.000000" stroke="none" 
	d="
M575.178345,792.262085 
	C571.423523,794.458862 568.083008,796.669983 564.529114,798.456360 
	C561.455078,800.001526 558.118652,800.115173 556.322449,796.566528 
	C554.665771,793.293457 555.858887,790.429688 559.013794,788.487244 
	C565.385864,784.563965 571.688782,780.520935 578.164856,776.777405 
	C581.224792,775.008606 584.679382,774.536377 587.020386,778.014709 
	C589.514282,781.720276 587.016357,784.384277 584.320862,786.459778 
	C581.567505,788.579956 578.455200,790.233887 575.178345,792.262085 
z"/>
<path fill="#000000" opacity="1.000000" stroke="none" 
	d="
M625.498413,680.740723 
	C626.861023,685.902588 628.134583,690.692688 629.104980,695.543518 
	C629.871277,699.373901 628.147034,702.130310 624.388855,703.096497 
	C620.751953,704.031433 618.684631,701.768188 617.813171,698.599792 
	C616.588867,694.148376 615.567749,689.627686 614.738037,685.085754 
	C614.176758,682.013184 615.389587,679.489624 618.389771,678.200867 
	C621.248352,676.972961 623.546936,677.889404 625.498413,680.740723 
z"/>
<path fill="#000000" opacity="1.000000" stroke="none" 
	d="
M603.243835,711.916016 
	C600.289795,717.912842 597.578735,718.732544 592.662598,715.287354 
	C589.406616,713.005554 586.253723,710.567993 583.146423,708.085327 
	C580.121704,705.668579 579.362122,702.485291 581.553406,699.307007 
	C583.964111,695.810303 587.045959,696.379028 590.131714,698.773682 
	C593.404236,701.313416 596.825256,703.661621 600.107483,706.189514 
	C601.827759,707.514526 603.400635,709.038879 603.243835,711.916016 
z"/>
<path fill="#000000" opacity="1.000000" stroke="none" 
	d="
M708.780273,729.844116 
	C704.441589,731.635681 700.497314,733.392822 696.423462,734.765747 
	C693.069763,735.895996 689.601746,735.956299 688.088684,731.894165 
	C686.553467,727.772522 688.669373,725.321777 692.499512,723.918823 
	C696.230042,722.552307 699.913513,721.057678 703.621826,719.630249 
	C706.571594,718.494812 709.728943,717.782959 711.549316,721.090393 
	C713.377136,724.411438 712.476868,727.513977 708.780273,729.844116 
z"/>
<path fill="#000000" opacity="1.000000" stroke="none" 
	d="
M652.045654,701.290283 
	C647.777161,700.764099 646.265991,698.478088 646.522400,694.700684 
	C646.840027,690.021301 647.836182,685.510986 649.580017,681.165527 
	C650.577087,678.680908 652.553345,677.552246 655.109497,677.834778 
	C657.843445,678.136963 660.144653,679.757202 660.119629,682.536682 
	C660.067261,688.350830 658.840088,694.039246 656.265442,699.316101 
	C655.577637,700.725830 654.071594,701.290710 652.045654,701.290283 
z"/>
<path fill="#000000" opacity="1.000000" stroke="none" 
	d="
M673.643188,700.960205 
	C676.664490,698.272461 679.338928,695.761047 682.190735,693.470276 
	C685.140320,691.101013 688.392822,690.605042 691.044556,693.756226 
	C693.562866,696.748901 692.439270,699.712219 689.856262,702.132874 
	C687.308105,704.521057 684.561096,706.695984 681.987122,709.057983 
	C679.503601,711.337036 676.881409,712.395508 674.021790,709.940796 
	C670.992859,707.340759 670.720093,704.349609 673.643188,700.960205 
z"/>
</svg>