<svg version="1.1" id="Layer_1" xmlns="http://www.w3.org/2000/svg" xmlns:xlink="http://www.w3.org/1999/xlink" x="0px" y="0px"
	 width="100%" viewBox="0 0 1024 1024" enable-background="new 0 0 1024 1024" xml:space="preserve">
<path fill="#000000" opacity="1.000000" stroke="none" 
	d="
M285.631775,743.920044 
	C286.501099,736.524780 289.541840,730.294128 293.313049,724.671875 
	C298.741455,716.579041 297.862152,708.861145 294.150421,700.623108 
	C289.851440,691.081848 285.232391,681.663879 283.292664,671.200745 
	C281.377625,660.870850 281.645020,650.737122 284.354523,640.585754 
	C287.964203,627.061951 292.503876,613.844666 297.196625,600.676575 
	C301.656708,588.161499 301.577271,575.663391 297.965668,562.941101 
	C294.737274,551.568787 291.497955,540.166565 287.102173,529.232300 
	C278.402985,507.593628 281.288544,486.903809 290.472137,466.349121 
	C295.633606,454.796783 300.407776,443.070740 305.621704,431.542938 
	C308.025879,426.227386 307.888977,421.485565 305.018921,416.360992 
	C296.263062,400.727051 289.521454,384.334106 287.081665,366.394867 
	C284.956940,350.771820 284.705902,335.132324 288.025299,319.712250 
	C290.491760,308.254333 297.494049,298.869812 304.226349,289.541595 
	C311.245056,279.816589 318.400513,270.186584 325.670258,260.647736 
	C330.374481,254.475220 331.854889,248.517090 328.501129,240.798218 
	C321.838318,225.463501 326.122650,212.437485 339.827820,202.886185 
	C355.177032,192.189148 372.851257,187.289734 390.644226,182.864151 
	C411.017059,177.796921 431.779053,175.241745 452.698303,173.503372 
	C466.309937,172.372223 479.954529,172.102539 493.552826,170.994064 
	C502.244843,170.285522 510.842255,171.703842 519.493835,171.896545 
	C523.778870,171.992004 527.067749,170.744293 530.503235,168.297409 
	C544.351074,158.434464 558.423950,148.891312 575.090698,144.219070 
	C587.144958,140.839874 598.626953,142.548004 609.181030,149.004730 
	C618.782715,154.878754 624.197937,163.391220 623.494324,175.148773 
	C623.139771,181.074234 624.666016,182.722595 630.558960,183.818466 
	C646.992859,186.874557 662.971191,191.365723 677.803223,199.290176 
	C680.877625,200.932739 683.888367,202.768738 686.685425,204.843262 
	C699.889038,214.636261 703.409302,227.544571 696.799438,242.714020 
	C694.727234,247.469742 695.062927,251.507645 697.647339,255.929855 
	C707.175232,272.232971 718.863953,287.033173 730.051086,302.139038 
	C741.487610,317.581482 742.408997,334.276825 738.641846,351.996155 
	C734.755493,370.276184 729.069092,388.104126 722.050049,405.328613 
	C713.456909,426.415833 714.371582,446.611359 722.864685,467.305542 
	C727.973511,479.753632 731.664917,492.760223 735.786987,505.593506 
	C743.776611,530.467651 741.993469,554.726074 733.349243,578.962891 
	C729.047485,591.024231 724.508423,602.999084 721.066162,615.377869 
	C717.463135,628.334717 717.528198,640.864075 722.158325,653.569763 
	C727.283936,667.635254 732.852112,681.654724 736.437073,696.137512 
	C741.079529,714.892212 743.178528,734.192322 740.158508,753.532471 
	C736.569519,776.516113 722.019104,792.000366 703.414124,804.044983 
	C697.432678,807.917297 693.869812,812.240295 691.769226,819.166870 
	C686.516296,836.488403 673.727295,847.497559 658.229126,855.710510 
	C633.789062,868.661865 607.461426,875.466492 580.273010,879.290405 
	C561.806213,881.887695 543.235596,883.515930 524.576172,883.710449 
	C478.767853,884.187988 433.441589,880.904114 389.831757,865.340271 
	C374.838745,859.989563 360.803589,852.832947 348.744293,842.157593 
	C340.953125,835.260437 335.101776,827.111877 331.927765,817.202332 
	C330.492645,812.721619 327.941284,809.431763 324.282043,806.471863 
	C312.901703,797.266602 300.934937,788.531250 293.298920,775.610596 
	C287.632629,766.022705 283.540619,755.907715 285.631775,743.920044 
M309.436554,471.868744 
	C308.663788,473.890198 307.957825,475.940247 307.107605,477.928558 
	C300.498413,493.384949 300.453644,508.901093 306.298462,524.611633 
	C308.964600,531.778137 311.379852,539.055786 313.520721,546.396179 
	C317.956085,561.603760 321.720734,576.931763 319.317291,593.015198 
	C317.436035,605.604492 312.897980,617.435059 309.016571,629.454712 
	C306.053192,638.631409 302.682892,647.737488 302.401245,657.516846 
	C302.011353,671.054138 306.273895,683.457947 312.568756,695.160645 
	C319.384979,707.832703 318.990448,719.504578 310.684753,731.648132 
	C300.031952,747.223328 302.189392,761.442688 315.760315,774.628662 
	C331.045471,789.480347 349.603394,798.799438 369.429840,805.574829 
	C410.826691,819.721497 453.719482,825.913879 497.257172,827.505005 
	C532.423157,828.790283 567.413147,826.281921 602.041565,819.662659 
	C632.766541,813.789490 662.383118,804.699463 690.088562,789.850708 
	C712.947754,777.599304 724.157776,759.315247 722.087341,732.816650 
	C720.864807,717.170227 720.201294,701.676086 713.454468,687.082520 
	C709.971497,679.548767 707.303589,671.622498 704.521973,663.783203 
	C696.526917,641.250854 696.241638,618.900513 705.920105,596.644348 
	C709.363464,588.726257 712.141479,580.497681 714.864929,572.291931 
	C721.449341,552.453064 723.587585,532.289673 717.456848,511.958466 
	C714.434937,501.937134 710.528687,492.181335 706.986450,482.318390 
	C702.820435,470.718811 699.262329,458.944885 696.783325,446.863342 
	C693.281738,429.798431 698.461975,413.841187 703.534302,398.016815 
	C708.812256,381.550812 714.840088,365.344849 719.275024,348.585907 
	C722.775452,335.358551 721.399963,323.662262 713.531921,312.101105 
	C704.051270,298.170380 693.788879,284.865784 683.604553,271.483551 
	C677.158691,263.013763 677.050110,263.025085 667.237854,267.292236 
	C648.479858,275.449707 628.718079,279.741333 608.655518,283.180634 
	C579.400391,288.195740 550.011780,291.489410 520.307617,291.230927 
	C484.988403,290.923615 449.848145,287.959686 414.880524,283.109833 
	C394.190094,280.240143 374.010773,275.376892 355.389404,265.416504 
	C351.060577,263.101044 347.773438,264.552887 344.978363,268.182861 
	C337.968323,277.286896 331.031921,286.451721 323.838135,295.409180 
	C310.448792,312.081055 302.704163,330.525879 304.279327,352.396240 
	C305.802002,373.537170 313.459717,392.439423 324.258881,410.309784 
	C325.217590,411.896210 326.589020,413.331421 328.538483,413.495148 
	C333.667969,413.925934 339.003937,415.159119 343.904510,414.223297 
	C349.940369,413.070679 355.092957,414.950653 360.460541,416.428314 
	C364.701508,417.595795 365.401642,421.132111 362.333038,424.433929 
	C357.936584,429.164490 352.573975,430.906128 346.157623,429.901703 
	C342.724182,429.364227 339.213776,429.272675 335.732178,429.098694 
	C330.598846,428.842255 327.341766,431.335693 325.314301,436.004364 
	C320.208130,447.762421 314.939819,459.450073 309.436554,471.868744 
M610.325195,209.152344 
	C616.621704,211.785690 622.989380,214.263321 629.193909,217.097946 
	C634.933899,219.720337 636.163452,227.580948 631.213196,230.464874 
	C627.951904,232.364883 624.090088,231.578705 620.546204,230.401245 
	C611.532104,227.406250 602.777283,223.743027 594.153503,219.788742 
	C590.715515,218.212296 587.404175,217.833817 584.095093,219.638107 
	C570.245117,227.190033 556.644348,235.179672 542.150940,241.544800 
	C534.545593,244.884857 527.301697,248.956131 519.288513,251.465393 
	C508.252472,254.921265 496.481262,254.100342 485.504395,257.781342 
	C480.625153,259.417542 475.640167,260.585785 470.335724,260.292633 
	C452.558990,259.310150 434.733185,259.303101 417.012512,257.187927 
	C409.090332,256.242279 401.768921,254.179474 395.229126,249.371582 
	C386.723145,243.118179 385.321411,233.785538 391.945068,225.930115 
	C398.933655,217.641953 408.518860,214.166489 418.642120,212.833054 
	C430.983063,211.207520 443.517090,209.839325 455.916656,210.185364 
	C470.123657,210.581833 480.744110,204.058823 491.133026,196.005035 
	C492.056122,195.289444 493.242584,194.682129 492.913788,193.293671 
	C492.540497,191.717285 491.157532,191.337204 489.769684,191.408356 
	C485.950165,191.604156 482.136627,191.915222 478.320129,192.171906 
	C450.912567,194.015228 423.612488,196.784363 396.692078,202.426819 
	C381.350708,205.642349 366.164795,209.462524 352.713379,218.057892 
	C350.617828,219.396957 348.343262,220.654602 347.493591,223.219177 
	C345.100159,230.443405 348.041046,238.542938 354.583160,242.926712 
	C363.242920,248.729477 372.721985,252.744659 382.668396,255.709946 
	C418.859619,266.499420 456.255310,268.690399 493.604218,270.442352 
	C512.364563,271.322357 531.219543,270.821381 550.051025,270.031006 
	C575.057129,268.981476 599.782959,266.284637 624.137268,260.591217 
	C640.994995,256.650330 657.869507,252.596725 672.648682,242.874664 
	C681.761658,236.879990 681.736816,223.589294 672.429199,218.054367 
	C653.576843,206.843597 632.589661,203.678009 611.200195,202.197830 
	C609.440979,202.076096 607.177307,201.971054 606.696350,204.335541 
	C606.246643,206.546478 607.381714,208.183624 610.325195,209.152344 
M394.332672,847.070984 
	C421.828186,857.787170 450.745880,861.265320 479.846375,862.471680 
	C512.110168,863.809143 544.420471,863.479980 576.604797,859.750916 
	C598.004089,857.271484 619.107361,853.685303 638.843140,844.595581 
	C648.074280,840.343994 656.965027,835.370789 664.839172,828.860596 
	C666.638733,827.372742 669.233643,825.224731 667.784546,822.593994 
	C666.176392,819.674438 663.298950,821.580872 661.088196,822.359009 
	C654.809570,824.568970 648.679688,827.224487 642.346497,829.252502 
	C606.547424,840.715759 569.580872,844.933777 532.231323,846.156921 
	C515.768555,846.696106 499.282806,846.436340 482.784515,845.536682 
	C455.808990,844.065735 429.233276,840.125916 402.862671,834.557007 
	C390.655396,831.979065 378.546448,828.959290 366.795166,824.661255 
	C365.372253,824.140808 363.512360,822.888306 362.468201,825.155518 
	C361.675934,826.875732 362.480652,828.392883 363.898895,829.554382 
	C364.542694,830.081604 365.171875,830.632324 365.852539,831.108276 
	C374.604553,837.228271 383.580414,842.954651 394.332672,847.070984 
M531.644470,226.120834 
	C548.522949,217.800766 565.010620,208.772919 580.902466,198.687836 
	C587.775452,194.326233 595.040710,190.474335 601.072693,184.938477 
	C606.499146,179.958420 605.517029,166.373566 599.413391,164.475266 
	C593.845764,162.743729 588.119080,160.723602 581.891663,162.047333 
	C574.630493,163.590836 567.899719,166.262482 561.638306,170.141479 
	C553.861816,174.959198 546.165466,179.906479 538.442749,184.810822 
	C521.587891,195.514542 505.414917,207.185226 489.567810,219.316483 
	C486.073883,221.991135 485.580200,224.603989 488.307953,228.612869 
	C492.867035,235.313217 498.889740,236.554230 506.151703,235.250931 
	C514.911438,233.678864 523.032898,230.318588 531.644470,226.120834 
z"/>
<path fill="#000000" opacity="1.000000" stroke="none" 
	d="
M685.163391,617.869629 
	C682.910034,628.709900 680.875977,639.118164 676.570007,648.996033 
	C671.798279,659.942444 663.638550,666.849548 652.849182,671.229187 
	C640.288574,676.327881 626.998840,677.286316 613.726807,678.222290 
	C593.144897,679.673828 572.499512,679.840088 551.928589,681.849670 
	C534.630615,683.539368 517.345886,680.868469 500.072021,679.822205 
	C482.962006,678.785889 465.877594,677.319336 448.765228,676.330688 
	C423.151947,674.850952 397.777557,671.657654 372.677429,666.354980 
	C362.763489,664.260559 354.560333,659.188965 347.526611,651.904541 
	C337.185425,641.194763 336.523468,628.095398 338.110748,614.548828 
	C341.025696,589.671387 341.119812,564.769531 340.243134,539.770386 
	C339.568115,520.522705 337.766449,501.155579 341.704773,482.013306 
	C343.502838,473.273926 346.835510,465.146545 352.749390,458.265442 
	C363.127441,446.190033 376.739471,444.330780 391.445984,446.068848 
	C415.534943,448.915680 439.651703,451.563324 463.690552,454.788239 
	C488.252502,458.083344 512.986572,459.316589 537.637756,461.459137 
	C564.514771,463.795074 591.520325,463.976532 618.509583,463.650543 
	C629.504639,463.517700 640.505188,463.798462 651.499329,463.631805 
	C661.456421,463.480865 670.700378,466.573639 679.279236,470.808105 
	C688.558594,475.388397 692.050171,484.858398 693.126099,494.434052 
	C695.530090,515.830627 694.124817,537.336548 693.737427,558.809998 
	C693.377808,578.742004 688.151794,597.912903 685.163391,617.869629 
M666.724243,484.687561 
	C664.181641,483.286133 661.355957,482.647644 658.554626,482.586639 
	C641.405884,482.213135 624.237732,480.227417 607.118652,481.624939 
	C588.412659,483.152008 569.764587,481.949341 551.195801,480.872528 
	C523.639343,479.274475 496.102997,476.909607 468.669800,473.529419 
	C439.785522,469.970398 410.839264,466.915070 381.923553,463.609406 
	C376.980713,463.044342 372.888611,464.527344 369.068146,467.741089 
	C361.066681,474.471802 359.363892,483.745483 358.365845,493.275360 
	C356.466949,511.407257 358.099213,529.568542 358.648163,547.684082 
	C359.314972,569.689331 359.566345,591.577087 356.640839,613.478394 
	C355.869690,619.251404 354.363556,625.183838 356.118011,631.289429 
	C359.794373,644.083313 370.079712,648.183777 381.305817,650.361206 
	C402.532806,654.478516 424.008759,656.803101 445.635620,657.745422 
	C456.935822,658.237732 468.217743,659.174316 479.502899,659.980408 
	C496.417664,661.188599 513.325317,662.497070 530.241028,663.691284 
	C548.100098,664.952271 565.779602,661.681030 583.607910,661.495911 
	C599.383606,661.332092 615.371033,661.782104 630.866150,658.522278 
	C651.011292,654.284302 659.178345,651.759949 664.684509,628.309143 
	C666.200806,621.850891 667.130615,615.255310 668.341125,608.724854 
	C670.763672,595.656250 674.329041,582.679016 675.372192,569.501709 
	C677.224426,546.104370 676.114868,522.582397 675.519653,499.121063 
	C675.372009,493.303436 674.365967,487.268982 666.724243,484.687561 
z"/>
<path fill="#000000" opacity="1.000000" stroke="none" 
	d="
M578.524658,312.439514 
	C599.471069,309.057037 619.663940,304.171295 640.004150,300.011627 
	C647.701477,298.437469 652.131592,300.886963 652.388062,306.606812 
	C652.551086,310.242310 651.286926,312.732086 647.544067,314.335693 
	C633.822998,320.214294 619.309387,323.087189 604.826416,326.051697 
	C572.902832,332.585999 540.573730,335.272644 508.066071,334.081512 
	C468.242676,332.622314 428.889771,327.639740 390.941010,314.548187 
	C385.211151,312.571472 379.989014,309.743042 375.068512,306.272705 
	C373.155365,304.923370 370.785278,303.639038 371.938232,300.795532 
	C372.955536,298.286530 375.504639,297.916168 377.878815,298.033600 
	C384.368652,298.354584 390.665497,299.839081 397.003571,301.214874 
	C426.884644,307.701141 456.998840,312.589569 487.543854,314.823395 
	C508.153381,316.330627 528.739563,317.146484 549.353638,315.582581 
	C558.955750,314.854095 568.515442,313.566437 578.524658,312.439514 
z"/>
<path fill="#000000" opacity="1.000000" stroke="none" 
	d="
M501.942566,763.981201 
	C513.544373,769.698120 525.795349,771.095398 538.005920,772.658325 
	C544.102234,773.438660 550.200806,774.201050 556.297180,774.980286 
	C560.463257,775.512695 563.206055,777.955078 565.174011,781.513916 
	C567.865601,786.381531 565.320068,791.059326 559.697876,791.355164 
	C550.180847,791.856079 540.760193,790.241699 531.286987,789.945129 
	C499.795624,788.958923 476.291077,770.881470 452.490082,753.426331 
	C445.775665,748.502014 439.243530,743.325928 432.690704,738.185120 
	C415.648773,724.815613 395.625092,719.123291 374.792175,715.257324 
	C361.870880,712.859558 349.151031,709.535278 336.895142,704.674133 
	C335.206726,704.004517 333.597260,703.072327 332.066650,702.083130 
	C329.802704,700.619995 329.595520,698.295654 329.800629,695.868286 
	C330.015381,693.326782 332.032623,692.844788 333.933441,692.165039 
	C340.059998,689.973999 346.112366,691.668152 352.103851,692.682556 
	C368.976746,695.539246 385.882843,698.313416 402.357788,703.073242 
	C420.436005,708.296265 435.905182,718.293701 450.672180,729.630005 
	C465.069489,740.682678 479.374573,751.898804 495.397919,760.615173 
	C497.441711,761.726929 499.530853,762.755371 501.942566,763.981201 
z"/>
<path fill="#000000" opacity="1.000000" stroke="none" 
	d="
M364.633423,354.335876 
	C382.416107,362.839478 401.068268,367.202179 420.008606,369.900085 
	C450.035889,374.177185 476.140747,386.877960 500.042572,404.887329 
	C502.828186,406.986176 506.147888,408.403564 508.411194,411.155212 
	C509.836914,412.888550 512.173828,414.548340 511.000519,417.173981 
	C509.726288,420.025452 507.384644,421.925720 504.098297,422.291992 
	C500.655853,422.675629 497.491272,421.802643 494.547028,420.063782 
	C488.381775,416.422455 481.964020,413.137054 476.122009,409.033508 
	C459.483337,397.346161 440.587830,392.015045 420.970795,388.341827 
	C402.344604,384.854156 383.643066,381.422913 365.569366,375.750244 
	C352.817505,371.747894 341.229584,365.015472 332.465485,354.381287 
	C330.967438,352.563507 329.764587,350.594147 329.305969,348.231506 
	C328.081940,341.925446 332.894653,337.377686 339.099213,339.133148 
	C341.662048,339.858246 344.078979,341.070984 346.114349,342.856018 
	C351.557037,347.629181 357.868286,350.992828 364.633423,354.335876 
z"/>
<path fill="#000000" opacity="1.000000" stroke="none" 
	d="
M675.211182,722.298401 
	C653.540955,733.464294 631.794006,743.608093 608.425537,749.483032 
	C594.862488,752.892822 580.944092,751.433960 567.181091,749.963013 
	C559.913513,749.186279 552.652710,748.268982 545.437744,747.110413 
	C541.894470,746.541443 537.931641,746.007874 536.975769,741.412170 
	C535.838257,735.943298 538.956055,731.910156 544.769104,731.746277 
	C549.924377,731.600891 555.148865,731.454407 560.245544,732.089050 
	C592.714355,736.131958 623.107727,729.921204 651.856567,714.504150 
	C662.261414,708.924377 672.572632,703.097046 683.634338,698.808472 
	C686.759399,697.596863 689.914795,696.450378 693.242371,696.238770 
	C695.544739,696.092346 698.098572,696.394287 699.310852,698.829163 
	C700.450378,701.118225 698.410339,702.428040 697.247864,703.983337 
	C691.442017,711.750854 683.768494,717.271423 675.211182,722.298401 
z"/>
<path fill="#000000" opacity="1.000000" stroke="none" 
	d="
M630.922424,390.907318 
	C646.735718,380.376099 662.128174,369.877869 676.627563,358.133514 
	C677.401733,357.506470 678.227661,356.935333 679.069214,356.400635 
	C683.160156,353.801331 688.357056,354.174438 690.920898,357.229187 
	C693.303711,360.068268 692.798096,365.046844 689.078247,368.400452 
	C683.277466,373.630066 677.146790,378.498260 671.087708,383.435974 
	C659.045105,393.249786 645.874146,401.356903 632.118408,408.478943 
	C621.894165,413.772522 613.739624,422.100830 603.329956,427.194519 
	C595.873291,430.843231 588.627136,434.852112 580.826050,437.816101 
	C574.174072,440.343475 567.696899,438.950439 561.188354,437.778931 
	C557.716980,437.154114 556.143738,434.147705 554.876526,431.211975 
	C554.226257,429.705444 554.561584,428.285522 556.473694,427.682800 
	C558.687134,426.985107 560.812073,425.797577 563.068176,425.478088 
	C576.780823,423.536255 588.589417,417.128601 599.895996,409.725281 
	C609.928406,403.156189 620.375183,397.303986 630.922424,390.907318 
z"/>
<path fill="#000000" opacity="1.000000" stroke="none" 
	d="
M551.172974,181.162628 
	C557.337708,175.820084 564.495178,173.094818 571.731506,170.843918 
	C576.364319,169.402878 580.940491,171.771835 585.051025,173.728180 
	C588.293640,175.271439 589.246216,178.946243 586.854431,181.752823 
	C579.151855,190.791122 570.599365,198.602020 557.341553,197.198410 
	C556.846985,197.146057 556.339722,197.198044 555.848999,197.127579 
	C551.162109,196.454880 547.705505,193.990616 546.353943,189.453827 
	C545.185364,185.531036 548.392151,183.543777 551.172974,181.162628 
z"/>
<path fill="#000000" opacity="1.000000" stroke="none" 
	d="
M528.565247,221.625320 
	C524.300537,223.990128 520.317627,225.998215 515.804321,226.813705 
	C510.601501,227.753815 506.661682,226.290298 504.699219,221.632736 
	C502.945221,217.469971 504.976868,214.074310 508.203674,211.295578 
	C512.369873,207.707779 516.805908,204.494507 521.518066,201.676254 
	C527.790771,197.924606 536.118408,199.133743 540.783508,204.209915 
	C542.234558,205.788849 543.038574,207.701904 541.589233,209.053635 
	C537.259888,213.091263 534.593079,218.839188 528.565247,221.625320 
z"/>
<path fill="#000000" opacity="1.000000" stroke="none" 
	d="
M649.803223,504.921265 
	C651.580444,509.122345 649.610596,512.687134 648.522888,516.196472 
	C645.176025,526.994934 641.455994,537.678040 637.856750,548.397766 
	C635.932312,554.129089 637.129333,556.065491 643.027588,556.634338 
	C653.880920,557.681030 653.821594,557.651855 648.941589,567.585266 
	C638.384705,589.074402 625.908142,609.606812 616.859192,631.843628 
	C615.285767,635.710083 612.583374,635.209351 609.461731,634.437073 
	C606.187805,633.627197 605.901611,631.624390 606.457275,628.764160 
	C609.473206,613.240173 614.898376,598.354309 618.473083,582.975708 
	C620.447144,574.483215 620.268188,573.971680 611.552185,573.278015 
	C604.600952,572.724792 603.451172,570.969177 606.878113,564.934998 
	C617.639587,545.986206 628.551392,527.122253 639.510864,508.287018 
	C641.720581,504.489288 644.876099,502.303406 649.803223,504.921265 
z"/>
<path fill="#000000" opacity="1.000000" stroke="none" 
	d="
M585.313110,560.502197 
	C574.321472,567.439453 562.453064,565.130493 550.911682,564.994019 
	C547.923218,564.958679 547.645264,562.243225 547.648315,559.737854 
	C547.658691,551.221802 549.297791,542.859558 549.971436,534.405701 
	C550.790466,524.128113 551.976990,513.877258 552.643616,503.591431 
	C552.902222,499.602631 554.273499,497.761139 558.347900,497.990723 
	C564.497681,498.337280 570.690002,498.213654 576.803223,498.863892 
	C589.516479,500.216187 596.609558,506.355591 598.310913,519.330139 
	C600.317261,534.630249 598.533630,549.338745 585.313110,560.502197 
M570.467773,549.571106 
	C573.991333,549.296997 575.692444,546.754822 576.882507,543.971497 
	C579.805969,537.133972 580.655029,529.860046 580.626587,522.501160 
	C580.614563,519.384705 578.969910,516.775879 576.846802,514.557678 
	C575.296570,512.938049 573.280518,512.850647 571.261414,513.349548 
	C569.143188,513.872986 568.394104,515.545837 568.396729,517.519714 
	C568.408447,526.512817 566.801575,535.435974 567.274292,544.449524 
	C567.382324,546.507507 567.436279,548.505127 570.467773,549.571106 
z"/>
<path fill="#000000" opacity="1.000000" stroke="none" 
	d="
M480.844421,572.750671 
	C501.643707,576.124817 508.309601,592.906555 495.608917,609.758972 
	C492.342865,614.092590 491.866516,617.263794 495.003204,621.669739 
	C497.586731,625.298828 499.328552,629.527161 501.442474,633.490417 
	C502.915985,636.252991 502.321167,638.246521 499.308746,639.423401 
	C497.917938,639.966736 496.617493,640.756653 495.208313,641.235168 
	C487.871674,643.726379 486.103088,642.742432 483.381927,635.353149 
	C481.403076,629.979675 480.445679,624.114502 476.600586,619.535706 
	C473.258789,620.449280 473.434509,622.984497 473.257812,625.225952 
	C472.930939,629.371887 472.627289,633.524719 472.508270,637.680176 
	C472.440186,640.057312 471.294006,641.057678 469.114655,640.952759 
	C466.126953,640.808899 463.110687,640.715393 460.173126,640.212280 
	C456.553314,639.592285 456.860565,636.331543 456.838959,633.842590 
	C456.756653,624.354492 456.547302,614.838440 457.151489,605.381714 
	C457.736359,596.227844 457.355499,587.071289 457.936981,577.935303 
	C458.404053,570.596497 458.799194,570.404114 466.009460,571.359314 
	C470.783295,571.991699 475.601929,572.285645 480.844421,572.750671 
M474.477936,599.611023 
	C477.293365,603.284851 479.704285,603.326172 481.951141,599.627502 
	C483.268280,597.459167 483.752777,595.029846 483.754181,592.476013 
	C483.755615,589.863464 482.960541,587.825012 480.146393,587.330200 
	C477.004059,586.777710 475.430786,588.756836 474.907990,591.411255 
	C474.432800,593.823853 474.533051,596.349792 474.477936,599.611023 
z"/>
<path fill="#000000" opacity="1.000000" stroke="none" 
	d="
M427.829895,546.029724 
	C427.435608,551.172241 426.862183,555.494080 420.532623,556.147400 
	C416.224609,556.592041 413.551544,555.688843 412.153900,551.338501 
	C410.580566,546.441284 408.657898,541.652954 406.785431,536.857056 
	C406.190308,535.332825 405.459503,533.445862 403.507751,533.520569 
	C401.033112,533.615417 400.955383,536.052917 400.806122,537.685669 
	C400.428772,541.812927 400.309418,545.982239 400.398254,550.128052 
	C400.477386,553.822693 398.731689,555.081787 395.284332,555.243896 
	C386.490997,555.657471 384.665802,554.101257 384.670807,545.305664 
	C384.680664,528.003357 384.784058,510.700989 384.845093,493.398651 
	C384.853912,490.898102 384.842102,488.397430 386.372528,485.675537 
	C396.392731,486.105255 406.658936,486.074402 416.712860,488.585785 
	C421.781403,489.851898 425.625610,493.108246 427.040710,497.880096 
	C429.850952,507.356567 429.489685,516.792542 422.643616,524.713257 
	C419.943909,527.836792 420.011383,530.321411 421.918701,533.626526 
	C424.147247,537.488220 426.940857,541.115112 427.829895,546.029724 
M411.533325,507.238861 
	C411.699402,505.726379 411.572449,504.279633 410.676849,502.973053 
	C409.367950,501.063416 407.432831,500.876221 405.395050,501.078308 
	C403.760956,501.240356 402.494934,502.043793 402.386658,503.801788 
	C402.204376,506.760284 402.098480,509.730927 402.145538,512.693481 
	C402.174683,514.525757 403.267242,515.759277 405.094543,516.194946 
	C406.824066,516.607361 407.853729,515.494995 408.868439,514.374023 
	C410.507996,512.562927 410.733765,510.198700 411.533325,507.238861 
z"/>
<path fill="#000000" opacity="1.000000" stroke="none" 
	d="
M481.224243,546.062927 
	C472.272095,563.409180 453.264801,566.580811 441.987915,552.870972 
	C437.780670,547.756042 436.790344,541.407227 436.061554,535.135315 
	C435.093842,526.807312 435.633911,518.442383 437.969940,510.406036 
	C444.047516,489.497894 463.645538,485.437897 478.009552,494.929901 
	C482.471252,497.878265 485.586121,502.037445 485.834839,507.125824 
	C486.472839,520.177490 488.026947,533.463257 481.224243,546.062927 
M454.659485,514.300415 
	C454.317627,516.262207 453.864655,518.212280 453.655243,520.188110 
	C453.076874,525.644104 452.602142,531.114014 453.310089,536.597046 
	C453.828125,540.609192 455.912903,543.830078 459.918488,544.355408 
	C464.209961,544.918274 465.808472,541.198059 466.854980,537.817566 
	C467.681396,535.148071 468.168457,532.312439 468.360565,529.520020 
	C468.781616,523.400391 469.242218,517.238708 468.038055,511.157867 
	C467.393707,507.903900 465.344116,505.838501 461.848450,505.683777 
	C458.663635,505.542847 457.088531,507.644440 455.982941,510.219849 
	C455.527588,511.280670 455.268402,512.425781 454.659485,514.300415 
z"/>
<path fill="#000000" opacity="1.000000" stroke="none" 
	d="
M515.297729,551.055786 
	C509.919189,549.699402 507.505280,551.420471 506.875946,556.722778 
	C506.295044,561.617432 503.931671,562.252441 495.895844,561.272278 
	C491.509613,560.737244 491.003387,558.222656 491.646698,554.596985 
	C494.958282,535.933289 499.903412,517.689697 505.622101,499.639801 
	C506.500366,496.867798 508.337311,495.658844 511.228790,495.746857 
	C515.715149,495.883484 520.206055,495.990784 524.693359,495.945221 
	C529.143860,495.900024 531.338440,498.102570 531.993774,502.378113 
	C534.682312,519.918335 537.546692,537.432556 540.076050,554.995300 
	C540.496887,557.917969 541.779846,561.932007 536.637268,562.898987 
	C528.749878,564.382019 525.097168,563.118042 524.009155,557.412231 
	C523.054382,552.404785 520.402710,550.667358 515.297729,551.055786 
M519.496155,529.695190 
	C517.912170,526.917664 520.249084,522.506653 515.697815,520.572144 
	C513.557617,524.456482 512.681458,528.449097 512.246033,532.554504 
	C512.046082,534.439392 512.942688,535.899292 514.804871,536.317871 
	C516.818604,536.770447 518.480896,535.927307 519.185364,533.935608 
	C519.559631,532.877380 519.461060,531.651978 519.496155,529.695190 
z"/>
<path fill="#000000" opacity="1.000000" stroke="none" 
	d="
M581.580444,596.918579 
	C584.423706,612.869568 577.198547,623.842896 561.944824,627.326904 
	C554.150146,629.107239 553.495483,629.951172 553.343140,638.129089 
	C553.168579,647.506042 554.990112,647.550110 543.776001,647.387207 
	C535.866272,647.272339 535.785889,647.237427 535.859314,639.110779 
	C535.976562,626.136169 537.312683,613.233521 538.362122,600.315796 
	C538.821045,594.667175 538.991760,589.021790 538.315308,583.384399 
	C538.061951,581.273315 537.827332,578.840393 540.663025,578.918884 
	C551.393982,579.216064 562.309631,578.575989 572.200134,584.158997 
	C577.139709,586.947266 580.233582,591.000916 581.580444,596.918579 
M555.171814,601.806885 
	C555.106506,603.622925 554.944458,605.442078 555.003052,607.254150 
	C555.061768,609.070374 555.133362,611.077454 557.438171,611.590515 
	C559.834290,612.123962 561.597290,611.098633 562.788635,608.985352 
	C564.172729,606.530396 563.866333,603.853821 563.769409,601.234192 
	C563.647156,597.927307 562.186646,595.072632 558.699829,594.988464 
	C554.870300,594.896057 555.517029,598.416321 555.171814,601.806885 
z"/>
<path fill="#000000" opacity="1.000000" stroke="none" 
	d="
M433.153748,600.950623 
	C432.793365,611.421570 432.500305,621.408142 432.046173,631.387512 
	C431.779510,637.247009 430.183563,638.354004 423.057953,638.159729 
	C416.402466,637.978210 415.624176,637.295471 415.678558,631.204895 
	C415.802002,617.379211 415.595825,603.543335 416.588928,589.739929 
	C416.840851,586.238159 415.303314,584.352905 412.041656,583.747681 
	C410.249786,583.415222 408.397552,583.423218 406.588074,583.167603 
	C401.748260,582.483887 398.184845,574.219238 401.042023,570.234131 
	C402.006439,568.888916 403.646332,568.750061 405.132812,568.818665 
	C408.619781,568.979614 412.151031,569.015259 415.571533,569.623596 
	C424.974182,571.295776 434.520050,570.503052 443.947906,571.551697 
	C446.233246,571.805847 448.913483,571.628357 449.645752,574.564758 
	C450.497772,577.981201 450.891998,581.547363 449.317078,584.828613 
	C448.507050,586.516296 446.456116,586.332031 444.797852,586.187439 
	C442.980896,586.029053 441.188446,585.607300 439.374084,585.397766 
	C435.240723,584.920410 433.022858,586.522766 433.199158,590.966064 
	C433.324585,594.126221 433.178406,597.297119 433.153748,600.950623 
z"/>
<path fill="#000000" opacity="1.000000" stroke="none" 
	d="
M511.603882,599.004150 
	C511.470062,593.906006 511.261047,589.259521 511.228302,584.611694 
	C511.205750,581.412415 512.851501,579.997498 516.169922,579.742249 
	C528.401123,578.801331 529.311462,579.544922 529.361511,591.520630 
	C529.431763,608.324951 527.172241,624.983765 526.293884,641.727905 
	C526.160889,644.263672 524.953247,645.306946 522.537964,645.276123 
	C520.875366,645.254944 519.211792,645.307312 517.549194,645.286133 
	C512.981140,645.228088 510.535797,643.366333 510.641876,638.330200 
	C510.914825,625.370483 510.263763,612.389893 511.603882,599.004150 
z"/>
</svg>