<svg version="1.1" id="Layer_1" xmlns="http://www.w3.org/2000/svg" xmlns:xlink="http://www.w3.org/1999/xlink" x="0px" y="0px"
	 width="100%" viewBox="0 0 1024 1024" enable-background="new 0 0 1024 1024" xml:space="preserve">
<path fill="#000000" opacity="1.000000" stroke="none" 
	d="
M114.002960,684.979431 
	C102.442329,671.164368 90.089409,658.404175 80.059448,643.859802 
	C65.825150,623.218750 64.416359,600.899841 73.969147,577.913818 
	C77.362778,569.747986 83.647041,564.463562 92.398994,562.473450 
	C123.021820,555.510315 153.651581,548.577576 184.284058,541.656921 
	C205.031372,536.969543 225.772736,532.253418 246.552872,527.715515 
	C250.614090,526.828613 251.921631,525.246399 251.258545,520.869385 
	C248.796494,504.617584 246.726791,488.304749 244.644028,471.997681 
	C243.652542,464.234802 243.735580,464.070007 236.310547,465.345032 
	C212.230682,469.480194 188.168106,473.715881 164.096024,477.896576 
	C162.623535,478.152283 161.082977,478.099335 159.647629,478.472687 
	C146.496994,481.893158 141.132004,475.816895 138.699005,463.343170 
	C125.818466,397.306305 112.768608,331.302399 99.925011,265.258362 
	C97.294693,251.732834 94.503227,238.218933 93.024757,224.488968 
	C92.358047,218.297424 92.771240,212.197418 94.259590,206.162689 
	C96.286079,197.946045 101.930702,193.062195 109.491539,190.256104 
	C113.289574,188.846527 115.667976,187.335007 113.892189,182.716003 
	C113.078476,180.599472 113.113396,178.147995 112.821251,175.841095 
	C111.343750,164.173965 116.875198,156.969345 129.641556,154.939728 
	C145.895920,152.355545 162.290207,150.801117 178.708740,149.687439 
	C189.070053,148.984619 194.315704,153.396652 196.237381,163.732788 
	C197.739304,171.811203 197.737167,171.798355 205.829208,170.451904 
	C220.452332,168.018799 235.134399,166.234146 250.001144,166.692276 
	C252.489517,166.768967 254.979050,167.012924 257.453339,167.304413 
	C266.978241,168.426453 272.548218,173.173828 274.469727,183.145752 
	C278.272064,202.878387 282.945099,222.443222 287.255737,242.077972 
	C288.756561,248.914276 288.752716,248.895432 295.926666,248.699646 
	C298.400757,248.632111 300.878265,248.688889 303.641296,248.688889 
	C304.127106,244.011810 302.327576,239.985626 301.479156,235.868774 
	C297.789764,217.965927 293.854614,200.113907 290.061584,182.232193 
	C288.694916,175.789276 291.955994,170.917999 295.967804,166.531647 
	C303.571899,158.217575 312.707458,151.794327 322.311707,146.035400 
	C341.220306,134.697311 361.001282,125.175522 381.883698,118.048210 
	C387.090424,116.271126 392.414734,115.372482 398.051849,116.567207 
	C403.957764,117.818909 408.705322,120.518913 411.548706,125.838036 
	C413.309937,129.132767 415.385895,129.998123 418.778839,128.525177 
	C420.748657,127.670036 422.902191,127.238380 424.972687,126.614838 
	C434.368652,123.785141 438.875732,125.685165 441.777496,135.127106 
	C446.170074,149.419983 449.859161,163.928757 453.866730,178.340363 
	C465.580627,220.464279 476.324219,262.839233 486.689178,305.311523 
	C487.353943,308.035553 488.016846,310.857605 487.988892,313.627075 
	C487.957672,316.715576 486.838226,319.772949 483.194611,320.318756 
	C479.600891,320.857086 477.607910,318.450409 476.591309,315.419556 
	C475.431244,311.960938 474.604156,308.387024 473.709015,304.843811 
	C460.187439,251.322357 446.140900,197.939133 431.555054,144.697922 
	C431.163818,143.269989 430.631317,141.880753 430.258850,140.757462 
	C429.111237,139.711624 428.091064,140.159744 427.147247,140.312393 
	C419.844849,141.493561 419.363983,142.137802 421.186829,149.264130 
	C432.966187,195.314728 444.781586,241.356064 456.583527,287.400879 
	C457.120056,289.494080 457.798981,291.566193 458.136322,293.691833 
	C458.840820,298.131012 456.270203,302.638031 452.776520,303.213501 
	C447.931519,304.011536 446.848724,300.419647 445.942505,296.976105 
	C441.796936,281.223907 437.766205,265.441467 433.662048,249.678299 
	C424.782745,215.574615 415.930115,181.463791 406.925476,147.393173 
	C405.957642,143.731125 404.327332,140.172028 402.537567,136.813919 
	C398.470673,129.183167 393.725677,127.232353 385.531921,130.280624 
	C367.868347,136.851868 350.882324,144.935242 334.377472,154.037323 
	C324.410156,159.534088 315.191345,166.019455 306.809235,173.756897 
	C303.599945,176.719345 302.811981,179.810974 303.696869,183.987457 
	C309.171906,209.827728 314.494415,235.700394 319.827789,261.570496 
	C320.160431,263.184143 320.259308,264.865814 320.283600,266.518555 
	C320.320374,269.016602 319.436310,271.081604 317.027649,272.228882 
	C314.612122,273.379395 312.403168,272.803680 310.551331,271.127502 
	C308.332550,269.119202 306.251221,266.952118 304.189514,264.778687 
	C299.433502,259.764923 296.807709,260.073792 293.689240,266.030518 
	C292.686737,267.945374 291.661011,269.863434 290.459320,271.654877 
	C288.901123,273.977783 286.802582,275.747772 283.800995,275.139893 
	C280.904083,274.553162 280.170959,272.067566 279.640076,269.515503 
	C275.342438,248.855209 271.017242,228.200638 266.701385,207.544128 
	C265.308289,200.876450 263.700195,194.243881 262.599274,187.528229 
	C261.804199,182.678452 258.954132,180.876205 254.507950,180.411118 
	C245.020416,179.418686 235.482788,179.511978 226.080750,180.591644 
	C193.840500,184.293854 161.949341,190.143539 130.290161,197.252243 
	C122.694496,198.957748 122.663376,199.204926 124.275414,207.050446 
	C137.012466,269.039642 149.731339,331.032623 162.417068,393.032318 
	C164.845825,404.902496 167.121185,416.804199 169.428513,428.698914 
	C169.994324,431.615845 171.338013,433.130890 174.582321,432.476105 
	C194.119843,428.533203 213.657471,424.588013 233.227615,420.812225 
	C236.593994,420.162750 237.361206,418.943512 237.065018,415.448059 
	C236.606750,410.040161 235.532837,404.689514 236.442932,399.078308 
	C238.352478,387.305176 244.768127,380.292236 256.293549,377.532196 
	C266.440704,375.102234 266.409363,374.971161 266.658508,364.562988 
	C266.869812,355.735565 271.717712,349.445465 281.358521,345.862152 
	C290.419617,342.494293 299.841003,340.360260 309.255676,338.285187 
	C328.408051,334.063782 347.682648,330.432922 367.239471,328.763855 
	C386.343414,327.133392 405.467499,327.215302 424.626587,328.545227 
	C442.460663,329.783203 459.938782,332.640381 477.062744,337.703766 
	C488.975891,341.226349 500.109222,346.423401 510.178040,353.741272 
	C512.498230,355.427551 514.221741,355.726074 516.779846,353.881042 
	C547.167053,331.964478 581.326233,318.143921 616.996521,307.671692 
	C625.768311,305.096375 634.643677,302.856964 643.521973,300.668457 
	C647.303772,299.736237 649.539734,298.274170 649.938965,293.829132 
	C652.710266,262.972870 661.086609,233.427048 671.573181,204.428558 
	C685.115173,166.980911 705.728699,134.498001 738.191589,110.434982 
	C742.493103,107.246483 746.987000,104.330894 751.983887,102.417992 
	C766.423523,96.890274 775.746826,103.124168 773.796387,119.104439 
	C769.887939,151.126785 760.563477,181.528351 742.733765,208.857666 
	C742.560852,209.122620 742.522278,209.475235 742.294678,210.175613 
	C744.318298,211.118332 746.426758,210.481110 748.463806,210.451752 
	C752.339539,210.395859 754.304810,212.174454 754.349365,216.167618 
	C754.438232,224.135193 751.706177,231.532486 749.796753,239.081284 
	C745.637939,255.523163 741.347046,271.932343 736.986084,288.321869 
	C735.914001,292.350983 736.103638,295.755615 739.384888,298.782501 
	C744.366516,303.377930 744.198669,309.933289 745.250244,315.894409 
	C748.945923,336.843231 753.965027,357.501190 758.655945,378.231384 
	C758.922852,379.410767 759.026489,380.924561 760.513062,381.607452 
	C762.215027,380.552094 762.429749,378.553894 763.412354,377.057343 
	C765.191101,374.348053 767.109802,371.631836 770.720459,371.733398 
	C774.346680,371.835419 774.847839,369.992615 774.581604,367.038330 
	C772.483765,343.755859 776.399109,321.286011 784.306152,299.480072 
	C793.203491,274.943115 805.200012,251.928101 819.711548,230.248016 
	C822.385620,226.252991 825.750977,222.724106 828.746399,218.939774 
	C831.992737,214.838318 835.595337,213.073837 840.228638,217.389542 
	C844.685974,209.975388 848.782654,202.758316 853.259705,195.785416 
	C870.690247,168.637283 891.767822,144.770569 917.439941,125.089767 
	C920.765259,122.540489 924.257507,120.313332 928.370544,119.224533 
	C938.343689,116.584518 946.191284,122.415733 946.299683,132.708557 
	C946.426880,144.795944 943.542358,156.445496 940.811829,168.097122 
	C932.657776,202.891846 917.741211,235.036545 901.993286,266.850433 
	C901.258667,268.334534 900.475769,269.794769 899.725464,271.246582 
	C900.699951,272.186523 901.344666,271.314453 902.035645,271.083679 
	C908.497314,268.925385 911.347473,271.393127 910.003845,278.147705 
	C906.483276,295.845673 900.686584,312.821655 893.468201,329.323730 
	C892.485657,331.569977 891.678772,333.178284 893.908997,335.451813 
	C896.487976,338.080750 895.552185,341.736603 894.727905,344.966644 
	C887.118652,374.783875 873.269226,401.484253 854.382507,425.679413 
	C852.175781,428.506378 849.282410,430.897064 848.080505,434.293304 
	C848.305054,434.678497 848.352661,434.889130 848.476929,434.955109 
	C857.939575,439.977417 858.576721,442.340179 853.045837,452.141144 
	C843.045776,469.861908 829.043335,483.978027 813.153687,496.391022 
	C812.891052,496.596161 812.622498,496.793793 812.360291,496.999542 
	C800.667419,506.176178 800.787231,506.152466 803.667969,520.689697 
	C808.055542,542.830933 812.650452,564.940430 815.990417,587.271362 
	C817.786743,599.281860 813.733582,610.517883 803.030701,613.421814 
	C800.311646,614.159546 800.358582,616.222961 800.605591,618.615662 
	C801.185242,624.228516 804.186157,628.950073 805.957520,634.116272 
	C809.895081,645.599915 803.739929,656.072998 791.648315,658.373169 
	C783.248169,659.971191 774.699707,659.731323 766.250488,660.034363 
	C736.620667,661.096680 707.059692,663.212769 677.524048,665.541992 
	C651.843994,667.567139 626.219849,670.361694 600.851135,675.152832 
	C594.719543,676.310791 589.567078,678.889221 584.679016,682.471313 
	C573.505737,690.659485 561.169800,695.452454 547.123047,695.405090 
	C537.174011,695.371521 527.984131,692.820679 519.834351,687.159363 
	C515.200806,683.940491 510.306763,682.781189 504.779633,683.094788 
	C495.139618,683.641724 485.486633,683.960571 475.839081,684.374512 
	C473.803711,684.461853 471.922485,684.826843 470.402588,686.419617 
	C458.686920,698.696960 456.719604,713.484497 459.377594,729.412598 
	C460.107117,733.784241 462.635712,737.359009 465.157959,740.919495 
	C469.746094,747.396484 468.878082,753.442139 462.703827,758.445374 
	C453.279633,766.082153 441.690430,769.149658 430.630768,773.168579 
	C402.470032,783.401672 373.785400,792.082581 345.308746,801.380066 
	C343.146973,802.085938 340.726288,802.347046 338.646942,804.570251 
	C341.635040,813.659973 344.694061,822.953491 347.744812,832.249695 
	C350.235291,839.838745 352.692780,847.438843 355.214111,855.017639 
	C356.030701,857.472290 356.766235,859.811096 354.282684,861.816284 
	C351.913940,863.728821 349.370453,863.778381 346.803040,862.495483 
	C342.930359,860.560486 339.075623,858.574707 335.322144,856.420715 
	C332.017181,854.524170 329.670532,855.403137 327.737488,858.412842 
	C325.670898,861.630432 323.935059,865.096985 321.110168,867.765564 
	C316.181427,872.421631 311.940369,871.277710 310.526825,864.640076 
	C307.448639,850.185547 304.456085,835.707703 301.799774,821.171509 
	C300.964417,816.600159 299.322632,815.632507 295.107391,817.280518 
	C286.117218,820.795349 277.032990,824.074402 267.948883,827.343262 
	C254.547318,832.165771 242.876633,829.034668 233.390259,818.757751 
	C216.889359,800.882019 200.590286,782.816162 184.413651,764.645691 
	C160.926605,738.263916 137.623428,711.718384 114.002960,684.979431 
M758.570435,542.179871 
	C760.049194,536.037781 761.248962,529.810791 763.084656,523.777405 
	C764.939575,517.681091 764.780151,512.205444 761.178650,506.693146 
	C759.112732,503.531128 757.755737,499.840546 756.461853,496.250153 
	C747.789062,472.184479 747.850586,447.375549 750.161621,422.340881 
	C750.708313,416.418396 752.738831,410.421783 751.247253,404.519836 
	C743.714661,374.715607 737.005737,344.743805 731.793335,314.439972 
	C730.702271,308.096832 728.203552,306.443268 721.888794,305.222626 
	C712.686584,303.443848 703.566406,304.695709 694.526428,305.644440 
	C666.172729,308.619995 638.462585,314.807953 611.244019,323.319183 
	C579.902710,333.119568 550.070435,345.987427 523.257996,365.266968 
	C520.783813,367.046051 518.916016,368.803040 519.385254,372.145264 
	C521.207764,385.125275 522.871094,398.128479 524.798950,411.092529 
	C527.556885,429.639130 530.574829,448.147034 533.332642,466.693604 
	C535.969116,484.423859 538.485840,502.172699 540.926453,519.931030 
	C543.796204,540.811890 546.680542,561.692810 549.272278,582.609131 
	C551.558899,601.063660 553.276001,619.589844 555.670715,638.029053 
	C556.136658,641.616699 555.299500,645.702942 558.025146,649.416870 
	C566.070068,641.541443 575.185364,635.853760 585.170837,631.567993 
	C614.406677,619.019836 645.048828,612.043884 676.437927,607.291626 
	C710.241211,602.173889 744.144775,599.776550 778.277222,599.820068 
	C783.770447,599.827087 789.285400,600.113464 794.751221,599.723083 
	C801.093018,599.270142 804.591797,594.499268 803.480591,588.288391 
	C799.327515,565.074097 795.107666,541.871765 790.873657,518.672119 
	C790.512451,516.692993 791.101135,513.565308 788.040527,513.685608 
	C784.882080,513.809692 781.130981,513.942749 779.996704,518.156982 
	C779.435120,520.243774 778.915588,522.341919 778.381714,524.436096 
	C774.359314,540.215454 770.367310,556.002686 766.288574,571.767517 
	C765.582458,574.497070 764.801453,577.421875 762.083252,578.879456 
	C759.498047,580.265747 756.652344,580.708984 754.034485,578.813721 
	C750.713196,576.409180 751.266174,572.785034 751.941162,569.638367 
	C753.857544,560.704163 756.196716,551.860657 758.570435,542.179871 
M506.605743,370.155365 
	C503.634888,364.180695 497.774017,361.685638 492.353577,359.037659 
	C465.915588,346.122406 437.271729,343.156311 408.485779,341.499573 
	C390.848053,340.484467 373.258087,342.189789 355.696259,344.176758 
	C332.004547,346.857269 308.804718,351.775085 285.821442,357.975159 
	C280.871063,359.310608 278.796265,362.104523 279.348145,366.972382 
	C280.077240,373.403259 280.771790,379.847992 281.821198,386.230865 
	C285.912079,411.112762 290.158203,435.969055 294.305908,460.841705 
	C297.745300,481.466705 301.150146,502.097565 304.515381,522.734802 
	C305.162354,526.702332 307.014374,529.679504 310.152710,532.293396 
	C321.670349,541.886108 333.005859,551.697937 344.388397,561.452393 
	C367.406219,581.177917 390.529633,600.783264 413.336060,620.750488 
	C419.092468,625.790283 424.493317,627.931335 432.532135,626.994446 
	C451.573151,624.775452 470.759949,625.578918 489.715210,628.746948 
	C508.146851,631.827393 526.394104,635.666138 541.905151,647.147339 
	C542.559509,647.631714 543.306213,648.064636 544.539368,647.395752 
	C543.922180,641.985474 543.358948,636.412964 542.640076,630.860596 
	C540.146423,611.598572 537.682068,592.332214 535.046631,573.089355 
	C532.705017,555.991699 530.129639,538.926147 527.696167,521.840881 
	C524.794006,501.465790 521.891968,481.090546 519.066589,460.704712 
	C516.536865,442.451965 514.129456,424.182281 511.633026,405.924835 
	C510.037415,394.255249 508.378174,382.594360 506.605743,370.155365 
M328.635559,565.877380 
	C322.285858,560.230347 315.773743,554.754089 309.619659,548.901367 
	C296.061310,536.006958 280.765533,532.328491 262.326721,536.771240 
	C220.150711,546.933228 177.716370,556.020264 135.424896,565.709595 
	C130.231003,566.899536 124.650223,567.086121 119.569870,570.176331 
	C121.069458,571.876526 122.248329,573.263062 123.479332,574.601624 
	C173.337906,628.815674 226.091492,680.266357 275.997559,734.433533 
	C278.369690,737.008118 280.634247,737.409729 283.905487,736.427612 
	C320.550079,725.425354 357.255554,714.625732 393.895691,703.608704 
	C413.170807,697.812988 432.402863,691.860901 451.545563,685.644287 
	C459.197296,683.159424 459.915985,678.631104 453.923370,673.452515 
	C445.351898,666.045349 436.612671,658.832520 428.023102,651.445984 
	C395.056061,623.096436 362.120178,594.710693 328.635559,565.877380 
M818.276062,460.083679 
	C815.468262,461.469421 812.812561,461.825623 810.827759,458.761566 
	C808.801758,455.633789 810.083130,452.987885 812.329834,450.693542 
	C814.776489,448.195038 817.327515,445.788605 819.948059,443.472168 
	C845.193298,421.155914 863.108704,393.842529 875.158081,362.535431 
	C876.049805,360.218658 877.160156,357.883148 877.125122,354.605133 
	C871.368408,358.358734 866.229370,361.719727 861.079041,365.063385 
	C858.685059,366.617584 856.145813,367.935364 853.285767,368.248657 
	C850.646301,368.537842 848.114685,367.857819 847.022766,365.191711 
	C845.977417,362.639313 846.736694,360.314148 849.033936,358.565765 
	C851.950684,356.345825 854.864868,354.117188 857.690308,351.783539 
	C867.224304,343.909424 876.481018,335.908844 880.974487,323.709991 
	C883.847473,315.910553 887.526733,308.403198 890.097412,300.472473 
	C890.636719,298.808655 891.730469,297.208008 891.133606,294.962952 
	C886.519409,296.940308 884.036621,301.061066 880.725220,304.178680 
	C877.212891,307.485474 874.096008,311.235352 869.576721,313.300385 
	C867.511719,314.243958 865.400513,314.844452 863.527283,313.050323 
	C861.612122,311.216003 861.339233,308.970886 862.622681,306.660950 
	C864.157715,303.898041 865.660156,301.099304 867.427856,298.485962 
	C897.839417,253.524170 918.022156,204.176041 930.332703,151.487762 
	C931.644470,145.873306 932.936157,140.073151 932.288025,134.091812 
	C929.081604,134.285233 927.270630,135.807114 925.442017,137.217926 
	C883.531555,169.552505 852.776123,209.689560 838.618713,261.426849 
	C837.873962,264.148376 837.453491,266.996216 835.865234,269.412109 
	C834.714050,271.163239 833.190674,272.423859 830.905640,272.153046 
	C828.468018,271.864105 827.728577,270.009949 827.226318,267.990814 
	C826.364441,264.525940 826.744385,261.052399 827.093750,257.561005 
	C827.558411,252.917999 827.881714,248.260864 828.318726,242.968414 
	C824.853210,246.662750 823.033081,250.429886 820.953247,254.022507 
	C809.416565,273.950195 798.536865,294.238708 792.633118,316.646759 
	C786.094543,341.464020 785.886536,366.630035 790.219238,391.870300 
	C791.341736,398.409576 789.983276,401.799988 785.770935,402.990875 
	C782.181091,404.005768 779.239807,401.601624 777.015320,396.049500 
	C776.142944,393.871979 775.846863,391.218353 772.604126,389.697021 
	C759.262573,424.605072 757.334106,459.264496 770.013550,495.081635 
	C770.627197,493.649780 771.053955,492.944092 771.239075,492.179840 
	C776.725342,469.533264 783.807251,447.353668 790.694214,425.111725 
	C796.892334,405.094299 802.173645,384.774048 808.933289,364.953644 
	C820.222900,331.850189 833.909546,299.639435 847.941772,267.627228 
	C857.025146,246.905075 866.696838,226.348343 879.598816,207.590714 
	C881.858215,204.305878 884.441101,199.669830 889.477173,202.712708 
	C894.598511,205.807007 891.446472,209.960602 889.582642,213.611038 
	C869.804993,252.345383 851.037048,291.599091 835.862061,332.346771 
	C817.396179,381.931061 801.329834,432.351257 788.670959,483.783081 
	C787.519653,488.461060 785.742493,493.103241 785.715881,499.188171 
	C806.630981,486.957489 823.407654,471.932739 835.330627,451.499542 
	C829.876282,454.245422 824.421936,456.991272 818.276062,460.083679 
M198.928101,760.584351 
	C211.786789,774.805542 224.645493,789.026733 237.504196,803.247925 
	C237.966965,803.083313 238.429718,802.918640 238.892487,802.754028 
	C236.110840,777.323425 241.045197,755.345093 265.491486,742.745544 
	C265.159454,740.204956 263.702667,739.215881 262.580688,738.049316 
	C240.070282,714.643494 217.476273,691.317810 195.023361,667.857056 
	C165.662140,637.177856 136.406479,606.397705 107.115204,575.651672 
	C105.367302,573.816956 103.729454,572.004272 100.762245,572.519958 
	C94.368462,573.630798 88.972656,576.205750 86.091988,582.408813 
	C78.819618,598.068787 77.897873,613.791870 86.311020,629.327698 
	C89.970337,636.085144 95.109055,641.853455 100.007332,647.736206 
	C131.875717,686.009705 165.098679,723.097473 198.928101,760.584351 
M700.575623,174.024643 
	C681.473450,211.184906 667.984009,250.023682 664.896240,292.047455 
	C664.606873,295.985413 666.569702,295.886505 669.007996,295.502838 
	C685.458374,292.914307 701.972107,291.142944 718.651794,291.684753 
	C722.526428,291.810638 723.825134,289.741211 724.626526,286.454010 
	C727.853271,273.217255 731.327087,260.040039 734.474121,246.784866 
	C736.014954,240.294769 738.377808,233.946518 739.022522,226.191605 
	C734.957703,228.343323 731.747559,230.022812 728.556030,231.736938 
	C724.156738,234.099716 719.782654,236.509613 715.376770,238.859955 
	C711.786621,240.775131 708.574707,240.162766 706.028564,237.030624 
	C703.396545,233.792892 705.392883,231.040268 707.405701,228.545013 
	C709.175476,226.351028 711.209290,224.362244 713.199829,222.355576 
	C719.062256,216.445786 724.930420,210.580154 729.654541,203.633286 
	C744.135498,182.338730 752.169617,158.486160 757.505981,133.601944 
	C758.868958,127.246254 760.629333,120.760597 759.005981,112.924789 
	C733.542847,127.951187 715.424866,148.892593 700.575623,174.024643 
M340.394836,754.095947 
	C312.316559,762.354553 284.242126,770.626404 256.153473,778.849548 
	C253.593201,779.599060 251.508743,780.472351 251.339981,783.656067 
	C250.806229,793.726135 251.591003,803.582336 255.343826,813.075256 
	C256.539429,816.099609 258.344116,817.105103 261.551727,816.240173 
	C272.026001,813.415833 281.868927,808.845764 292.106873,805.376465 
	C294.589355,804.535278 294.880829,803.124023 293.740204,800.762207 
	C292.206909,797.587402 290.501160,796.287598 286.750854,797.597107 
	C281.124908,799.561340 275.522583,801.863831 269.475952,802.285522 
	C266.559845,802.488892 264.194397,801.521973 263.591644,798.205261 
	C263.013794,795.025879 264.937927,793.618347 267.531250,792.791809 
	C272.442108,791.226501 277.366852,789.702698 282.303833,788.221863 
	C284.673920,787.510986 286.468384,786.493103 286.926666,783.682800 
	C287.421631,780.647705 289.457275,778.737122 292.402130,777.785706 
	C300.158264,775.279968 307.891785,772.703491 315.661194,770.239990 
	C318.984619,769.186218 322.372803,769.110718 325.044861,771.700317 
	C327.215851,773.804260 329.336243,773.566467 331.891479,772.737854 
	C338.533112,770.584290 345.248688,768.660034 351.910980,766.568665 
	C382.376617,757.004822 412.840088,747.433655 443.288086,737.813843 
	C447.784668,736.393250 449.235168,731.785889 447.253296,726.043518 
	C445.623352,721.320923 442.512360,724.330383 440.290527,724.970215 
	C407.217072,734.494690 374.186737,744.168945 340.394836,754.095947 
M734.860779,648.051392 
	C746.334473,647.585327 757.808655,647.132080 769.281616,646.648254 
	C775.766113,646.374756 782.249939,646.078857 788.731262,645.739319 
	C792.375977,645.548462 794.396362,643.309509 794.178040,639.906433 
	C793.972351,636.701782 792.111511,634.297791 788.386719,634.229309 
	C786.054993,634.186523 783.723938,634.087830 781.392090,634.066223 
	C752.061462,633.794678 722.890076,636.093262 693.746948,639.184509 
	C666.610535,642.062927 639.654968,645.869568 613.124084,652.404480 
	C596.544189,656.488342 580.208984,661.134033 567.030518,672.767395 
	C557.798950,680.916565 548.065613,681.440674 537.590149,675.611511 
	C530.585876,671.713928 523.383423,668.286682 515.501160,666.513611 
	C500.339508,663.103088 484.882477,662.367004 469.446838,661.467041 
	C467.830566,661.372864 466.083801,661.347656 464.911469,662.875366 
	C467.325806,669.154968 471.463287,672.284485 477.145538,671.517151 
	C487.944092,670.058899 498.775696,670.698242 509.589874,670.743530 
	C515.841858,670.769653 521.844360,672.217346 526.615173,676.740601 
	C538.356812,687.872864 562.728455,685.573303 573.429810,674.456970 
	C579.378662,668.277283 586.576843,665.573853 594.357483,663.710144 
	C611.508667,659.601929 628.981628,657.447815 646.480713,655.411804 
	C663.818970,653.394653 681.177490,651.712585 698.598328,650.628296 
	C710.382019,649.894897 722.157104,649.023438 734.860779,648.051392 
M130.102036,297.201080 
	C124.290634,269.576111 118.491928,241.948471 112.641441,214.331802 
	C112.217117,212.328842 112.145058,209.971176 109.291344,208.942535 
	C104.501923,215.386978 105.591324,222.873856 106.749763,229.614090 
	C111.388123,256.601807 116.697784,283.475464 121.877892,310.368439 
	C128.659714,345.576843 135.530319,380.768219 142.414505,415.956757 
	C144.373367,425.969391 146.512222,435.946777 148.568542,445.940338 
	C149.035812,446.131592 149.503098,446.322845 149.970383,446.514099 
	C151.577866,444.613739 152.898239,442.315063 154.857590,440.902924 
	C158.101044,438.565186 158.351578,435.853607 157.609924,432.286743 
	C154.330841,416.516876 151.276337,400.700531 148.073196,384.914642 
	C142.194321,355.942078 136.268051,326.979126 130.102036,297.201080 
M317.353607,750.690735 
	C358.101685,738.914368 398.852844,727.148682 439.595215,715.352539 
	C447.784698,712.981445 450.012787,708.811584 447.804565,699.825562 
	C445.904602,700.346375 443.993103,700.811890 442.117767,701.393860 
	C429.410309,705.338074 416.740143,709.405090 404.002777,713.249817 
	C361.801971,725.987854 319.574066,738.636108 277.366394,751.351501 
	C270.384460,753.454834 264.153656,756.883667 259.356140,762.516296 
	C258.248230,763.817139 256.511200,764.952209 257.343018,768.102051 
	C277.133392,762.347290 296.850494,756.613831 317.353607,750.690735 
M592.928345,648.242798 
	C615.621887,641.043640 638.703796,635.725098 662.334717,632.483582 
	C684.256653,629.476501 706.232239,627.156372 728.291016,625.799133 
	C746.228577,624.695496 764.220154,624.465942 782.188538,623.870117 
	C785.327515,623.766052 788.155396,623.831421 787.957886,619.172241 
	C787.783264,615.054260 785.826172,614.403625 782.269958,614.226074 
	C763.942627,613.310913 745.672241,614.187073 727.378113,615.201233 
	C692.877869,617.113770 658.964050,622.656311 625.594727,631.429871 
	C608.510681,635.921753 591.752686,641.496338 576.724548,651.204407 
	C573.894653,653.032410 571.251465,655.036316 568.982422,658.505432 
	C577.222961,654.965027 584.709473,651.748596 592.928345,648.242798 
M203.967285,458.290955 
	C213.125748,456.720398 222.274536,455.090424 231.445282,453.595276 
	C241.570618,451.944489 241.579391,451.998352 240.634552,442.184052 
	C239.696167,432.436768 239.696289,432.437439 229.923965,434.245422 
	C229.597366,434.305847 229.258881,434.303162 228.932968,434.366211 
	C210.343658,437.961609 191.719040,441.387146 173.182068,445.235016 
	C164.253372,447.088409 158.096909,452.748352 154.943771,461.355957 
	C153.365158,465.665436 154.523560,466.862549 158.952789,466.098297 
	C173.674194,463.558197 188.398834,461.036896 203.967285,458.290955 
M262.912201,389.402130 
	C261.734833,390.041138 261.356689,391.041138 261.543396,392.330200 
	C264.655273,413.817291 267.716675,435.311798 270.883392,456.790771 
	C273.639648,475.485779 276.665436,494.142334 279.272766,512.857544 
	C280.617676,522.511108 280.323151,522.556152 290.106415,522.957764 
	C290.385315,522.969238 290.676758,522.676025 291.322998,522.334045 
	C290.938141,519.560242 290.607697,516.636719 290.118469,513.739990 
	C286.640320,493.145538 283.142639,472.554352 279.625702,451.966492 
	C276.247345,432.190094 272.847534,412.417358 269.433899,392.647003 
	C268.853912,389.287811 267.279724,387.407745 262.912201,389.402130 
M306.749481,796.888062 
	C315.273071,812.767456 314.839508,831.155640 320.510986,848.138489 
	C323.743713,846.272705 325.646973,843.339355 328.996307,842.972412 
	C332.159149,842.625977 334.918396,844.722656 338.755859,845.022888 
	C331.931213,824.623535 326.142792,804.502869 317.827332,785.238586 
	C316.793518,782.843567 315.243622,782.751831 312.992920,783.219727 
	C301.472717,785.614685 301.105469,786.267212 306.749481,796.888062 
M332.604797,788.730408 
	C333.667664,791.646606 335.756317,791.025879 337.932556,790.327209 
	C372.936646,779.088989 408.015533,768.072632 442.495148,755.274048 
	C445.917267,754.003723 449.197266,752.339111 452.502228,750.771179 
	C453.561920,750.268372 454.596252,749.487976 454.001923,748.044739 
	C453.501709,746.830078 452.440582,746.278137 451.171600,746.472839 
	C450.031952,746.647644 448.916779,747.022583 447.811279,747.373657 
	C428.946808,753.364807 410.106415,759.432556 391.217621,765.345764 
	C372.804443,771.110107 354.343933,776.723328 335.900604,782.391052 
	C333.034027,783.271912 330.137054,784.082642 332.604797,788.730408 
M463.417786,638.308167 
	C454.351013,637.883606 445.295624,637.881104 434.743225,638.579712 
	C441.959106,644.266602 446.519287,650.115662 456.025818,650.034973 
	C483.305817,649.803406 510.373779,652.351746 536.843323,662.062256 
	C526.726135,652.261108 523.348267,649.821899 514.272827,646.875488 
	C498.073181,641.616211 481.377441,639.083008 463.417786,638.308167 
M253.307831,405.185608 
	C252.206406,402.821320 253.419983,399.507782 250.519806,397.691528 
	C247.065063,402.801941 257.666656,499.611877 264.100464,523.585754 
	C269.766510,523.813782 270.403809,523.372375 269.571228,517.409607 
	C266.885315,498.173920 263.944458,478.973938 261.161926,459.751526 
	C258.569641,441.843750 256.054169,423.924835 253.307831,405.185608 
M142.090225,166.756348 
	C140.446228,166.975769 138.805740,167.226822 137.157669,167.409515 
	C126.038361,168.641968 126.022163,168.966400 128.082489,179.736008 
	C128.868179,183.842926 130.965912,184.096924 134.018311,183.499527 
	C138.254425,182.670441 142.442383,181.596848 146.675125,180.748520 
	C157.254120,178.628235 167.864059,176.657822 178.418594,174.424133 
	C180.421890,174.000183 183.415039,174.356049 183.501541,170.836243 
	C183.629547,165.628510 181.349823,163.273911 176.172501,163.295578 
	C164.998642,163.342331 154.063599,165.796494 142.090225,166.756348 
z"/>
<path fill="#000000" opacity="1.000000" stroke="none" 
	d="
M557.333618,744.582458 
	C564.879639,745.378662 572.039856,745.808594 579.065125,747.020630 
	C582.844116,747.672668 584.105408,746.484802 584.991699,743.136963 
	C589.117981,727.551453 593.477112,712.027588 597.626099,696.447998 
	C599.284424,690.220764 600.788147,688.667969 607.282349,688.707642 
	C618.557129,688.776550 629.171875,692.602112 640.011230,695.004944 
	C684.618835,704.893311 729.439636,713.680481 774.408752,721.737793 
	C786.998718,723.993530 799.574768,726.326660 812.161682,728.599182 
	C819.093933,729.850830 821.355103,732.930603 819.926941,739.767578 
	C816.149475,757.851685 811.254089,775.638916 805.707153,793.260559 
	C793.420654,832.293213 780.567383,871.149902 769.285095,910.495300 
	C766.208496,921.224426 762.856628,923.231323 751.771851,921.138550 
	C724.986450,916.081360 698.318787,910.447388 671.822144,904.059753 
	C667.393982,902.992249 665.978699,904.222168 664.783508,908.181763 
	C661.418518,919.330261 657.843872,930.422729 654.034119,941.427246 
	C651.552734,948.594727 649.410645,949.607483 641.929565,948.244019 
	C616.583008,943.624329 591.471008,937.922180 566.418152,931.932861 
	C535.041992,924.431885 503.850708,916.235168 472.801697,907.484314 
	C464.757477,905.217102 463.242493,902.812622 465.661285,894.903748 
	C478.460205,853.054749 491.767975,811.371338 506.362335,770.106934 
	C509.525208,761.164124 512.696472,752.218384 515.554810,743.176270 
	C516.991760,738.630493 519.828430,736.715881 524.178040,737.891724 
	C534.951538,740.804016 545.945801,742.533264 557.333618,744.582458 
M788.429565,803.056213 
	C789.885010,798.282654 791.345642,793.510620 792.794922,788.735107 
	C797.189331,774.254578 801.507446,759.750305 806.024109,745.307983 
	C807.085144,741.915039 806.449890,740.478699 802.756775,739.994202 
	C797.166626,739.260742 791.635315,738.065247 786.089294,737.011841 
	C729.624146,726.287720 673.176514,715.476379 616.989380,703.354126 
	C610.031128,701.852905 610.022644,701.925598 607.933594,709.070862 
	C592.952820,760.311462 578.692932,811.771851 561.252014,862.262939 
	C560.984070,863.038513 560.653198,863.841797 561.490417,864.972900 
	C562.712402,865.379761 564.235596,866.027954 565.823792,866.394836 
	C598.040894,873.836243 630.238220,881.365784 662.496277,888.625793 
	C691.992432,895.264221 721.567200,901.553162 751.073730,908.146118 
	C754.410889,908.891785 756.174377,907.975647 757.202881,904.945374 
	C757.898132,902.897095 758.694214,900.880554 759.322388,898.812500 
	C768.940491,867.147156 778.538574,835.475708 788.429565,803.056213 
M577.808105,760.267151 
	C576.521851,759.959534 575.251038,759.533081 573.946899,759.362488 
	C559.784546,757.511353 545.496399,756.403259 531.619324,752.824280 
	C527.301697,751.710754 525.535828,752.798035 524.066833,757.091858 
	C508.829895,801.628845 493.997742,846.293884 480.221344,891.307983 
	C479.113617,894.927429 479.439636,896.652954 483.440796,897.796875 
	C534.759338,912.469055 586.876343,923.788147 638.984253,935.162415 
	C641.934998,935.806519 642.805359,934.566101 643.639587,932.241272 
	C646.898743,923.158752 650.176819,914.080566 653.642578,905.075745 
	C655.077148,901.348389 654.187134,899.800720 650.196533,898.908508 
	C634.954224,895.500610 619.786316,891.760742 604.587036,888.159607 
	C586.809021,883.947388 569.179199,879.094116 551.147949,875.977051 
	C545.407593,874.984680 544.125244,872.807312 545.636597,867.278198 
	C546.117676,865.518250 546.777100,863.804443 547.403381,862.087219 
	C558.919739,830.508606 569.077759,798.491455 578.274109,766.167786 
	C578.772888,764.414612 580.211670,762.476074 577.808105,760.267151 
z"/>
<path fill="#000000" opacity="1.000000" stroke="none" 
	d="
M618.340393,211.840073 
	C620.937195,222.739548 623.550720,233.204086 625.990723,243.708939 
	C626.509216,245.941223 626.709167,248.348190 626.507629,250.626160 
	C626.079834,255.460297 622.837036,258.019897 618.011047,257.702423 
	C615.319824,257.525421 612.820801,256.727661 610.393921,255.514435 
	C598.783264,249.710220 587.031311,244.177124 575.560303,238.111404 
	C571.536072,235.983414 569.367554,236.860825 566.866272,240.172974 
	C557.937988,251.995682 549.209290,264.001251 538.542847,274.384491 
	C537.128113,275.761627 535.599182,277.188843 533.851624,278.026154 
	C527.949280,280.854156 523.174438,278.751373 521.706055,272.261047 
	C517.530579,253.804779 513.575134,235.297348 509.687714,216.777588 
	C501.740906,178.919022 493.890564,141.040222 486.011810,103.167389 
	C484.351959,95.188545 485.965424,92.276588 494.061737,89.922760 
	C513.857788,84.167488 534.128479,80.373611 554.178528,75.665627 
	C562.101196,73.805275 570.047546,72.042175 578.000671,70.315666 
	C585.763123,68.630547 588.666260,70.473381 590.317139,78.382500 
	C597.031982,110.552299 603.639099,142.744583 610.357788,174.913559 
	C612.903687,187.103088 615.643677,199.252060 618.340393,211.840073 
M517.822754,97.431252 
	C512.822021,98.672852 507.848816,100.045250 502.810089,101.106674 
	C499.816254,101.737343 499.130249,103.091179 499.766479,106.038925 
	C502.253265,117.561180 504.507996,129.133408 506.863556,140.684082 
	C513.396851,172.721024 519.913086,204.761459 526.491577,236.789124 
	C528.213562,245.172424 530.137695,253.514206 531.951721,261.796173 
	C533.889160,261.674072 534.426819,260.546783 535.148071,259.666779 
	C543.485718,249.493256 551.710327,239.224533 560.190247,229.171127 
	C565.864807,222.443558 569.830994,221.571121 577.706055,225.305008 
	C587.179199,229.796585 596.473328,234.664886 605.863953,239.331848 
	C607.849792,240.318771 609.711853,241.743866 612.603394,241.872299 
	C610.881775,234.484711 609.146057,227.586853 607.674683,220.633072 
	C598.360474,176.613220 588.344055,132.740768 579.851501,88.549591 
	C579.128540,84.787605 577.609253,83.939339 574.062195,84.760284 
	C555.609253,89.031120 537.121887,93.153603 517.822754,97.431252 
z"/>
<path fill="#000000" opacity="1.000000" stroke="none" 
	d="
M840.674011,551.889038 
	C842.361389,543.319885 843.951599,535.168152 845.680603,527.045959 
	C847.387573,519.027039 850.692810,516.566772 858.786377,517.837097 
	C875.684387,520.489319 892.544067,523.386414 909.418762,526.187317 
	C918.430664,527.683105 927.435364,529.223328 936.453979,530.677429 
	C943.889832,531.876404 946.659607,535.466858 945.060974,542.874695 
	C934.616699,591.273010 926.612366,640.146179 916.612122,688.630066 
	C915.538940,693.833130 914.703247,699.087585 913.537170,704.268677 
	C911.497803,713.329895 908.108154,715.541321 898.993469,713.997437 
	C887.858704,712.111450 876.716858,710.264099 865.599609,708.279175 
	C851.209961,705.710022 836.824585,703.110046 822.472168,700.343018 
	C816.320862,699.157104 814.419189,696.258972 815.545044,690.018738 
	C820.703735,661.424805 825.961548,632.848816 831.177368,604.265198 
	C834.336792,586.950989 837.484619,569.634705 840.674011,551.889038 
M855.601746,693.664062 
	C869.174316,696.026550 882.790283,698.171692 896.295105,700.872864 
	C900.841187,701.781982 902.046143,700.302795 902.872925,696.228455 
	C912.943115,646.605591 922.190063,596.826782 931.403442,547.040710 
	C932.020813,543.704895 931.038818,541.969788 927.685669,541.439331 
	C906.524414,538.091858 885.383789,534.610291 864.202209,531.397400 
	C856.873535,530.285645 856.802673,530.573364 855.469055,537.855835 
	C846.556580,586.521912 837.686584,635.195923 828.691589,683.846741 
	C828.011780,687.523376 829.119507,689.075378 832.675659,689.655273 
	C840.047668,690.857422 847.385376,692.269714 855.601746,693.664062 
z"/>
<path fill="#000000" opacity="1.000000" stroke="none" 
	d="
M621.609619,477.777863 
	C604.869446,480.971191 588.629456,484.451630 572.522949,488.549438 
	C565.981018,490.213867 562.891663,489.345947 561.845398,485.698090 
	C560.498657,481.002289 562.337830,478.646973 569.310059,476.863312 
	C594.741699,470.357269 620.532898,465.618622 646.472961,461.726807 
	C667.308350,458.600861 688.197021,455.824860 709.079773,453.025391 
	C712.521790,452.563965 716.054504,452.716217 719.545776,452.703461 
	C722.965820,452.690979 724.826416,454.768829 725.150696,457.903625 
	C725.471802,461.008545 723.637390,462.971588 720.600159,463.452942 
	C714.538269,464.413574 708.464905,465.332825 702.370850,466.054779 
	C675.487671,469.239594 648.709290,473.139191 621.609619,477.777863 
z"/>
<path fill="#000000" opacity="1.000000" stroke="none" 
	d="
M665.621704,506.813171 
	C637.214844,510.975586 609.573853,516.717346 582.179565,523.681885 
	C575.045288,525.495667 571.771118,524.610291 570.799133,520.607483 
	C569.706543,516.108032 571.648865,513.759460 578.676392,511.921997 
	C604.882385,505.069794 631.395508,499.732513 658.162354,495.535706 
	C673.913025,493.066162 689.668884,490.690094 705.524292,489.077789 
	C711.776245,488.442017 718.074341,487.527893 724.410034,488.660828 
	C727.212158,489.161896 729.075378,490.394989 729.242859,493.408539 
	C729.399658,496.229675 727.686157,497.623993 725.234009,498.370728 
	C719.131592,500.229248 712.739563,500.038727 706.504089,500.980255 
	C693.037231,503.013702 679.533752,504.805450 665.621704,506.813171 
z"/>
<path fill="#000000" opacity="1.000000" stroke="none" 
	d="
M676.502747,428.395142 
	C673.553711,427.341034 672.988281,425.181091 672.648499,422.756836 
	C671.432678,414.081451 670.129700,405.418274 667.808411,396.573242 
	C666.630920,399.578674 665.451782,402.583496 664.276184,405.589722 
	C661.699402,412.178772 658.082642,412.661438 653.415405,407.215820 
	C651.392517,404.855682 650.228516,401.749725 646.629578,399.567535 
	C647.311096,405.951721 647.894043,411.724091 648.556274,417.487335 
	C648.896667,420.448975 649.257507,423.417969 649.828003,426.340912 
	C650.494019,429.753174 649.849365,432.436859 646.105286,433.222870 
	C642.020874,434.080353 640.271118,431.560974 639.794250,427.998291 
	C638.694275,419.780701 637.709167,411.547363 636.724060,403.314850 
	C636.053894,397.714478 635.433594,392.107666 634.846558,386.497955 
	C634.483704,383.030701 634.615479,379.692261 638.603210,378.213531 
	C642.372314,376.815826 644.941772,378.691284 647.218689,381.460541 
	C650.650146,385.634094 653.013000,390.683380 657.717957,394.868896 
	C659.941711,389.522339 661.865356,384.801178 663.870239,380.114807 
	C664.984253,377.510864 666.101929,374.852203 669.097229,373.780243 
	C672.487610,372.566833 675.568481,373.307007 676.080811,376.999359 
	C678.198914,392.265198 681.118286,407.425201 682.363953,422.808289 
	C682.679016,426.698669 681.105896,428.907806 676.502747,428.395142 
z"/>
<path fill="#000000" opacity="1.000000" stroke="none" 
	d="
M552.067993,423.651428 
	C551.200562,415.951843 550.397095,408.696136 549.694702,401.430664 
	C549.391052,398.289459 549.786438,395.244843 553.276123,394.014252 
	C556.819580,392.764740 559.336182,394.612915 561.403259,397.310486 
	C564.208130,400.970825 567.020142,404.625732 570.107422,408.645386 
	C573.525879,404.951813 573.922729,400.495575 575.614319,396.672821 
	C576.686401,394.250031 577.285034,391.597046 579.056824,389.532684 
	C580.528625,387.817871 582.353271,386.626221 584.732117,387.154846 
	C587.246277,387.713531 588.838501,389.396515 589.240417,391.927032 
	C591.579651,406.655487 593.916443,421.384979 596.108521,436.135712 
	C596.573853,439.266846 595.337952,441.797943 591.799927,442.276703 
	C587.882690,442.806854 586.420166,440.190491 585.875793,436.995300 
	C584.706726,430.133331 583.749756,423.235504 582.662659,416.359192 
	C582.356689,414.423889 581.900208,412.512390 581.232666,409.199677 
	C579.321960,413.837097 577.980591,417.300232 576.476624,420.691254 
	C574.530457,425.079468 570.751526,425.750458 567.415649,422.304047 
	C566.266846,421.117157 565.357239,419.696991 564.353882,418.371674 
	C563.364014,417.064026 562.393799,415.741516 560.808228,413.609924 
	C561.912292,423.512360 562.842957,432.464630 563.940857,441.396332 
	C564.353516,444.753326 563.978027,447.593323 560.104736,448.205261 
	C556.590454,448.760529 554.984680,446.682373 554.591431,443.332916 
	C553.837708,436.912872 552.984680,430.504547 552.067993,423.651428 
z"/>
<path fill="#000000" opacity="1.000000" stroke="none" 
	d="
M687.740173,394.767609 
	C687.632751,389.311798 687.317566,384.323761 688.790649,379.434509 
	C690.780884,372.828979 695.102478,369.363342 702.685242,368.471313 
	C710.252747,367.581085 716.348328,370.050446 719.239014,375.995636 
	C724.894287,387.626709 725.772949,400.022400 723.190979,412.497742 
	C721.630981,420.035400 716.266052,423.906799 708.989136,424.327789 
	C700.543457,424.816406 695.049500,421.627716 691.881348,414.180267 
	C689.313232,408.143494 688.687073,401.650238 687.740173,394.767609 
M713.694336,399.585693 
	C713.852661,394.570740 712.968140,389.688507 711.681030,384.880615 
	C710.728638,381.322968 709.081665,378.228333 704.718872,378.411072 
	C700.250610,378.598206 698.870972,382.086884 698.529541,385.593903 
	C697.734375,393.761078 699.132751,401.770111 701.635803,409.540070 
	C702.601807,412.538788 705.053650,413.987183 708.260010,413.654175 
	C711.600891,413.307159 713.166992,410.991119 713.555298,407.974792 
	C713.870605,405.525635 713.684998,403.012024 713.694336,399.585693 
z"/>
<path fill="#000000" opacity="1.000000" stroke="none" 
	d="
M606.093201,435.458710 
	C603.538025,420.209167 601.086670,405.331940 598.815613,390.427216 
	C598.328735,387.231537 599.879395,384.906860 603.277954,384.318024 
	C608.993408,383.327728 614.705566,382.287842 620.453186,381.526276 
	C623.341797,381.143494 625.817993,382.097351 626.259460,385.520935 
	C626.689392,388.855347 624.645935,390.412170 621.803345,391.116760 
	C618.907104,391.834686 615.973206,392.423889 613.031921,392.931580 
	C607.208252,393.936737 610.501953,398.030853 610.518921,400.778351 
	C610.534668,403.331635 611.415222,405.847137 615.085388,404.940613 
	C616.196411,404.666168 617.400024,404.689209 618.559631,404.703552 
	C621.555664,404.740540 623.820679,405.918915 624.178101,409.154999 
	C624.508118,412.143127 622.654358,413.716431 620.021362,414.546692 
	C619.231018,414.795898 618.402954,415.208740 617.620300,415.152893 
	C613.027222,414.825439 612.670837,417.149139 613.236877,421.000793 
	C614.221985,427.704468 613.986084,427.728516 620.832031,426.723907 
	C623.292297,426.362915 625.754700,425.886841 628.229126,425.787842 
	C630.847961,425.683044 632.743591,427.011230 633.203125,429.711792 
	C633.626343,432.198730 633.172913,434.526489 630.332031,435.289337 
	C623.749023,437.057068 617.078735,438.364624 610.221069,438.405090 
	C608.335632,438.416229 607.145752,437.350098 606.093201,435.458710 
z"/>
<path fill="#000000" opacity="1.000000" stroke="none" 
	d="
M482.308716,410.093201 
	C485.546844,410.854614 487.760254,412.062500 487.438202,415.516235 
	C487.117523,418.955811 484.386383,419.697693 481.778229,420.171417 
	C474.578156,421.479248 467.359192,421.015564 460.830139,417.744507 
	C451.694611,413.167603 442.857971,412.875671 433.589081,417.148590 
	C425.862518,420.710449 417.973053,419.942871 410.373413,416.556458 
	C400.248749,412.044983 390.751099,412.067047 380.999573,418.184937 
	C372.891632,423.271698 363.484863,424.109070 354.538025,420.786926 
	C345.061829,417.268188 336.674408,418.695007 328.386627,423.629425 
	C327.389221,424.223236 326.304443,424.670074 325.261017,425.186859 
	C321.942169,426.830536 318.589417,427.157928 316.453369,423.656738 
	C314.237640,420.024811 316.363983,417.288513 319.437012,415.324890 
	C330.184784,408.457367 341.733307,404.561432 354.467102,408.113892 
	C363.267792,410.569061 371.196716,409.186951 378.912018,404.932129 
	C389.357300,399.171722 400.131348,398.426117 411.029907,403.228119 
	C419.567963,406.990021 427.862854,407.584930 436.535767,403.661743 
	C444.878784,399.887848 453.181824,401.713806 461.211273,405.021912 
	C467.871887,407.766113 474.610260,409.984222 482.308716,410.093201 
z"/>
<path fill="#000000" opacity="1.000000" stroke="none" 
	d="
M392.608917,512.878662 
	C384.479828,516.205139 376.540955,516.529663 368.926575,513.129944 
	C360.392212,509.319550 352.471619,510.441528 344.500946,514.422424 
	C342.273163,515.535095 339.924042,516.411316 337.607635,517.338623 
	C334.623657,518.533203 331.826447,518.213562 330.257324,515.221069 
	C328.732544,512.313171 329.760406,509.398102 332.388458,507.769684 
	C342.894989,501.259277 353.986664,495.279419 366.599060,500.430481 
	C376.943451,504.655334 386.191956,503.439941 395.855469,498.983215 
	C404.906128,494.809174 414.490540,494.374847 423.353088,499.070282 
	C433.431671,504.410004 443.151123,504.550415 453.535980,500.400604 
	C461.064362,497.392242 468.839844,497.883698 476.458740,500.703339 
	C482.869110,503.075714 489.307892,505.123566 496.337097,504.876312 
	C499.465027,504.766235 503.135040,505.413788 503.174072,509.728973 
	C503.211029,513.813049 499.762512,514.582825 496.612122,515.275940 
	C488.813416,516.991577 481.382782,515.259338 474.202667,512.432617 
	C467.475342,509.784088 460.964294,509.750641 454.347382,512.632568 
	C443.523224,517.346802 432.786255,517.624573 422.143463,511.930664 
	C412.303345,506.666199 402.576721,507.908203 392.608917,512.878662 
z"/>
<path fill="#000000" opacity="1.000000" stroke="none" 
	d="
M469.399231,468.982910 
	C460.149536,465.121033 451.302002,465.016418 442.371674,468.652771 
	C434.359009,471.915436 426.400818,470.122406 419.097321,466.864532 
	C409.356049,462.519318 400.258179,462.674957 390.833374,467.393555 
	C382.681305,471.474884 373.995178,471.683838 365.604340,468.504944 
	C354.187347,464.179535 343.577728,464.528687 333.328522,471.592255 
	C330.384766,473.621033 326.694214,475.102844 324.134460,471.093353 
	C321.669464,467.232300 324.243683,464.363525 327.241058,462.275238 
	C339.933105,453.432526 353.285858,448.928284 368.346985,456.485535 
	C375.221161,459.934814 382.212524,459.957489 388.927460,456.164825 
	C400.357574,449.709015 411.891357,449.119263 423.772919,454.791168 
	C429.813751,457.674866 436.131805,457.406677 442.288788,455.421936 
	C450.885254,452.650818 459.351837,452.997833 467.746368,455.849060 
	C473.468506,457.792603 479.201508,459.191223 485.301300,459.160370 
	C488.295105,459.145233 491.732666,459.507629 492.109009,463.483582 
	C492.461395,467.206573 489.600769,468.550079 486.557434,469.465393 
	C480.929993,471.158020 475.362427,470.373322 469.399231,468.982910 
z"/>
<path fill="#000000" opacity="1.000000" stroke="none" 
	d="
M729.402588,863.576843 
	C722.818604,855.362244 717.345276,846.804810 711.670227,838.386169 
	C705.920288,829.856689 699.583679,828.133179 690.165405,832.173645 
	C679.082764,836.928223 669.207214,843.735779 659.073425,850.120911 
	C654.713135,852.868286 650.286438,855.559692 644.799866,855.408997 
	C642.127991,855.335632 639.696899,854.875793 638.874146,851.938477 
	C638.024719,848.905823 639.924255,847.282898 642.375244,846.153931 
	C650.109924,842.591064 657.285583,838.074280 664.462463,833.526062 
	C667.514160,831.592102 668.162292,829.906189 666.021606,826.766113 
	C661.994385,820.859009 658.166687,814.800598 654.566284,808.624207 
	C652.684692,805.396240 650.921387,805.180481 647.784485,806.965515 
	C634.623901,814.454346 621.334167,821.716431 608.085083,829.049438 
	C605.619141,830.414124 603.259399,832.056641 600.361206,832.413391 
	C597.711914,832.739502 595.195862,832.381836 594.065186,829.603516 
	C592.982544,826.943176 594.001587,824.626953 596.290710,823.072449 
	C599.455200,820.923401 602.678528,818.838379 606.008545,816.959839 
	C617.895386,810.253967 629.727539,803.436462 641.808472,797.095947 
	C647.397888,794.162354 652.244995,790.820068 655.602844,785.346924 
	C663.211243,772.946045 684.459473,769.682800 695.084473,774.690918 
	C705.886475,779.782593 711.569153,788.300415 712.315857,800.093994 
	C712.620178,804.899170 712.767151,809.795227 710.942078,814.395935 
	C709.914429,816.986267 710.927612,818.545959 712.987122,819.794983 
	C717.274536,822.395264 720.093689,826.199951 722.233582,830.648621 
	C727.171692,840.915100 733.837280,850.055664 740.861023,858.957397 
	C741.683411,859.999695 742.474915,861.085205 743.130188,862.236511 
	C744.362427,864.401672 744.779297,866.628296 742.973999,868.730896 
	C741.023010,871.003174 738.546082,870.816589 736.110596,869.881592 
	C733.187683,868.759399 731.338928,866.349487 729.402588,863.576843 
M700.657715,804.238647 
	C700.546753,802.588440 700.643921,800.892090 700.289673,799.295898 
	C698.511047,791.281860 692.080872,785.123230 684.844543,784.342957 
	C676.597168,783.453735 665.454956,788.899231 662.201904,795.244751 
	C661.065063,797.462402 661.353149,799.272400 662.640320,801.274841 
	C665.602051,805.882202 668.414246,810.585327 671.315796,815.231689 
	C677.773560,825.572571 677.758484,825.526123 688.608582,819.761841 
	C694.703003,816.524170 699.857971,812.610229 700.657715,804.238647 
z"/>
<path fill="#000000" opacity="1.000000" stroke="none" 
	d="
M678.032837,860.307007 
	C674.655273,860.041260 672.428650,858.582520 671.985535,855.615723 
	C671.552673,852.717407 673.762878,851.196960 676.047241,849.963379 
	C680.427979,847.597534 684.842102,845.289612 689.165283,842.822632 
	C692.530151,840.902405 695.176880,841.327820 697.100952,844.791382 
	C700.251770,850.463562 703.920837,855.786682 707.761414,861.007202 
	C709.405212,863.241699 710.598755,865.850159 708.278198,868.229553 
	C705.694031,870.879211 702.805603,869.788025 700.129456,868.084290 
	C696.471924,865.755859 694.621155,861.936096 692.425842,858.443909 
	C690.873535,855.974609 689.221558,855.391296 686.711670,857.074524 
	C684.217896,858.747131 681.478210,859.937927 678.032837,860.307007 
z"/>
<path fill="#000000" opacity="1.000000" stroke="none" 
	d="
M642.297913,753.709961 
	C645.445374,758.018127 648.393188,762.021118 651.307861,766.048157 
	C653.196655,768.657959 653.467407,771.381287 650.935547,773.625244 
	C648.375916,775.893860 645.620239,775.187073 643.342224,773.033081 
	C638.856262,768.791199 635.439514,763.669434 632.082397,758.544067 
	C630.213867,755.691223 629.652710,752.492249 632.678162,750.037415 
	C635.943298,747.388123 638.516052,749.460815 640.828247,751.873230 
	C641.285400,752.350342 641.667542,752.899231 642.297913,753.709961 
z"/>
<path fill="#000000" opacity="1.000000" stroke="none" 
	d="
M614.401062,835.531738 
	C618.895508,832.950928 623.057434,830.550781 627.265625,828.234619 
	C630.340820,826.542053 633.656677,826.201965 635.593262,829.506958 
	C637.627136,832.977844 635.928650,835.809753 632.524414,837.682617 
	C628.463867,839.916382 624.490356,842.312927 620.386108,844.461182 
	C617.616638,845.910767 614.788818,845.752930 612.788879,843.106262 
	C610.711060,840.356445 611.533447,837.828857 614.401062,835.531738 
z"/>
<path fill="#000000" opacity="1.000000" stroke="none" 
	d="
M737.702271,767.541748 
	C742.980469,770.281860 743.614868,773.950134 739.329956,777.025513 
	C735.171875,780.009888 730.689087,782.562256 726.239136,785.112732 
	C723.205505,786.851379 720.431641,786.279358 718.567871,783.159729 
	C716.867249,780.313110 717.975281,777.821289 720.438782,776.302429 
	C725.845947,772.968872 730.326172,767.776855 737.702271,767.541748 
z"/>
<path fill="#000000" opacity="1.000000" stroke="none" 
	d="
M739.123779,812.396973 
	C735.754333,813.062256 732.810059,813.476868 729.789246,813.343079 
	C726.893066,813.214783 725.083252,811.856812 724.555115,808.999084 
	C724.055237,806.293762 725.307617,804.274353 727.761047,803.494263 
	C733.791809,801.576599 740.017578,800.596558 746.366089,800.764099 
	C748.642944,800.824158 750.093079,802.312622 750.504333,804.446777 
	C751.040894,807.231689 749.715393,809.364502 747.275940,810.591919 
	C744.886292,811.794373 742.232788,812.202881 739.123779,812.396973 
z"/>
<path fill="#000000" opacity="1.000000" stroke="none" 
	d="
M712.870728,749.176758 
	C711.912720,755.353455 709.127319,760.446228 706.172546,765.399902 
	C704.705261,767.859863 702.284241,768.910217 699.303772,767.452332 
	C696.260193,765.963562 695.890625,763.420410 696.904785,760.733276 
	C698.423767,756.708435 700.083313,752.695190 702.136597,748.923889 
	C704.688904,744.235962 709.421936,744.302734 712.870728,749.176758 
z"/>
<path fill="#000000" opacity="1.000000" stroke="none" 
	d="
M677.426636,749.729370 
	C678.252319,753.096741 678.535645,756.093567 678.188782,759.075500 
	C677.822815,762.222351 676.153076,764.378235 672.678467,764.302856 
	C669.476440,764.233459 667.907043,762.384277 667.673584,759.254944 
	C667.377686,755.287537 666.497253,751.391907 666.609253,747.360413 
	C666.712219,743.655518 667.544312,740.251099 671.681091,740.108521 
	C676.075928,739.956848 677.432800,743.314575 677.349548,747.289795 
	C677.335632,747.954163 677.376038,748.619629 677.426636,749.729370 
z"/>
<path fill="#000000" opacity="1.000000" stroke="none" 
	d="
M861.447266,652.868164 
	C857.888550,651.754883 854.673157,650.913208 851.578491,649.750122 
	C848.818237,648.712769 847.196533,646.613098 847.884399,643.523132 
	C848.527405,640.634888 850.515442,639.036499 853.504089,638.709656 
	C857.382507,638.285461 861.098267,639.338928 864.803528,640.104797 
	C872.431030,641.681458 880.111877,642.832703 887.838684,643.744385 
	C889.148804,643.898987 890.428284,644.297485 891.732178,644.524170 
	C895.669373,645.208496 897.639221,647.630188 897.168335,651.502930 
	C896.701904,655.338806 894.092896,657.126953 890.271484,657.333252 
	C883.886536,657.677795 877.822876,655.650635 871.590698,654.873901 
	C868.314514,654.465576 865.090576,653.638062 861.447266,652.868164 
z"/>
<path fill="#000000" opacity="1.000000" stroke="none" 
	d="
M877.290161,628.019653 
	C871.025635,626.677612 865.137146,625.612854 859.357178,624.126404 
	C855.997437,623.262451 852.892273,621.476624 853.952026,617.145203 
	C855.013977,612.804626 858.452271,612.151672 862.217773,612.812683 
	C873.162170,614.734009 884.096130,616.719177 895.012451,618.793518 
	C898.465637,619.449707 901.644775,620.856506 901.205811,625.197388 
	C900.738098,629.822937 897.200806,630.603271 893.487000,630.251282 
	C888.208679,629.751160 882.968384,628.849854 877.290161,628.019653 
z"/>
<path fill="#000000" opacity="1.000000" stroke="none" 
	d="
M869.768433,569.440186 
	C867.210999,567.229797 866.334778,564.888611 867.834351,562.104431 
	C869.248352,559.479004 871.604797,558.295166 874.501953,558.684631 
	C884.535645,560.033142 894.581970,561.331116 904.562439,563.010742 
	C908.537170,563.679688 909.763367,566.981873 909.183777,570.677063 
	C908.588806,574.470459 906.226746,576.765137 902.245789,576.288147 
	C891.351501,574.983032 880.534058,573.217651 869.768433,569.440186 
z"/>
</svg>