<svg version="1.1" id="Layer_1" xmlns="http://www.w3.org/2000/svg" xmlns:xlink="http://www.w3.org/1999/xlink" x="0px" y="0px"
	 width="100%" viewBox="0 0 1024 1024" enable-background="new 0 0 1024 1024" xml:space="preserve">
<path fill="#000000" opacity="1.000000" stroke="none" 
	d="
M828.093628,779.894409 
	C828.362793,777.177979 828.621216,774.859619 828.633057,772.539978 
	C828.763367,747.043518 828.647949,721.543396 829.072693,696.052185 
	C829.216858,687.401367 829.314392,678.728516 829.724365,670.086548 
	C830.603271,651.559448 815.616333,645.651184 801.567810,649.244324 
	C788.908264,652.482056 777.548584,659.043762 765.514221,663.891907 
	C751.750061,669.436890 737.888184,675.103577 723.108337,676.658752 
	C701.004822,678.984619 679.750549,676.253723 662.360046,660.403809 
	C639.079407,639.185425 635.720886,608.458008 654.197266,582.993835 
	C657.524353,578.408386 657.563171,575.285583 654.718933,570.655212 
	C638.017029,543.465454 639.653381,509.131714 660.450806,483.974091 
	C671.585510,470.504974 686.200562,463.015350 703.026062,459.869354 
	C721.151855,456.480194 738.458923,458.910248 754.333435,468.996277 
	C763.341431,474.719604 770.714417,482.063354 776.658691,490.863464 
	C781.146790,497.507874 783.789429,498.457184 791.295654,495.544891 
	C794.707947,494.221039 798.092651,492.800995 801.398132,491.231445 
	C818.547913,483.088440 825.907959,468.447632 827.602112,450.496155 
	C829.120850,434.404022 828.689636,418.223602 828.595703,402.074738 
	C828.543091,393.027161 827.196533,391.744904 818.460693,392.470306 
	C806.398865,393.471893 796.053284,388.533325 785.749207,383.351135 
	C772.130920,376.502197 760.227844,367.061157 747.844116,358.337219 
	C741.072632,353.566925 733.712769,350.482391 725.165039,350.234863 
	C710.687988,349.815613 700.402222,356.632019 692.653564,368.136963 
	C685.821045,378.281830 680.831360,389.383453 676.595642,400.792480 
	C665.541321,430.567474 646.421082,453.708160 620.077332,471.271973 
	C603.543884,482.295105 587.737488,494.255249 576.672729,511.305359 
	C559.340454,538.013123 558.719727,565.255249 574.129395,592.915649 
	C583.525208,609.781067 593.931274,626.068176 602.166443,643.598083 
	C611.317993,663.078552 612.722046,683.546448 608.732788,704.072388 
	C604.565674,725.513062 589.624939,738.457703 569.962280,746.378479 
	C556.542542,751.784363 542.234375,753.141235 528.123047,755.344666 
	C515.006592,757.392700 502.268799,760.418213 491.691528,769.093872 
	C477.790497,780.495850 472.000275,795.885315 470.358795,813.221924 
	C469.857758,818.513611 469.747711,823.842651 469.229370,829.132202 
	C468.690521,834.630737 466.137817,837.052856 461.038635,837.369995 
	C452.721710,837.887268 451.140045,837.057495 449.516022,830.522095 
	C447.325745,821.707947 449.362152,812.984436 450.699677,804.326599 
	C452.906555,790.041504 457.008545,776.366089 466.216797,764.832153 
	C480.225006,747.285889 498.873352,737.942078 520.787415,734.662781 
	C530.629395,733.189941 540.569336,732.306152 550.358521,730.559326 
	C576.054321,725.973938 590.500793,707.580261 589.938904,681.592407 
	C589.606750,666.227966 583.927917,652.789917 576.841064,639.656250 
	C568.456055,624.117004 557.714905,609.913452 550.306763,593.850708 
	C535.445618,561.627808 538.272400,530.658813 557.357178,500.826874 
	C569.954468,481.135590 587.175415,466.167145 606.441284,453.813721 
	C633.098572,436.720917 649.892151,412.718262 660.533081,383.555054 
	C666.274719,367.819092 673.544556,352.906677 685.936584,341.058472 
	C708.050232,319.915375 739.468811,319.003052 762.236816,339.371887 
	C774.036865,349.928528 787.597412,357.628540 801.215820,365.351349 
	C806.478821,368.335876 812.146545,368.346313 817.749146,367.328308 
	C825.343872,365.948303 828.646057,361.507050 828.647705,353.696899 
	C828.652771,330.197571 828.659485,306.698273 828.642639,283.198944 
	C828.636536,274.729675 827.401855,273.573975 818.859131,273.092072 
	C790.404297,271.486908 761.910645,271.629791 733.433228,271.005798 
	C705.811646,270.400543 678.236023,268.195312 650.587585,268.294342 
	C640.336304,268.331085 630.397827,269.931946 621.049744,274.419037 
	C605.348511,281.955688 596.284790,294.160980 593.159363,311.454224 
	C589.825012,329.903198 586.600220,348.391266 581.971680,366.600952 
	C576.100891,389.697601 562.746338,407.165405 543.316101,420.551788 
	C534.138062,426.875031 524.755859,432.924255 516.096008,440.014038 
	C498.999847,454.010559 487.111816,472.009155 476.347198,490.906799 
	C474.452454,494.233032 472.913605,497.761078 471.042969,501.102203 
	C462.195801,516.903992 463.869537,532.011292 473.793610,546.690552 
	C479.018066,554.418396 484.140472,562.217102 489.204315,570.051392 
	C500.976318,588.263794 504.804199,608.227112 502.606873,629.652954 
	C498.411377,670.562500 475.051605,698.066406 441.151184,718.335266 
	C426.298615,727.215515 411.034058,735.406860 397.409668,746.268188 
	C382.763153,757.944397 371.743988,772.305420 364.157288,789.318604 
	C358.591064,801.800720 351.867126,813.328979 340.545258,821.573364 
	C327.549713,831.036499 313.025757,836.650513 297.019318,837.251221 
	C266.380554,838.401001 235.715042,838.504700 205.051651,838.407837 
	C199.698914,838.390930 194.409775,837.965332 189.132431,837.297058 
	C181.526337,836.333740 175.813232,830.496399 175.754410,822.818787 
	C175.575668,799.488098 175.619385,776.154236 175.785858,752.823059 
	C175.883896,739.083740 180.271118,727.322876 192.640533,719.757324 
	C199.594482,715.504028 207.282715,713.494141 215.308731,712.699280 
	C222.013763,712.035217 224.568954,710.301086 226.323059,703.838257 
	C228.823532,694.625427 233.559387,686.699402 241.445953,681.588013 
	C252.971649,674.118164 260.479950,664.225464 266.846161,651.977661 
	C275.686310,634.970398 291.169098,626.130676 310.903503,625.674255 
	C321.309418,625.433594 331.407501,627.199463 341.564545,629.058411 
	C351.124512,630.807983 360.527740,630.807556 368.360321,623.563965 
	C378.498535,614.188171 378.841522,595.966675 369.258514,583.959595 
	C359.684570,571.963928 346.904602,569.692505 332.524170,570.673645 
	C311.438202,572.112244 292.730377,580.966675 273.577820,588.535400 
	C252.752029,596.765320 231.273209,601.298096 208.766312,600.399902 
	C202.442444,600.147583 196.094727,600.494812 189.770599,600.245850 
	C181.485031,599.919556 176.374939,594.844971 176.671021,587.647766 
	C176.930634,581.336792 182.639618,576.730042 190.367310,576.680603 
	C197.366791,576.635864 204.397415,576.244019 211.360977,576.745544 
	C235.981049,578.518616 258.795807,572.025513 281.044983,562.391846 
	C294.814636,556.429749 308.934174,551.056274 323.853668,549.256653 
	C342.835846,546.966919 361.884583,547.549622 377.481628,560.663391 
	C393.124542,573.815857 401.065430,590.555542 396.863922,611.549622 
	C395.659454,617.567993 394.689789,623.695374 391.576752,629.142212 
	C384.423340,641.658447 373.028137,647.757385 359.338959,650.385193 
	C346.106506,652.925354 333.299896,650.161865 320.300415,647.981079 
	C304.890320,645.395996 291.351044,650.229858 284.471497,663.518188 
	C280.874512,670.465942 281.612701,672.805725 288.674225,676.513000 
	C300.168488,682.547424 307.915009,691.724792 311.220459,704.367004 
	C316.514740,724.615723 306.526855,745.164551 287.210541,754.029602 
	C267.006317,763.302124 244.618027,757.166809 232.065567,738.917542 
	C228.157806,733.236267 222.907959,731.698425 214.289001,733.710327 
	C200.725052,736.876648 195.765030,742.834167 195.445816,757.920105 
	C195.093307,774.578796 195.305161,791.251038 195.388550,807.916748 
	C195.417480,813.697998 197.274582,815.529846 203.246048,815.859985 
	C231.888947,817.443787 260.527374,816.647888 289.174225,815.792786 
	C300.656860,815.450073 311.632782,813.798584 321.784668,808.019287 
	C330.113403,803.278137 336.659241,797.078430 340.908081,788.300293 
	C350.767334,767.931030 362.793671,749.037048 379.504944,733.446289 
	C390.811096,722.898376 403.642944,714.674011 417.404388,707.734253 
	C431.135529,700.809998 444.155029,692.765808 455.239258,681.936401 
	C470.573486,666.954712 479.244751,648.876343 481.888336,627.495178 
	C484.063965,609.898926 480.123169,594.299072 470.358551,579.709534 
	C464.068665,570.311768 457.023407,561.419922 451.934570,551.193420 
	C439.753601,526.714722 443.829803,503.808594 456.828979,480.896820 
	C473.287201,451.888336 493.589355,426.711273 521.955444,408.468353 
	C532.029785,401.989258 541.296570,394.427094 549.123840,385.083038 
	C557.608582,374.954163 560.974121,363.009735 563.697388,350.562439 
	C567.777161,331.914978 569.325684,312.790649 574.216431,294.317200 
	C580.417114,270.895599 596.948547,257.642365 619.134460,250.956146 
	C638.809875,245.026535 659.104675,244.611954 679.484863,246.421036 
	C687.771790,247.156631 696.101624,246.882843 704.424500,247.457291 
	C734.500244,249.533218 764.648804,249.666931 794.787231,250.038483 
	C809.098572,250.214905 823.402832,251.058228 837.707153,251.673111 
	C843.504578,251.922318 847.648071,255.329773 849.208557,261.056000 
	C849.996643,263.947784 850.453735,266.904449 850.288574,269.944519 
	C848.216431,308.076721 849.786316,346.239349 849.389648,384.386322 
	C849.166138,405.883392 849.352783,427.384644 849.345642,448.884033 
	C849.335022,480.756317 829.498535,507.690735 799.112732,517.095825 
	C798.477295,517.292480 797.816223,517.405151 797.175171,517.585327 
	C786.152222,520.683838 788.166870,520.575439 788.213074,529.725708 
	C788.431396,572.912598 753.687012,606.304016 710.494629,604.264465 
	C702.469849,603.885559 694.742065,601.837158 687.574158,598.004272 
	C678.866638,593.348083 670.425903,596.455994 666.852600,605.650574 
	C661.502258,619.417786 665.368774,631.185364 675.222046,641.248169 
	C682.911804,649.101440 692.441895,653.454163 703.481323,654.756897 
	C720.071045,656.714783 735.451843,652.526489 750.646423,646.553894 
	C764.732361,641.016907 778.097290,633.691650 792.776611,629.631958 
	C802.214600,627.021973 811.818420,626.150635 821.399597,628.100891 
	C836.836670,631.243042 847.995911,644.423218 849.315918,660.607422 
	C850.970398,680.893860 850.186279,701.181885 849.592102,721.497742 
	C848.978333,742.479675 848.983093,763.500916 849.476746,784.487122 
	C849.871338,801.261353 840.694885,806.691833 827.486450,808.426941 
	C805.899048,811.262817 785.486938,806.311401 765.221863,800.099304 
	C750.434448,795.566467 736.112244,789.501038 721.005188,786.037048 
	C708.370300,783.139832 695.554871,783.020203 682.921570,786.134399 
	C661.872131,791.323364 648.789124,803.980713 646.363037,826.252380 
	C646.237671,827.403503 646.006470,828.549988 645.736023,829.677429 
	C644.059753,836.666199 642.031494,838.504822 636.696106,837.925659 
	C628.334229,837.017944 625.595886,834.646057 625.654236,827.454285 
	C625.852905,802.956238 640.428406,777.253662 669.504517,767.467896 
	C694.777649,758.962097 719.577393,761.519592 744.271301,770.015381 
	C761.406799,775.910706 778.434631,782.161438 796.180664,786.140076 
	C804.250488,787.949280 812.367126,787.847900 820.518372,787.621582 
	C825.205200,787.491394 827.150024,784.428772 828.093628,779.894409 
M743.234131,571.752075 
	C773.049377,549.129456 771.615845,509.297821 739.751404,489.580078 
	C720.105164,477.422974 691.837158,483.035217 677.944946,500.899719 
	C662.815125,520.355713 664.454773,549.244507 681.681091,566.725708 
	C697.505432,582.784180 722.050293,584.971924 743.234131,571.752075 
M279.418365,696.968750 
	C272.679901,693.437805 265.603058,692.795166 258.779083,696.051025 
	C249.978470,700.250000 245.744843,710.113037 247.966690,719.531921 
	C250.381439,729.768494 258.411163,736.450500 268.528534,736.642639 
	C277.928894,736.821045 286.943909,731.107849 289.491272,723.357605 
	C292.846832,713.148560 289.521759,703.981873 279.418365,696.968750 
z"/>
<path fill="#000000" opacity="1.000000" stroke="none" 
	d="
M277.000397,272.085571 
	C247.342407,271.755157 218.221191,274.040070 189.058060,273.335999 
	C179.295013,273.100311 174.167770,265.600647 177.675308,256.589478 
	C179.837082,251.035751 184.700470,249.757629 189.862488,249.709091 
	C206.026810,249.557114 222.198669,249.374313 238.357697,249.697891 
	C259.506012,250.121384 280.638763,248.498138 301.790009,249.591675 
	C315.741150,250.312943 329.865509,250.218628 343.515656,252.930054 
	C366.160614,257.428162 388.947937,270.496338 393.598999,296.886017 
	C398.118622,322.529816 391.204865,348.011597 365.038727,362.529785 
	C357.277802,366.835938 349.065094,370.002014 340.902496,373.334503 
	C335.639648,375.483093 332.347412,378.972626 332.358643,384.950867 
	C332.404297,409.280060 313.077148,423.561462 296.581207,427.290955 
	C272.026550,432.842346 248.127533,419.406158 239.735840,395.534149 
	C237.396530,388.879486 235.384460,387.937042 228.501129,390.048218 
	C215.209595,394.124817 207.117340,403.493927 201.733292,415.828888 
	C192.222549,437.618164 197.425690,466.955109 214.231400,483.662598 
	C222.645844,492.027802 232.539169,497.867645 244.486298,500.049988 
	C252.485016,501.511047 259.277191,498.913239 265.749542,494.916321 
	C274.393585,489.578308 282.757874,483.781830 291.463013,478.549500 
	C303.466766,471.334534 316.337372,467.162964 330.573273,466.431915 
	C341.972565,465.846497 353.366974,463.924622 364.364868,460.479248 
	C380.273987,455.495270 389.988007,444.164581 395.511169,429.012482 
	C399.439117,418.236694 402.852936,407.265167 406.236450,396.300873 
	C413.896637,371.477692 428.143616,350.564789 444.248169,330.595123 
	C460.481354,310.466034 469.368378,287.389313 470.762177,261.398041 
	C471.403564,249.438095 476.141876,248.943130 485.985199,249.876801 
	C489.558380,250.215729 491.125488,253.172043 491.358826,256.716278 
	C492.188293,269.315033 489.636230,281.483612 486.816742,293.638794 
	C482.042847,314.219543 471.656738,331.878784 458.695740,348.231750 
	C444.228455,366.485260 431.698792,385.790833 424.984436,408.431519 
	C421.961884,418.623535 419.500153,429.012878 415.201660,438.805206 
	C403.119293,466.329834 382.652283,482.695282 352.459778,486.476501 
	C342.561981,487.716095 332.573975,487.797119 322.714630,489.694458 
	C306.400024,492.834015 293.701630,502.727661 280.460266,511.552002 
	C269.541351,518.828552 258.208435,525.052002 244.726837,523.016907 
	C214.572510,518.464844 192.579376,502.729065 181.788971,473.564636 
	C172.420258,448.242889 173.156952,422.848358 184.812698,398.412903 
	C193.089569,381.061035 208.042801,371.354248 226.325668,366.771667 
	C234.463562,364.731934 240.940872,361.148895 245.460556,353.719177 
	C262.364441,325.931580 301.727264,323.620544 322.491364,347.736908 
	C325.998352,351.810089 329.582062,353.352661 334.668365,351.468079 
	C345.462524,347.468628 356.475555,343.722748 364.315247,334.702545 
	C377.096893,319.996277 378.061340,292.049438 353.326904,280.438416 
	C345.565582,276.795044 337.407379,275.130371 328.846039,274.198212 
	C311.751892,272.337036 294.637573,272.205872 277.000397,272.085571 
M260.853546,375.419739 
	C259.101959,386.505035 264.325043,396.398224 274.439240,401.152893 
	C284.521667,405.892578 297.556610,403.692719 304.421539,396.092896 
	C310.315460,389.567963 311.567749,377.935638 307.299988,369.355408 
	C302.554779,359.815216 292.429230,354.889618 280.430206,356.284485 
	C270.952881,357.386261 263.669342,364.305328 260.853546,375.419739 
z"/>
</svg>