<svg version="1.1" id="Layer_1" xmlns="http://www.w3.org/2000/svg" xmlns:xlink="http://www.w3.org/1999/xlink" x="0px" y="0px"
	 width="100%" viewBox="0 0 1024 1024" enable-background="new 0 0 1024 1024" xml:space="preserve">
<path fill="#000000" opacity="1.000000" stroke="none" 
	d="
M491.999878,887.325806 
	C433.000092,887.326111 374.497437,887.007812 316.002472,887.538086 
	C300.283936,887.680603 292.268829,877.621887 293.016815,863.905273 
	C293.870758,848.246094 293.297424,832.621277 293.344086,816.983582 
	C293.496185,766.005127 293.575409,715.026306 293.597412,664.047668 
	C293.642151,560.383118 293.616638,456.718597 293.687805,353.054077 
	C293.691223,348.080231 292.550018,343.158936 293.569000,338.120544 
	C294.757629,332.243500 298.644928,327.515411 304.605316,326.785645 
	C309.637451,326.169525 310.730713,323.613708 310.718933,319.057312 
	C310.607178,275.891235 310.666321,232.724731 310.644135,189.558350 
	C310.640869,183.212128 310.955933,176.888794 312.742096,170.784561 
	C315.980896,159.715851 322.852814,154.618607 334.401611,154.601715 
	C362.545135,154.560547 390.688873,154.646011 418.832275,154.567841 
	C449.448669,154.482803 480.064575,154.193207 510.680969,154.146606 
	C525.832764,154.123535 540.985229,154.439728 556.137207,154.614822 
	C562.727844,154.690994 564.954224,156.597122 565.317505,162.412323 
	C565.750977,169.353302 562.727722,173.725861 556.701416,174.182983 
	C552.059875,174.535095 547.374695,174.340073 542.708923,174.339783 
	C475.376282,174.335617 408.043671,174.320938 340.711029,174.315552 
	C331.890045,174.314850 330.378082,175.924469 330.267731,184.828751 
	C330.009644,205.649109 328.984589,226.487991 329.563934,247.283340 
	C330.236877,271.436981 330.243805,295.572662 330.016083,319.718323 
	C329.971008,324.493927 331.953827,326.234619 336.602295,326.138916 
	C342.070984,326.026306 347.521393,326.897217 353.035492,326.226410 
	C356.668915,325.784393 358.595123,324.152466 358.601288,320.550140 
	C358.636047,300.217255 358.629456,279.884216 358.602875,259.551331 
	C358.599182,256.730652 357.013855,254.462067 355.457214,252.328033 
	C346.049561,239.430786 346.909454,224.569748 347.988068,209.989746 
	C348.652802,201.003738 361.642303,193.966217 371.415771,196.087524 
	C385.763855,199.201736 391.747345,207.445221 390.855499,222.288788 
	C390.135559,234.270737 388.250000,245.774460 380.283264,255.423325 
	C378.642853,257.410126 378.232880,259.863831 378.241333,262.468994 
	C378.303375,281.635284 378.256775,300.801941 378.310913,319.968262 
	C378.326691,325.552612 379.418671,326.580627 385.135010,326.627045 
	C392.800964,326.689270 400.469910,326.539948 408.133392,326.692291 
	C412.806915,326.785217 414.716278,324.816925 414.695862,320.116699 
	C414.609619,300.284515 414.696167,280.451447 414.754303,260.618805 
	C414.766296,256.524506 412.662476,253.278229 410.548676,250.113007 
	C402.756073,238.444214 402.104431,225.353134 403.693604,212.185287 
	C405.010406,201.274887 416.079041,194.296448 426.985779,196.339310 
	C442.261292,199.200470 447.269440,205.357712 447.385223,220.793076 
	C447.477844,233.142380 444.861389,244.581451 437.262482,254.577896 
	C435.064697,257.469147 434.179199,260.660675 434.206909,264.352997 
	C434.343262,282.518433 434.274292,300.685333 434.320892,318.851562 
	C434.338318,325.640259 435.093048,326.252838 441.842651,326.092804 
	C449.001434,325.923096 456.165802,325.736267 463.322998,325.850677 
	C467.308807,325.914398 469.367615,324.736450 470.028168,320.430206 
	C470.897217,314.764374 470.636322,309.123749 470.674255,303.479797 
	C470.764740,290.012939 470.665649,276.539520 471.622162,263.101532 
	C472.044250,257.171936 468.276581,253.071167 465.701019,248.598907 
	C459.406860,237.669571 458.278259,225.910309 459.653961,213.883438 
	C460.844849,203.472092 469.306335,196.697205 479.663635,196.663284 
	C492.480896,196.621338 500.971436,202.567398 502.427673,213.736008 
	C504.256775,227.764267 502.673462,241.423370 494.058075,253.277679 
	C490.759125,257.816833 490.353912,262.438660 490.536865,267.813416 
	C491.109070,284.625854 491.125763,301.457886 491.301758,318.282867 
	C491.379852,325.749451 492.632965,326.719452 500.230591,326.277252 
	C507.035614,325.881104 513.872559,325.908539 520.693787,325.960815 
	C524.992554,325.993774 526.675293,323.972382 526.669556,319.854736 
	C526.642090,300.021820 526.666077,280.188782 526.724487,260.355927 
	C526.734924,256.795166 525.049377,253.911545 523.194824,251.173477 
	C516.033936,240.601135 514.167419,228.760757 514.756836,216.370316 
	C515.250977,205.983902 522.868652,197.446686 531.975891,196.691605 
	C545.596619,195.562286 555.772766,201.012833 557.813843,211.833496 
	C560.071228,223.800339 559.663086,236.257202 553.009888,246.678955 
	C547.346313,255.550507 545.890320,264.446289 546.203369,274.486877 
	C546.660217,289.139740 546.316345,303.816589 546.393005,318.482788 
	C546.428528,325.281616 547.850952,326.610779 554.673462,326.622498 
	C566.662903,326.643066 578.652405,326.670227 590.641724,326.635498 
	C596.358093,326.618927 597.628723,325.312744 597.641785,319.484589 
	C597.673218,305.484711 597.498047,291.482056 597.739319,277.486267 
	C597.814819,273.105042 596.233154,270.348389 592.668762,268.035736 
	C572.936523,255.232956 564.741699,236.590408 565.769958,213.560883 
	C566.383301,199.822693 572.097473,187.860260 579.466553,176.546463 
	C587.253296,164.591370 592.019348,151.631042 592.272156,137.205811 
	C592.295410,135.880524 592.521118,134.555557 592.700134,133.236877 
	C593.212830,129.459732 595.292480,126.616692 598.688354,125.210121 
	C601.829834,123.908913 604.546143,125.754990 606.787903,127.823578 
	C614.703369,135.127335 620.371216,144.223221 626.348145,153.027618 
	C638.027039,170.231186 648.149475,188.318039 650.735229,209.316849 
	C653.101440,228.532242 651.017273,247.000320 636.311951,261.723541 
	C632.753174,265.286682 628.629089,268.157135 624.066223,270.253357 
	C620.292664,271.986938 618.525940,274.678162 618.436462,278.798218 
	C618.132874,292.776123 617.809204,306.754883 617.299561,320.726257 
	C617.146240,324.928436 619.181946,326.543579 622.923645,326.566589 
	C632.922363,326.628113 642.922424,326.644958 652.920532,326.542236 
	C657.035583,326.500000 658.710388,324.167236 658.686768,320.059113 
	C658.593933,303.894379 658.607727,287.728485 658.685852,271.563507 
	C658.723083,263.857727 662.989929,259.745697 669.636108,260.719635 
	C674.213928,261.390442 677.231201,265.632050 677.302917,272.068970 
	C677.431030,283.567322 677.370850,295.067719 677.393982,306.567261 
	C677.397339,308.233704 677.380737,309.901978 677.450989,311.566132 
	C677.673340,316.835419 679.072876,317.747711 683.989685,315.881134 
	C696.656128,311.072540 696.652222,311.072571 696.653381,297.698456 
	C696.654541,283.698517 696.620056,269.698334 696.690918,255.698700 
	C696.721008,249.763580 699.859253,246.080246 704.926331,245.674347 
	C710.221863,245.250168 713.635193,248.045364 714.818665,254.008499 
	C715.203735,255.948746 715.274231,257.974823 715.283020,259.962555 
	C715.337341,272.295441 715.462402,284.630646 715.268494,296.960419 
	C715.211121,300.609985 716.447632,302.307281 719.931274,303.332092 
	C727.902832,305.677094 731.263489,310.483398 731.394653,318.694977 
	C732.583984,393.149200 731.882019,467.608551 732.008484,542.065613 
	C732.046692,564.558350 732.109009,587.051025 732.096069,609.543762 
	C732.071594,651.998596 731.982361,694.453491 731.956604,736.908325 
	C731.943542,758.405273 732.304443,779.907654 731.913086,801.396912 
	C731.725098,811.715576 731.049927,822.049438 731.448120,832.357788 
	C731.735046,839.782166 728.850098,845.213928 723.272095,849.596680 
	C708.859253,860.921143 693.965149,871.594482 678.841309,881.934265 
	C673.418213,885.641785 667.302673,887.430664 660.489929,887.414124 
	C604.493530,887.278259 548.496643,887.330566 491.999878,887.325806 
M380.501495,345.272491 
	C360.838470,345.267487 341.175446,345.250916 321.512421,345.262939 
	C313.103577,345.268097 312.276703,346.130463 312.276031,354.352966 
	C312.262024,522.665222 312.245026,690.977478 312.217621,859.289734 
	C312.216400,866.966797 313.837891,868.658325 321.589508,868.657898 
	C403.730072,868.653320 485.870605,868.641357 568.011169,868.631836 
	C595.507019,868.628662 623.002808,868.622070 650.498657,868.627014 
	C659.109985,868.628601 660.904419,866.980042 660.912048,858.546082 
	C660.945007,822.054688 660.959656,785.563232 660.928528,749.071838 
	C660.871277,682.082397 660.752930,615.092896 660.705078,548.103455 
	C660.658813,483.446198 660.672852,418.788879 660.649719,354.131592 
	C660.647095,346.851349 659.272156,345.293945 652.456543,345.292053 
	C562.138306,345.267029 471.820099,345.274353 380.501495,345.272491 
M679.357178,741.499939 
	C679.058167,777.488647 679.740173,813.469116 680.281128,849.450684 
	C680.307678,851.219788 679.764282,853.353027 681.757629,854.416626 
	C683.875427,855.546692 685.589966,854.153931 687.200867,852.959167 
	C693.352478,848.396667 699.495789,843.822754 705.616943,839.219543 
	C710.517944,835.533997 712.529724,830.391663 712.718872,824.459656 
	C713.079529,813.146118 713.511963,801.830933 713.603699,790.513916 
	C713.694092,779.366882 713.053162,768.208557 713.022583,757.076294 
	C712.794006,673.751404 712.841980,590.425476 712.939941,507.099976 
	C713.009766,447.661346 713.294373,388.222992 713.472168,328.784485 
	C713.485107,324.467407 711.949097,323.403351 707.863098,325.251434 
	C701.493469,328.132538 695.383606,331.638458 688.890930,334.183807 
	C681.628418,337.031006 679.188049,341.703949 679.200562,349.515015 
	C679.410156,479.843048 679.353821,610.171509 679.357178,741.499939 
M634.649170,212.897415 
	C632.345093,192.223297 619.495422,176.544556 610.347412,159.389496 
	C608.245300,159.762329 607.640381,160.603256 607.389709,161.575409 
	C604.116150,174.273972 596.225647,184.546829 589.616699,195.490479 
	C583.601807,205.450439 581.716125,216.251358 583.504944,227.620850 
	C584.170105,231.848450 584.924561,236.397552 589.417542,239.445526 
	C590.717163,237.070465 591.283142,235.070099 591.755310,232.953369 
	C593.285217,226.094559 595.459473,219.475723 599.707825,213.723221 
	C604.794617,206.835480 611.468445,206.675430 616.467773,213.641266 
	C620.482605,219.235428 622.910400,225.579330 624.419128,232.342590 
	C625.145508,235.598618 624.475952,239.385666 627.501221,242.353745 
	C631.278625,240.330505 632.732422,236.894135 633.651917,233.194382 
	C635.236511,226.817856 634.855652,220.309235 634.649170,212.897415 
z"/>
<path fill="#000000" opacity="1.000000" stroke="none" 
	d="
M667.428101,182.438232 
	C658.221558,167.331818 663.404236,148.978790 679.240967,139.744278 
	C684.016724,136.959457 689.208801,135.129471 694.580017,133.933044 
	C699.492920,132.838745 703.706787,135.118271 705.098999,139.274536 
	C706.658386,143.930038 704.930298,148.190460 700.260742,150.500473 
	C697.288879,151.970627 694.077026,152.950241 691.078918,154.373459 
	C679.061035,160.078400 677.051819,171.099960 686.321899,180.441208 
	C689.373718,183.516495 692.410095,186.595200 694.902344,190.149506 
	C701.730042,199.887054 702.535034,210.310577 697.289856,220.800507 
	C691.743774,231.892136 681.717224,236.810165 669.895752,238.207001 
	C665.189514,238.763107 661.315063,235.685547 660.469238,231.718796 
	C659.420593,226.801270 662.267334,224.312851 666.325256,222.649460 
	C668.477600,221.767166 670.645142,220.920609 672.783875,220.006439 
	C683.041992,215.621689 685.621765,206.351669 678.972046,197.318878 
	C675.324280,192.363922 671.427429,187.592361 667.428101,182.438232 
z"/>
<path fill="#000000" opacity="1.000000" stroke="none" 
	d="
M461.000031,840.048462 
	C424.840546,840.043213 389.181122,840.041138 353.521698,840.040039 
	C349.833649,840.039917 346.141479,839.922180 342.944794,837.782166 
	C338.826355,835.025085 337.569977,831.098938 337.580139,826.172363 
	C337.693512,771.343750 337.650635,716.514832 337.650177,661.686035 
	C337.649414,571.027039 337.765015,480.367706 337.510223,389.709442 
	C337.475952,377.533173 344.784515,373.917114 353.450073,373.958618 
	C367.768402,374.027222 382.101074,374.339111 396.399933,374.210602 
	C426.379211,373.941284 456.358185,373.898865 486.336823,373.811554 
	C527.319763,373.692200 568.303345,373.803497 609.286316,373.692261 
	C613.983704,373.679504 618.595093,374.235687 623.202515,374.806976 
	C629.897400,375.637054 633.340454,380.033386 633.342957,387.392609 
	C633.365417,452.220062 633.354797,517.047485 633.358704,581.874939 
	C633.363525,662.367126 633.373047,742.859375 633.380249,823.351562 
	C633.381409,836.551880 629.632202,840.152161 616.464111,840.134277 
	C564.809509,840.064209 513.154785,840.072632 461.000031,840.048462 
M614.682495,454.500061 
	C614.683167,436.675079 614.703918,418.850098 614.675720,401.025146 
	C614.662842,392.869049 614.120972,392.376099 605.787842,392.375549 
	C525.985413,392.370300 446.182983,392.367584 366.380554,392.365753 
	C356.428955,392.365540 356.266937,392.572662 356.269440,402.380890 
	C356.294067,498.342377 356.306152,594.303833 356.311981,690.265320 
	C356.312469,698.701660 357.221405,699.632080 365.814453,699.632446 
	C445.783325,699.635559 525.752197,699.638611 605.721069,699.639954 
	C614.028137,699.640076 614.709534,698.934082 614.708618,690.408997 
	C614.700256,612.106018 614.692139,533.803040 614.682495,454.500061 
M384.499756,821.673523 
	C458.118256,821.673584 531.736755,821.676819 605.355225,821.669067 
	C613.404480,821.668213 614.642212,820.432983 614.650696,812.417969 
	C614.680847,783.936768 614.690918,755.455627 614.710266,726.974426 
	C614.715881,718.746704 614.148193,718.141479 605.958496,718.141968 
	C569.816772,718.144165 533.674988,718.186890 497.533234,718.172974 
	C452.898041,718.155884 408.262817,718.092163 363.627625,718.062256 
	C357.302673,718.057983 356.343140,719.010742 356.339325,725.256592 
	C356.321411,754.737183 356.314880,784.217773 356.319916,813.698364 
	C356.321106,820.707458 357.294067,821.645874 364.512238,821.673584 
	C370.841309,821.697876 377.170563,821.675598 384.499756,821.673523 
z"/>
<path fill="#000000" opacity="1.000000" stroke="none" 
	d="
M400.674011,572.933960 
	C408.581848,550.580383 422.430267,532.610840 438.183868,515.869080 
	C443.428925,510.295044 448.482208,504.532471 453.460297,498.716705 
	C469.102356,480.442596 472.571625,459.474945 467.005249,436.552643 
	C466.260162,433.484436 465.438110,430.418701 464.970337,427.303955 
	C464.505859,424.211456 463.760254,420.740356 467.007782,418.634949 
	C470.426117,416.418762 473.780823,417.683868 476.737854,419.852722 
	C479.553192,421.917633 482.280823,424.126434 484.879425,426.458679 
	C501.785522,441.631958 516.451416,458.383636 524.034058,480.401764 
	C529.502075,496.279510 528.718933,512.513916 527.741577,528.815674 
	C527.536682,532.233765 525.915771,536.529541 529.924133,538.196899 
	C533.888245,539.845886 536.010315,535.837708 538.138855,533.166931 
	C541.767822,528.613464 543.045166,523.029785 544.604675,517.595581 
	C545.430359,514.718384 545.962952,511.751831 546.885010,508.908997 
	C547.798340,506.093018 549.450806,503.900085 552.760681,503.507599 
	C555.990845,503.124603 557.676575,505.089569 559.085327,507.467163 
	C565.883362,518.940002 569.372986,531.667603 572.054199,544.504883 
	C575.698181,561.951965 577.779114,579.642944 575.319214,597.513611 
	C570.877441,629.781250 556.581360,655.600647 526.406189,670.548035 
	C511.380859,677.990906 495.139740,679.675842 478.690643,678.033875 
	C458.276154,675.996094 439.488495,669.330017 423.156006,656.461304 
	C400.531158,638.634521 392.930054,615.218872 397.129547,587.333191 
	C397.848541,582.558838 398.933411,577.867493 400.674011,572.933960 
M487.518494,663.636292 
	C499.923645,663.398560 510.274170,658.901184 517.428406,648.496094 
	C528.060425,633.032959 526.752502,615.701477 524.273438,598.465088 
	C523.453552,592.764465 520.190491,592.147278 515.271118,595.635010 
	C509.683685,599.596375 506.580200,599.094666 502.771545,593.536804 
	C501.163696,591.190369 499.935394,588.641174 499.226990,585.871704 
	C496.781982,576.313354 495.754486,566.648682 496.248444,556.747864 
	C496.745270,546.789490 498.156982,536.864197 497.594421,526.863342 
	C497.472107,524.688660 497.080811,522.336426 494.694580,521.513550 
	C492.338409,520.700989 490.916626,522.533813 489.888519,524.231506 
	C477.912415,544.006958 465.074249,563.327942 457.345886,585.366394 
	C451.637543,601.644592 448.781891,618.170166 453.394684,635.236633 
	C457.992981,652.249451 470.753296,663.065735 487.518494,663.636292 
z"/>
<path fill="#000000" opacity="1.000000" stroke="none" 
	d="
M491.048370,551.993652 
	C491.471466,552.545959 491.675934,552.805969 491.874847,553.070251 
	C493.417877,555.120117 495.260986,557.912659 492.832581,559.605530 
	C490.097992,561.511841 488.830994,558.019531 487.385925,556.228882 
	C486.359833,554.957397 485.599121,553.468262 484.547638,552.221680 
	C483.235809,550.666504 482.408386,548.856628 483.979492,547.378906 
	C486.004944,545.473816 487.601135,547.379456 488.939606,548.800903 
	C489.718201,549.627686 490.207611,550.726746 491.048370,551.993652 
z"/>
</svg>