<svg version="1.1" id="Layer_1" xmlns="http://www.w3.org/2000/svg" xmlns:xlink="http://www.w3.org/1999/xlink" x="0px" y="0px"
	 width="100%" viewBox="0 0 1024 1024" enable-background="new 0 0 1024 1024" xml:space="preserve">
<path fill="#000000" opacity="1.000000" stroke="none" 
	d="
M713.410889,628.586670 
	C693.721191,616.285156 650.326660,616.140930 631.013367,634.519409 
	C617.607117,647.276672 609.684631,662.829346 604.419434,680.126465 
	C602.965881,684.901550 601.711304,689.744629 600.067444,694.452515 
	C598.000061,700.373169 593.560730,703.637939 587.389038,704.247742 
	C582.091125,704.771301 576.756104,705.185242 571.437073,705.190186 
	C502.604645,705.254272 433.772064,705.232910 364.939545,705.243896 
	C356.910370,705.245239 356.530914,705.250854 356.026825,713.080322 
	C354.889557,730.744751 348.077362,745.531494 334.891632,757.378723 
	C333.663116,758.482483 332.650269,759.835205 331.602234,761.125183 
	C331.312714,761.481506 331.257690,762.028320 331.078278,762.535339 
	C332.565826,764.611206 334.748840,763.836182 336.587524,763.839111 
	C411.248810,763.959656 485.910126,764.039185 560.571472,764.093262 
	C584.035767,764.110229 607.500061,764.056396 630.964172,763.981750 
	C632.869995,763.975708 635.441589,764.756531 636.379517,762.533020 
	C637.457214,759.978149 634.784363,758.777100 633.321594,757.374023 
	C606.952881,732.080750 603.986084,695.232544 626.632935,666.740967 
	C637.825500,652.659851 652.968750,645.165039 670.963318,643.600342 
	C688.913574,642.039673 705.196350,646.252625 718.353882,658.876465 
	C732.563538,672.509705 741.823181,689.134338 741.075806,709.254272 
	C740.370056,728.252075 733.728210,745.355408 719.179932,758.592773 
	C717.993469,759.672302 716.383545,760.485046 715.996033,762.616699 
	C717.889709,764.685486 720.538513,763.967102 722.842590,763.973755 
	C747.670837,764.045410 772.499329,764.001953 797.327759,764.013306 
	C810.299622,764.019226 823.267273,764.514343 836.244934,763.903198 
	C843.367920,763.567749 847.998779,767.021179 847.997314,771.978821 
	C847.995667,777.529236 843.246826,781.370728 836.118896,781.373047 
	C753.287720,781.399963 670.456543,781.400024 587.625366,781.408325 
	C526.296082,781.414490 464.966766,781.425720 403.637451,781.428833 
	C333.334137,781.432373 263.030853,781.431091 192.727539,781.428040 
	C178.401978,781.427429 164.076385,781.426697 149.750885,781.391418 
	C143.253113,781.375427 139.274582,778.077026 139.207855,772.760376 
	C139.143295,767.616821 142.753357,763.822998 149.219574,763.980835 
	C161.205597,764.273499 173.175797,764.110901 185.155869,764.015259 
	C205.985855,763.848938 226.817398,763.882629 247.647980,763.775757 
	C249.557602,763.765991 252.131622,764.544495 253.080536,762.337158 
	C254.222031,759.681702 251.398392,758.710815 249.892960,757.365356 
	C238.542053,747.220886 232.772400,734.248901 230.701981,719.448181 
	C230.104248,715.175232 229.903381,710.840759 229.655670,706.526733 
	C229.474609,703.373230 228.443558,701.772095 224.959137,703.003357 
	C218.899277,705.144592 212.594666,705.363647 206.229874,705.338440 
	C185.730728,705.257263 165.231049,705.319397 144.731628,705.292114 
	C129.075241,705.271301 120.378929,698.204590 118.108856,682.740173 
	C116.685120,673.041260 117.558594,663.479919 123.552071,655.018860 
	C125.281166,652.577881 127.360474,650.615173 130.118057,649.939758 
	C134.096405,648.965393 134.771500,646.495911 134.762390,642.920166 
	C134.676285,609.088013 134.873947,575.254456 134.653397,541.423462 
	C134.313583,489.295410 141.736893,438.383209 157.738876,388.743256 
	C158.294312,387.020203 158.969727,385.110046 158.742599,383.399506 
	C157.740372,375.851318 161.454437,370.300385 165.928162,364.944031 
	C180.120255,347.951965 199.079742,340.491882 220.354309,337.649597 
	C241.196823,334.865051 262.190399,335.143433 283.141113,334.697021 
	C303.628571,334.260498 324.121643,334.058807 344.613373,333.880463 
	C348.710968,333.844788 350.656830,332.483093 350.770874,328.081665 
	C351.082367,316.061035 351.218628,316.084412 339.356628,315.993774 
	C310.530579,315.773499 281.703918,315.596466 252.879272,315.254822 
	C245.900787,315.172150 238.913208,314.587860 232.178894,312.484192 
	C223.790039,309.863678 220.252609,305.128357 220.673126,297.232849 
	C221.044678,290.256866 225.261017,285.736786 233.407623,284.019623 
	C242.859558,282.027283 252.478485,281.126556 262.102356,280.729797 
	C274.096222,280.235352 276.495026,276.299469 270.984894,265.491364 
	C267.510010,258.675446 262.272858,253.349335 256.852325,248.144348 
	C255.652634,246.992371 254.369278,245.889969 253.362061,244.581787 
	C249.514069,239.583939 251.157990,234.286255 257.148834,232.532944 
	C265.042603,230.222763 272.653503,232.456863 280.223572,234.353378 
	C298.174072,238.850494 310.286560,251.056503 320.085510,265.752350 
	C323.544098,270.939331 327.058746,273.244232 333.369965,272.762268 
	C367.754547,270.136505 402.244598,269.871124 436.694702,269.137665 
	C473.511749,268.353821 510.359924,268.403046 547.185364,268.846375 
	C574.811951,269.178955 602.482849,269.908691 630.026611,271.927612 
	C659.317810,274.074585 688.723511,276.331024 717.158813,284.711182 
	C721.800232,286.079071 726.363159,287.627045 730.535889,290.148071 
	C736.812866,293.940430 740.016663,299.192474 738.768860,303.674957 
	C737.067078,309.788208 731.046021,313.905670 724.041016,314.415527 
	C701.741943,316.038574 679.417175,315.041168 657.106079,315.291504 
	C642.941162,315.450439 628.773315,315.340851 614.606873,315.379669 
	C607.448608,315.399292 606.389893,316.444366 606.296021,323.356506 
	C606.152832,333.892395 606.153931,333.771729 616.938354,333.864502 
	C643.094543,334.089508 669.258911,334.110779 695.402161,334.848053 
	C713.831116,335.367767 732.342468,336.181244 750.181763,341.647186 
	C759.459412,344.489868 768.320312,348.477631 776.133972,354.263947 
	C784.548218,360.495148 790.659546,368.400635 791.429321,379.419464 
	C791.586060,381.662109 792.817688,383.449188 793.924988,385.325348 
	C814.338074,419.912720 833.449463,455.205444 850.075928,491.772980 
	C857.775940,508.708008 862.021240,526.653748 862.342957,545.386230 
	C862.398621,548.631714 862.926208,551.909363 865.223267,554.212036 
	C870.988586,559.991272 873.231995,567.251160 873.964844,574.946167 
	C874.930115,585.081543 875.010193,595.256775 871.068970,604.974426 
	C870.693970,605.899231 870.451843,607.007996 869.786377,607.665222 
	C861.218384,616.126282 862.646973,627.191162 862.050964,637.651611 
	C861.748535,642.958801 862.273132,648.309143 862.304016,653.640625 
	C862.327271,657.651001 864.048706,660.603088 867.932251,661.470642 
	C876.789001,663.448853 880.700623,670.663574 880.291870,680.014099 
	C880.059753,685.324646 880.674011,690.665649 879.342224,695.931946 
	C877.585571,702.877808 872.221313,708.328430 865.316589,709.175842 
	C850.705139,710.968933 835.847351,711.567993 821.511536,708.759338 
	C810.539978,706.609863 799.755066,706.515076 788.819336,706.376404 
	C782.487183,706.296143 776.152771,706.412537 769.819824,706.369934 
	C759.838440,706.302734 753.515747,701.886780 750.443726,692.284302 
	C748.217957,685.327271 746.797363,678.113220 744.584106,671.151611 
	C739.015747,653.636902 729.126221,639.173950 713.410889,628.586670 
M152.332901,538.501282 
	C151.381699,565.971863 151.164017,593.451050 151.344238,620.935364 
	C151.379196,626.267212 151.337448,631.599548 151.353058,636.931580 
	C151.377258,645.194092 152.771011,646.617249 160.820877,646.654480 
	C163.153625,646.665283 165.489044,646.603455 167.818680,646.693237 
	C180.639938,647.187500 187.320557,654.145874 187.350067,666.990723 
	C187.355804,669.490112 187.349319,671.989563 187.348862,674.488953 
	C187.346100,689.740540 188.318680,690.607422 203.573593,689.640564 
	C209.058609,689.292969 212.960205,686.923279 215.359711,681.863098 
	C217.282608,677.807922 219.387558,673.812561 221.742554,669.994751 
	C225.611465,663.722778 231.232971,660.449402 238.794312,660.627502 
	C246.951904,660.819702 255.099945,660.854736 263.258392,661.429382 
	C269.864258,661.894653 276.524200,661.936218 283.190277,661.095764 
	C296.015747,659.478760 307.664001,654.982056 318.361023,647.849670 
	C322.912567,644.814819 327.690063,644.226624 333.118073,645.253784 
	C340.021332,646.560364 345.443573,649.955505 350.200836,654.852600 
	C353.923523,658.684692 357.347687,662.755920 360.438354,667.106445 
	C365.158264,673.750244 371.637970,676.689941 379.711456,676.685242 
	C442.030090,676.648743 504.348724,676.674805 566.667358,676.641174 
	C576.056885,676.636108 578.593628,674.070618 578.616211,664.780457 
	C578.739136,614.133728 578.856934,563.488220 579.534973,512.843628 
	C580.047913,474.527130 578.080200,436.221405 578.631714,397.897675 
	C578.765747,388.586517 576.486877,386.296417 567.271973,386.284210 
	C503.289246,386.199310 439.306427,386.150513 375.323669,386.122406 
	C366.061340,386.118347 364.351379,387.887360 364.337433,397.311981 
	C364.284607,432.969208 364.277618,468.626495 364.232635,504.283752 
	C364.220306,514.044617 361.754852,516.463989 352.238586,516.451965 
	C326.578064,516.419434 300.917480,516.448975 275.256958,516.416382 
	C249.130371,516.383240 223.007980,517.247559 196.875885,516.524841 
	C184.559357,516.184204 172.226028,516.364441 159.901260,516.448486 
	C154.282394,516.486755 152.447815,518.437500 152.357483,524.005676 
	C152.284531,528.503479 152.337433,533.003296 152.332901,538.501282 
M417.499512,351.305237 
	C396.687347,351.585327 375.910492,350.170013 355.065399,350.752838 
	C325.256104,351.586304 295.413025,351.266876 265.584137,351.323334 
	C251.415421,351.350128 237.303452,351.937164 223.319580,354.372772 
	C212.960205,356.177094 202.676666,358.246552 193.703033,364.219208 
	C191.535156,365.662109 189.164139,366.997650 189.078033,370.095551 
	C191.767471,372.149750 194.683685,371.596680 197.460831,371.597168 
	C325.447632,371.620148 453.434448,371.620911 581.421265,371.631958 
	C591.306641,371.632812 593.289978,373.694336 593.347778,383.716797 
	C593.743591,452.362518 592.573547,521.012756 594.104248,589.656738 
	C594.527649,608.644897 594.187378,627.649719 594.267578,646.646545 
	C594.275513,648.525391 593.576904,650.702087 595.767822,652.320251 
	C598.791321,651.797485 599.546814,648.987244 600.908936,646.844849 
	C606.919861,637.390625 613.461365,628.381958 622.319031,621.329041 
	C641.694275,605.901550 663.654358,601.367249 688.008423,604.480835 
	C718.309814,608.354736 740.485901,623.121887 754.055847,650.575623 
	C757.448730,657.439880 760.532227,664.464478 764.124023,671.220703 
	C767.100647,676.820007 770.033020,677.483887 777.255493,675.674194 
	C782.304871,674.409058 781.659912,670.562317 781.661072,666.925720 
	C781.676331,620.117065 781.745972,573.308228 780.693848,526.506470 
	C780.495789,517.697632 779.336365,516.413391 770.552002,516.411133 
	C720.890686,516.398499 671.229309,516.406555 621.567993,516.378662 
	C611.892883,516.373230 608.666382,513.106995 608.663452,503.498291 
	C608.654785,475.001251 608.655457,446.504181 608.659607,418.007141 
	C608.661194,407.008301 608.526978,396.006470 608.738892,385.011475 
	C608.940857,374.529724 612.015930,371.640564 622.227417,371.637421 
	C667.556091,371.623352 712.884766,371.625549 758.213440,371.590393 
	C760.930542,371.588287 763.887817,372.163025 766.009521,369.535919 
	C765.108521,367.418793 763.339966,366.444916 761.586670,365.547821 
	C751.758057,360.519257 741.424438,356.611694 730.681335,354.364655 
	C714.988403,351.082336 698.937561,351.126312 682.968262,351.128082 
	C594.812012,351.137787 506.655792,351.236328 417.499512,351.305237 
M213.500061,386.208527 
	C205.835541,386.210236 198.171036,386.211304 190.506516,386.213776 
	C175.388931,386.218628 174.460007,387.062714 170.471069,401.609070 
	C162.318268,431.339722 157.350662,461.620514 154.457794,492.272583 
	C153.780685,499.447113 154.931229,500.661346 162.355652,500.661652 
	C215.341187,500.663971 268.326721,500.660431 321.312256,500.642578 
	C326.642151,500.640778 331.983429,500.732208 337.299286,500.428040 
	C346.758942,499.886749 347.917267,498.639191 347.989807,489.414246 
	C348.229401,458.941742 348.433350,428.468933 348.614899,397.996033 
	C348.675110,387.888275 346.278320,385.421661 335.927734,385.434479 
	C328.273712,385.443970 320.620789,386.049377 312.966370,386.074066 
	C280.144440,386.179932 247.322174,386.169067 213.500061,386.208527 
M717.499512,386.276245 
	C690.006287,386.207184 662.513794,385.703491 635.019592,386.305786 
	C625.324829,386.518188 623.054993,388.379669 623.410583,398.083923 
	C624.533813,428.734894 624.149353,459.391052 624.132324,490.047363 
	C624.128113,497.577789 627.130005,500.618073 634.736450,500.635773 
	C659.401062,500.693146 684.065918,500.660919 708.730652,500.659241 
	C725.487183,500.658081 725.493164,500.657043 730.724731,484.621460 
	C734.232117,473.870605 737.668335,463.096100 741.244812,452.368347 
	C742.449829,448.753876 744.976807,446.756104 748.938171,447.943909 
	C752.960327,449.149963 754.165527,452.278992 753.689453,456.166077 
	C753.529663,457.471069 753.039734,458.741486 752.647339,460.011200 
	C749.208130,471.138733 745.700012,482.245453 742.335938,493.395599 
	C740.918030,498.095093 742.004211,499.674774 746.862061,499.735901 
	C755.857361,499.849060 764.855835,499.681488 773.853027,499.676025 
	C777.546387,499.673767 779.018799,497.718018 778.596619,494.273651 
	C778.376770,492.480255 777.848145,490.698639 777.257935,488.980835 
	C770.932312,470.569519 764.534973,452.182800 758.221985,433.767181 
	C753.690186,420.547699 749.210266,407.309967 744.801025,394.049164 
	C742.962097,388.518524 739.260681,386.108917 733.496643,386.292999 
	C728.502686,386.452423 723.498718,386.294464 717.499512,386.276245 
M814.037537,664.653625 
	C817.093567,661.739929 820.727112,660.519836 824.945190,660.623230 
	C829.771057,660.741577 834.602600,660.662659 839.431274,660.617432 
	C843.311584,660.581055 846.063110,658.540649 846.426575,654.817200 
	C847.249451,646.387390 848.348206,637.916443 847.480896,629.431885 
	C847.057190,625.286804 845.938660,621.344543 841.937988,618.779907 
	C826.219971,608.704590 820.430237,593.857971 822.801147,575.909058 
	C824.388977,563.888794 828.845642,553.196167 842.406616,549.892151 
	C845.152771,549.223145 845.696350,547.560364 845.744568,545.179260 
	C845.874329,538.782227 844.200867,532.678223 842.795227,526.533752 
	C840.931458,518.386292 838.432007,516.414551 830.029968,516.390320 
	C822.037170,516.367310 814.044128,516.367065 806.051331,516.398682 
	C798.179810,516.429749 796.278992,518.230347 796.319031,526.057678 
	C796.542114,569.677246 796.817871,613.296387 797.089966,656.915649 
	C797.112854,660.578064 797.108643,664.248901 797.356201,667.899597 
	C797.647400,672.193665 802.141113,676.591248 806.217224,676.568176 
	C811.094055,676.540588 811.550415,672.963684 811.715332,669.267883 
	C811.785706,667.690735 812.529907,666.413513 814.037537,664.653625 
M517.500000,315.960052 
	C479.366669,315.937317 441.233276,315.940369 403.100037,315.871582 
	C394.782898,315.856567 386.466156,315.466156 378.149353,315.469910 
	C371.820007,315.472778 370.454071,316.962341 370.350922,323.045105 
	C370.169220,333.758759 370.169373,333.712585 381.113800,333.738129 
	C448.890808,333.896332 516.667725,334.073303 584.444580,334.280029 
	C585.659241,334.283722 586.959534,334.446350 587.618530,333.357971 
	C590.186768,329.116425 590.341858,324.404602 589.025879,319.877625 
	C587.937195,316.132294 584.508362,315.521912 580.909302,315.553619 
	C560.106628,315.736694 539.303223,315.833191 517.500000,315.960052 
M389.947479,287.490204 
	C385.291046,287.763519 380.637482,288.112976 375.977356,288.287994 
	C371.599091,288.452423 370.118164,290.954926 370.495117,294.886536 
	C370.971222,299.852783 374.227997,300.734406 378.637054,300.726959 
	C435.468719,300.631073 492.300629,300.657166 549.132446,300.646149 
	C560.298645,300.643982 571.464844,300.631439 582.630981,300.591034 
	C587.401978,300.573792 588.738708,297.825958 588.828369,293.426941 
	C588.919495,288.959656 586.745056,287.521027 582.802368,287.388947 
	C573.645630,287.082245 564.492065,286.473969 555.334839,286.424896 
	C500.514832,286.131195 445.692017,285.630524 389.947479,287.490204 
M780.800110,394.692200 
	C778.120239,388.994629 773.806763,385.964600 767.338806,386.389984 
	C761.481812,386.775208 760.014771,388.862152 761.985474,394.343933 
	C768.451904,412.331207 775.093262,430.256622 781.422180,448.291870 
	C786.262146,462.084351 790.743469,476.002899 795.358398,489.873993 
	C797.391052,495.983490 801.420715,499.951996 807.923401,500.359253 
	C814.721558,500.785004 821.566956,500.706940 828.381836,500.509155 
	C831.807190,500.409698 832.975220,497.974121 831.948425,494.875275 
	C831.011414,492.047272 829.773743,489.295502 828.434387,486.627716 
	C813.057373,455.998108 797.461609,425.481079 780.800110,394.692200 
M320.505646,707.879517 
	C320.259552,706.743774 319.958923,705.616699 319.775604,704.470886 
	C317.321991,689.135071 303.317413,679.694336 286.925323,682.340942 
	C274.859863,684.289001 264.397491,699.636597 266.501526,712.595154 
	C268.615295,725.613708 280.895416,738.279053 296.553070,736.719421 
	C309.538696,735.425964 320.432770,723.094177 320.505646,707.879517 
M677.411316,681.380615 
	C662.853821,681.970581 654.499390,689.848816 650.930054,706.352417 
	C647.963806,720.067383 660.332520,736.084656 674.329468,736.654419 
	C689.114441,737.256226 702.329163,726.541443 703.614929,712.909180 
	C705.122803,696.922180 694.261597,683.421631 677.411316,681.380615 
M673.584412,293.178345 
	C670.297546,292.713104 667.007080,292.271790 663.724426,291.778656 
	C646.421692,289.179291 628.953064,289.012604 611.528687,288.188416 
	C607.337402,287.990173 605.922607,290.068298 606.245728,294.042603 
	C606.627991,298.743835 609.694885,299.609406 613.549744,299.612061 
	C641.349426,299.631226 669.149048,299.665100 696.948730,299.655670 
	C698.625732,299.655090 700.567749,300.080322 701.947876,298.024658 
	C701.157349,297.551758 700.645874,297.018982 700.068848,296.934662 
	C691.539185,295.688690 683.000854,294.502289 673.584412,293.178345 
M157.294159,664.389526 
	C155.634720,664.390503 153.975266,664.390137 152.315826,664.392639 
	C137.121170,664.415100 135.801819,665.754517 136.171844,680.780884 
	C136.309174,686.357056 137.981049,688.359680 143.524277,688.571594 
	C149.820724,688.812256 156.141571,688.823486 162.436020,688.558899 
	C166.378540,688.393250 170.301041,687.195190 171.047256,682.539307 
	C173.125183,669.574219 170.119461,663.876770 157.294159,664.389526 
M280.793945,293.407135 
	C271.647552,294.831329 262.236053,294.545258 252.626938,297.009033 
	C254.761368,299.296661 256.723328,298.652069 258.445435,298.810333 
	C275.890778,300.413605 293.380798,299.385681 310.850281,299.598907 
	C322.503540,299.741150 334.160065,299.605316 345.814911,299.645538 
	C349.122437,299.656952 350.668152,298.233246 350.682892,294.833344 
	C350.697510,291.461761 349.666718,289.301910 345.911591,289.357513 
	C342.417053,289.409271 338.911377,289.297913 335.429810,289.537476 
	C317.524139,290.769562 299.624664,292.091644 280.793945,293.407135 
M856.713806,569.879456 
	C855.104553,566.475891 853.174500,562.918640 848.984436,563.013306 
	C844.675964,563.110657 842.999695,567.138794 841.822449,570.466187 
	C838.374451,580.210449 838.256897,589.994873 843.200439,599.401306 
	C844.689087,602.233887 846.679626,605.332703 850.058777,605.269409 
	C853.727600,605.200684 855.556824,601.899109 856.801697,598.706726 
	C860.442810,589.369080 860.937988,579.981995 856.713806,569.879456 
M844.500549,693.937500 
	C848.994873,693.877869 853.496948,693.963257 857.981445,693.721497 
	C863.459595,693.426208 864.821228,691.293640 864.718872,683.843750 
	C864.643005,678.319885 863.080017,676.500793 857.736084,676.421021 
	C849.246460,676.294189 840.753479,676.407471 832.262024,676.378296 
	C828.100464,676.364014 826.158081,678.469788 826.152954,682.531677 
	C826.150391,684.529053 826.107727,686.529175 826.195129,688.523193 
	C826.342529,691.885620 828.106567,693.781433 831.519409,693.858459 
	C835.513062,693.948608 839.509583,693.915588 844.500549,693.937500 
z"/>
<path fill="#000000" opacity="1.000000" stroke="none" 
	d="
M237.143646,610.450867 
	C236.347504,606.296753 235.735550,602.552490 235.496719,598.711060 
	C235.242401,594.620178 234.418900,590.753662 231.106339,587.440308 
	C226.233871,582.566711 228.220337,575.603394 234.870102,573.816895 
	C238.971634,572.714905 240.056931,569.389771 241.829239,566.530823 
	C248.304733,556.085144 256.471680,547.494141 268.109253,542.924194 
	C287.601440,535.269775 304.239868,541.310242 319.224457,554.212036 
	C323.013855,557.474731 326.284546,561.286011 328.794708,565.670349 
	C330.422241,568.512939 332.375549,570.369507 336.016693,570.996948 
	C341.457611,571.934570 344.950623,578.642029 341.469940,582.513733 
	C335.746124,588.880737 336.332458,596.318420 335.554626,603.561401 
	C333.378632,623.823853 321.760162,636.728882 303.662720,644.044861 
	C278.544281,654.198914 246.125839,643.997131 237.143646,610.450867 
M302.899475,606.055176 
	C296.972076,603.160767 292.699738,598.777283 290.302368,592.538513 
	C289.393097,590.172363 288.871338,587.036560 285.260193,587.259460 
	C282.020050,587.459412 281.649597,590.324646 280.852692,592.616638 
	C276.536560,605.030823 271.059784,608.826294 258.284515,608.302673 
	C256.235626,608.218689 253.653564,607.050171 252.316132,609.409973 
	C250.991806,611.746704 252.759995,613.882141 253.850235,615.873840 
	C260.673950,628.339783 271.493774,634.134460 285.435699,633.935425 
	C299.853485,633.729675 311.679260,628.418762 318.873566,615.152405 
	C321.592834,610.138123 320.144836,607.669495 314.486328,607.497375 
	C310.845062,607.386658 307.144775,607.823792 302.899475,606.055176 
M303.116241,558.330078 
	C300.686157,557.246887 298.309479,556.017883 295.817108,555.104675 
	C282.483459,550.219421 266.644653,554.682861 258.473816,565.564697 
	C257.283020,567.150513 255.649841,568.792053 256.659821,570.922791 
	C257.697266,573.111511 260.032166,572.711853 261.990936,572.711731 
	C276.649292,572.710754 291.307739,572.687683 305.965942,572.622314 
	C307.448578,572.615723 308.954620,572.396545 310.406799,572.079102 
	C314.212799,571.247070 314.515778,569.119446 312.256897,566.349854 
	C309.824829,563.367920 307.050354,560.732666 303.116241,558.330078 
z"/>
<path fill="#000000" opacity="1.000000" stroke="none" 
	d="
M473.954651,600.818665 
	C467.655426,608.936035 459.471405,612.191040 449.764099,612.208008 
	C433.286102,612.236877 416.808167,612.336365 400.330200,612.336914 
	C383.599121,612.337463 376.703369,606.916321 372.414795,590.550232 
	C365.657349,564.762207 378.726807,534.297119 401.532074,524.161987 
	C438.997253,507.511719 472.805298,531.376404 479.268127,564.975891 
	C481.630005,577.255127 481.633362,589.507080 473.954651,600.818665 
M456.201965,573.605408 
	C459.692139,573.102661 464.776337,574.679382 466.109589,570.982544 
	C467.592255,566.871277 462.790222,564.494934 459.853363,562.373657 
	C452.423645,557.007385 447.435852,549.996521 444.188446,541.565979 
	C443.305359,539.273376 442.697754,536.493042 439.552063,536.373352 
	C436.624908,536.262146 435.240265,538.642090 433.955719,540.752747 
	C431.621613,544.587952 429.611450,548.623962 427.206909,552.411560 
	C424.974823,555.927551 423.076965,555.750488 421.370544,551.936707 
	C419.296692,547.301880 416.392822,543.304626 412.754547,539.816711 
	C408.287354,535.534180 405.876617,535.168396 401.699371,539.517395 
	C394.642731,546.864319 388.406769,554.866699 385.972961,565.132507 
	C384.420105,571.682495 385.305542,572.965332 391.890137,573.032898 
	C413.016785,573.249451 434.143982,573.412781 456.201965,573.605408 
M440.436707,597.046265 
	C444.760193,597.218262 449.082642,597.486084 453.407501,597.534119 
	C457.401459,597.578491 460.959167,596.283203 463.695435,593.251343 
	C464.813812,592.012146 465.940979,590.567200 465.319672,588.777466 
	C464.687347,586.955933 462.931854,586.593140 461.228699,586.459534 
	C459.903137,586.355530 458.565186,586.371521 457.233459,586.389038 
	C439.085144,586.627563 420.936951,586.875854 402.788727,587.121094 
	C398.625397,587.177368 394.449615,587.051880 390.302277,587.338623 
	C386.314392,587.614258 385.436066,589.672302 387.534454,593.036499 
	C390.130066,597.197876 394.460480,597.766846 398.553040,597.443359 
	C412.199463,596.364807 425.849457,597.987549 440.436707,597.046265 
z"/>
<path fill="#000000" opacity="1.000000" stroke="none" 
	d="
M459.362274,486.222321 
	C449.632660,495.835052 441.430756,496.653748 430.753845,488.776703 
	C427.853210,486.636780 426.184052,486.906158 423.473846,488.895508 
	C415.067841,495.065765 406.567200,495.038269 399.056763,489.280518 
	C391.811249,483.725800 389.688293,475.848267 393.536591,466.024445 
	C395.393341,461.284576 394.987000,458.444305 390.608978,455.175385 
	C381.728912,448.545044 379.559418,441.361908 382.659271,433.082001 
	C385.636505,425.129608 394.711609,419.131683 404.122742,419.861908 
	C408.950256,420.236481 410.468262,417.800537 412.146912,414.256256 
	C419.418457,398.903442 432.775299,399.525726 441.764893,406.104828 
	C446.558411,409.613007 448.265503,414.957733 449.088745,420.402985 
	C449.698669,424.437134 451.501526,425.609161 455.320343,425.734314 
	C466.344025,426.095703 474.337646,432.076935 475.705383,441.302704 
	C476.880280,449.227905 473.333618,455.662292 467.323608,460.511749 
	C463.784180,463.367706 461.917114,465.893250 463.123901,470.912537 
	C464.375549,476.118317 463.432251,481.549530 459.362274,486.222321 
M452.349548,452.466919 
	C453.603302,452.047974 454.950958,451.801147 456.093201,451.177887 
	C459.520874,449.307465 462.830536,447.044250 462.295044,442.547394 
	C461.936768,439.538635 456.026672,437.342377 451.588562,438.719482 
	C447.959229,439.845673 442.750275,440.348663 442.744629,445.275848 
	C442.738922,450.241425 447.631073,451.286682 452.349548,452.466919 
M427.890167,434.528442 
	C432.617645,434.721649 434.925262,431.860718 435.649261,427.747284 
	C436.462799,423.124817 435.608826,418.679993 431.600464,415.677399 
	C429.952606,414.442993 427.792236,414.670532 426.061493,416.162292 
	C420.782257,420.712555 421.370758,430.259674 427.890167,434.528442 
M412.501465,443.851257 
	C412.612885,438.720581 409.703766,434.264801 405.167969,432.761261 
	C402.246277,431.792816 399.584412,432.493561 397.275085,434.424255 
	C395.473022,435.930817 394.661377,437.949615 395.433441,440.214325 
	C396.802979,444.231628 400.073944,445.962280 403.936615,447.043182 
	C407.313446,447.988159 410.156464,447.719971 412.501465,443.851257 
M419.652161,471.112427 
	C420.703217,468.371674 421.380981,465.650543 418.801025,463.331726 
	C417.418152,462.088867 415.968292,461.188446 413.877411,461.768799 
	C409.105713,463.093201 404.683594,469.451172 405.241119,474.426056 
	C405.682434,478.364014 409.041565,480.319641 412.808197,478.842224 
	C416.122070,477.542389 418.125671,475.017578 419.652161,471.112427 
M434.399872,472.065338 
	C435.389862,474.012421 436.658661,475.725037 438.395081,477.092041 
	C441.318085,479.393158 444.479431,481.194519 447.725433,478.094208 
	C450.940430,475.023499 449.988983,471.440552 447.821655,468.125214 
	C446.523346,466.139252 444.735779,464.579773 442.484955,463.799744 
	C440.043121,462.953491 437.518585,462.890869 435.411255,464.685516 
	C433.257141,466.520020 432.798645,468.825684 434.399872,472.065338 
z"/>
<path fill="#000000" opacity="1.000000" stroke="none" 
	d="
M537.158447,409.348053 
	C537.822937,413.576080 536.385132,416.983307 535.133545,420.413757 
	C533.539246,424.783447 531.768616,429.091644 530.275208,433.494568 
	C528.447327,438.883789 531.328003,442.173553 537.043396,441.379333 
	C540.491272,440.900238 543.921753,440.289093 547.374878,439.855957 
	C550.442627,439.471161 553.408875,439.598267 555.393005,442.552643 
	C557.407898,445.552917 555.689514,447.998383 554.080750,450.305786 
	C543.333679,465.719757 532.815796,481.304962 520.687744,495.703888 
	C520.366394,496.085388 520.080017,496.496246 519.760071,496.878906 
	C517.749451,499.283752 515.448730,501.567657 512.135376,499.692261 
	C508.900848,497.861511 509.262268,494.746887 510.485413,491.753723 
	C512.622131,486.524902 514.732178,481.282166 517.013977,476.116241 
	C522.904358,462.780701 522.646118,462.331451 508.325897,462.352783 
	C506.994659,462.354767 505.659943,462.406006 504.332794,462.330048 
	C499.060211,462.028320 496.527435,458.084045 499.048431,453.392517 
	C501.875214,448.131836 505.130737,443.081726 508.463196,438.116821 
	C515.035583,428.324890 520.767883,417.926178 528.824158,409.190338 
	C531.344177,406.457642 534.192993,404.996613 537.158447,409.348053 
z"/>
<path fill="#000000" opacity="1.000000" stroke="none" 
	d="
M511.655609,543.090210 
	C507.541504,541.582458 506.313782,538.788574 506.704987,535.050781 
	C507.089386,531.378052 509.741486,530.114929 512.801636,529.442932 
	C514.730164,529.019409 516.728821,528.723206 518.698242,528.710632 
	C529.181519,528.643494 539.665527,528.680664 550.149231,528.692078 
	C551.313049,528.693298 552.493347,528.647156 553.637573,528.815674 
	C558.155579,529.481201 561.335205,532.883545 561.142700,536.745789 
	C560.966858,540.272095 557.553833,543.255127 553.017273,543.278870 
	C539.374207,543.350281 525.730164,543.233826 511.655609,543.090210 
z"/>
<path fill="#000000" opacity="1.000000" stroke="none" 
	d="
M181.983887,544.655518 
	C186.591141,544.961243 190.749115,544.107666 194.837173,545.445801 
	C198.235870,546.558289 200.540741,548.500854 200.091537,552.223877 
	C199.664185,555.765625 197.134781,558.069824 193.706955,558.178284 
	C185.247223,558.445923 176.764709,558.451538 168.307846,558.129150 
	C164.864487,557.997864 162.366547,555.535767 162.177109,551.975586 
	C161.989166,548.443237 164.025513,546.131775 167.600052,545.256836 
	C172.201553,544.130554 176.863770,544.914001 181.983887,544.655518 
z"/>
<path fill="#000000" opacity="1.000000" stroke="none" 
	d="
M645.374512,555.535034 
	C636.461121,555.444763 627.994934,555.438049 619.530273,555.323181 
	C613.693604,555.243958 610.780518,552.809814 610.691956,548.159302 
	C610.602295,543.454285 613.859436,540.709900 619.802673,540.677734 
	C629.762451,540.623840 639.722717,540.638916 649.682678,540.667969 
	C655.758911,540.685730 659.240417,543.499939 659.255066,548.297668 
	C659.267761,552.455505 655.292480,555.679138 649.788818,555.873352 
	C648.471863,555.919861 647.144775,555.680420 645.374512,555.535034 
z"/>
<path fill="#000000" opacity="1.000000" stroke="none" 
	d="
M280.999756,404.882996 
	C292.826050,404.841278 304.152374,404.810913 315.478699,404.771698 
	C318.596832,404.760895 321.549988,405.369720 323.518494,407.976196 
	C325.303772,410.340057 326.057098,413.068909 324.621277,415.939240 
	C323.246338,418.687927 321.028839,420.314758 317.877350,420.289520 
	C311.548889,420.238892 305.215027,420.249084 298.894165,419.980713 
	C276.084106,419.012268 253.283295,419.025787 230.482605,420.239716 
	C228.124542,420.365234 225.808945,420.583893 223.708633,421.687714 
	C221.185226,423.013916 219.274353,424.948181 220.029999,428.044891 
	C220.760986,431.040558 223.397491,430.823761 225.749481,430.739105 
	C254.714935,429.696533 283.692078,429.603363 312.670990,429.646881 
	C314.669067,429.649872 316.678192,429.581818 318.662811,429.761017 
	C322.771515,430.131927 325.081879,432.602966 325.232086,436.592316 
	C325.383209,440.607056 323.834442,443.697327 319.294281,444.451965 
	C311.173462,445.801788 303.001923,445.029816 294.860474,445.061981 
	C270.210815,445.159363 245.560318,445.027954 220.910141,444.991882 
	C213.565643,444.981140 212.466019,446.080475 211.319000,453.372681 
	C210.081696,461.239014 208.813385,469.113892 207.127609,476.891632 
	C205.959641,482.280304 201.179611,485.039093 196.696503,483.489990 
	C193.090057,482.243866 191.429306,479.625549 191.657074,475.815063 
	C192.352997,464.172913 195.180389,452.878204 197.292114,441.468964 
	C198.595276,434.428284 200.373245,427.531586 203.592285,421.051636 
	C208.635498,410.899536 216.202240,405.399048 228.056198,405.528168 
	C245.533020,405.718597 263.018188,405.141357 280.999756,404.882996 
z"/>
<path fill="#000000" opacity="1.000000" stroke="none" 
	d="
M283.978241,702.061157 
	C291.533142,695.910156 299.021057,696.760742 302.753204,703.877136 
	C305.314667,708.761292 304.080841,714.548035 299.685913,718.262573 
	C295.506073,721.795288 289.939301,722.285950 285.835693,719.483398 
	C281.234161,716.340759 279.686981,710.820251 281.953339,705.343262 
	C282.392365,704.282227 283.128540,703.344116 283.978241,702.061157 
z"/>
<path fill="#000000" opacity="1.000000" stroke="none" 
	d="
M684.180664,700.674622 
	C688.217773,704.307922 690.031799,708.371277 688.162537,713.359741 
	C686.535217,717.702515 683.445862,720.559021 678.713867,721.223633 
	C673.589600,721.943237 668.752808,719.449463 666.645630,715.145996 
	C664.499146,710.762268 665.699097,704.047852 669.203796,700.830750 
	C673.229553,697.135376 677.536865,697.031311 684.180664,700.674622 
z"/>
<path fill="#000000" opacity="1.000000" stroke="none" 
	d="
M303.745300,620.280151 
	C302.670319,622.753906 301.092529,624.245728 298.953125,624.895630 
	C290.901703,627.341614 282.786469,628.552063 274.577118,625.544312 
	C269.373871,623.638062 267.576233,620.466553 269.242706,616.144226 
	C270.865479,611.935364 273.890411,610.755249 278.996796,612.741943 
	C284.008911,614.691833 288.703979,613.477478 293.572754,612.158997 
	C300.872925,610.182007 304.488708,613.032593 303.745300,620.280151 
z"/>
</svg>